  0
SECTION
  2
HEADER
  9
$ACADVER
  1
AC1024
  9
$ACADMAINTVER
 70
6
  9
$DWGCODEPAGE
  3
ANSI_1252
  9
$LASTSAVEDBY
  1
ezdxf
  9
$INSBASE
 10
0.0
 20
0.0
 30
0.0
  9
$EXTMIN
 10
1e+20
 20
1e+20
 30
1e+20
  9
$EXTMAX
 10
-1e+20
 20
-1e+20
 30
-1e+20
  9
$LIMMIN
 10
0.0
 20
0.0
  9
$LIMMAX
 10
420.0
 20
297.0
  9
$ORTHOMODE
 70
0
  9
$REGENMODE
 70
1
  9
$FILLMODE
 70
1
  9
$QTEXTMODE
 70
0
  9
$MIRRTEXT
 70
1
  9
$LTSCALE
 40
1.0
  9
$ATTMODE
 70
1
  9
$TEXTSIZE
 40
2.5
  9
$TRACEWID
 40
1.0
  9
$TEXTSTYLE
  7
OpenSans
  9
$CLAYER
  8
0
  9
$CELTYPE
  6
ByLayer
  9
$CECOLOR
 62
256
  9
$CELTSCALE
 40
1.0
  9
$DISPSILH
 70
0
  9
$DIMSCALE
 40
1.0
  9
$DIMASZ
 40
0.175
  9
$DIMEXO
 40
0.125
  9
$DIMDLI
 40
3.75
  9
$DIMRND
 40
0.0
  9
$DIMDLE
 40
0.0
  9
$DIMEXE
 40
0.375
  9
$DIMTP
 40
0.0
  9
$DIMTM
 40
0.0
  9
$DIMTXT
 40
0.25
  9
$DIMCEN
 40
2.5
  9
$DIMTSZ
 40
0.0
  9
$DIMTOL
 70
0
  9
$DIMLIM
 70
0
  9
$DIMTIH
 70
0
  9
$DIMTOH
 70
0
  9
$DIMSE1
 70
0
  9
$DIMSE2
 70
0
  9
$DIMTAD
 70
1
  9
$DIMZIN
 70
12
  9
$DIMBLK
  1
ARCHTICK
  9
$DIMASO
 70
1
  9
$DIMSHO
 70
1
  9
$DIMPOST
  1

  9
$DIMAPOST
  1

  9
$DIMALT
 70
0
  9
$DIMALTD
 70
3
  9
$DIMALTF
 40
0.03937007874
  9
$DIMLFAC
 40
100.0
  9
$DIMTOFL
 70
1
  9
$DIMTVP
 40
0.0
  9
$DIMTIX
 70
0
  9
$DIMSOXD
 70
0
  9
$DIMSAH
 70
0
  9
$DIMBLK1
  1

  9
$DIMBLK2
  1

  9
$DIMSTYLE
  2
EZDXF
  9
$DIMCLRD
 70
0
  9
$DIMCLRE
 70
0
  9
$DIMCLRT
 70
0
  9
$DIMTFAC
 40
0.5
  9
$DIMGAP
 40
0.1
  9
$DIMJUST
 70
0
  9
$DIMSD1
 70
0
  9
$DIMSD2
 70
0
  9
$DIMTOLJ
 70
0
  9
$DIMTZIN
 70
8
  9
$DIMALTZ
 70
0
  9
$DIMALTTZ
 70
0
  9
$DIMUPT
 70
1
  9
$DIMDEC
 70
2
  9
$DIMTDEC
 70
2
  9
$DIMALTU
 70
2
  9
$DIMALTTD
 70
3
  9
$DIMTXSTY
  7
OpenSansCondensed-Light
  9
$DIMAUNIT
 70
0
  9
$DIMADEC
 70
2
  9
$DIMALTRND
 40
0.0
  9
$DIMAZIN
 70
3
  9
$DIMDSEP
 70
46
  9
$DIMATFIT
 70
3
  9
$DIMFRAC
 70
0
  9
$DIMLDRBLK
  1

  9
$DIMLUNIT
 70
2
  9
$DIMLWD
 70
-2
  9
$DIMLWE
 70
-2
  9
$DIMTMOVE
 70
2
  9
$DIMFXL
 40
1.0
  9
$DIMFXLON
 70
0
  9
$DIMJOGANG
 40
0.785398163397
  9
$DIMTFILL
 70
0
  9
$DIMTFILLCLR
 70
0
  9
$DIMARCSYM
 70
0
  9
$DIMLTYPE
  6

  9
$DIMLTEX1
  6

  9
$DIMLTEX2
  6

  9
$DIMTXTDIRECTION
 70
0
  9
$LUNITS
 70
2
  9
$LUPREC
 70
4
  9
$SKETCHINC
 40
1.0
  9
$FILLETRAD
 40
10.0
  9
$AUNITS
 70
0
  9
$AUPREC
 70
2
  9
$MENU
  1
.
  9
$ELEVATION
 40
0.0
  9
$PELEVATION
 40
0.0
  9
$THICKNESS
 40
0.0
  9
$LIMCHECK
 70
0
  9
$CHAMFERA
 40
0.0
  9
$CHAMFERB
 40
0.0
  9
$CHAMFERC
 40
0.0
  9
$CHAMFERD
 40
0.0
  9
$SKPOLY
 70
0
  9
$TDCREATE
 40
2461169.220300926
  9
$TDUCREATE
 40
2458532.153996898
  9
$TDUPDATE
 40
2461169.220300926
  9
$TDUUPDATE
 40
2458532.1544311
  9
$TDINDWG
 40
0.0
  9
$TDUSRTIMER
 40
0.0
  9
$USRTIMER
 70
1
  9
$ANGBASE
 50
0.0
  9
$ANGDIR
 70
0
  9
$PDMODE
 70
0
  9
$PDSIZE
 40
0.0
  9
$PLINEWID
 40
0.0
  9
$SPLFRAME
 70
0
  9
$SPLINETYPE
 70
6
  9
$SPLINESEGS
 70
8
  9
$HANDSEED
  5
338
  9
$SURFTAB1
 70
6
  9
$SURFTAB2
 70
6
  9
$SURFTYPE
 70
6
  9
$SURFU
 70
6
  9
$SURFV
 70
6
  9
$UCSBASE
  2

  9
$UCSNAME
  2

  9
$UCSORG
 10
0.0
 20
0.0
 30
0.0
  9
$UCSXDIR
 10
1.0
 20
0.0
 30
0.0
  9
$UCSYDIR
 10
0.0
 20
1.0
 30
0.0
  9
$UCSORTHOREF
  2

  9
$UCSORTHOVIEW
 70
0
  9
$UCSORGTOP
 10
0.0
 20
0.0
 30
0.0
  9
$UCSORGBOTTOM
 10
0.0
 20
0.0
 30
0.0
  9
$UCSORGLEFT
 10
0.0
 20
0.0
 30
0.0
  9
$UCSORGRIGHT
 10
0.0
 20
0.0
 30
0.0
  9
$UCSORGFRONT
 10
0.0
 20
0.0
 30
0.0
  9
$UCSORGBACK
 10
0.0
 20
0.0
 30
0.0
  9
$PUCSBASE
  2

  9
$PUCSNAME
  2

  9
$PUCSORG
 10
0.0
 20
0.0
 30
0.0
  9
$PUCSXDIR
 10
1.0
 20
0.0
 30
0.0
  9
$PUCSYDIR
 10
0.0
 20
1.0
 30
0.0
  9
$PUCSORTHOREF
  2

  9
$PUCSORTHOVIEW
 70
0
  9
$PUCSORGTOP
 10
0.0
 20
0.0
 30
0.0
  9
$PUCSORGBOTTOM
 10
0.0
 20
0.0
 30
0.0
  9
$PUCSORGLEFT
 10
0.0
 20
0.0
 30
0.0
  9
$PUCSORGRIGHT
 10
0.0
 20
0.0
 30
0.0
  9
$PUCSORGFRONT
 10
0.0
 20
0.0
 30
0.0
  9
$PUCSORGBACK
 10
0.0
 20
0.0
 30
0.0
  9
$USERI1
 70
0
  9
$USERI2
 70
0
  9
$USERI3
 70
0
  9
$USERI4
 70
0
  9
$USERI5
 70
0
  9
$USERR1
 40
0.0
  9
$USERR2
 40
0.0
  9
$USERR3
 40
0.0
  9
$USERR4
 40
0.0
  9
$USERR5
 40
0.0
  9
$WORLDVIEW
 70
1
  9
$SHADEDGE
 70
3
  9
$SHADEDIF
 70
70
  9
$TILEMODE
 70
1
  9
$MAXACTVP
 70
64
  9
$PINSBASE
 10
0.0
 20
0.0
 30
0.0
  9
$PLIMCHECK
 70
0
  9
$PEXTMIN
 10
1e+20
 20
1e+20
 30
1e+20
  9
$PEXTMAX
 10
-1e+20
 20
-1e+20
 30
-1e+20
  9
$PLIMMIN
 10
0.0
 20
0.0
  9
$PLIMMAX
 10
420.0
 20
297.0
  9
$UNITMODE
 70
0
  9
$VISRETAIN
 70
1
  9
$PLINEGEN
 70
0
  9
$PSLTSCALE
 70
1
  9
$TREEDEPTH
 70
3020
  9
$CMLSTYLE
  2
Standard
  9
$CMLJUST
 70
0
  9
$CMLSCALE
 40
20.0
  9
$PROXYGRAPHICS
 70
1
  9
$MEASUREMENT
 70
1
  9
$CELWEIGHT
370
-1
  9
$ENDCAPS
280
0
  9
$JOINSTYLE
280
0
  9
$LWDISPLAY
290
0
  9
$INSUNITS
 70
4
  9
$HYPERLINKBASE
  1

  9
$STYLESHEET
  1

  9
$XEDIT
290
1
  9
$CEPSNTYPE
380
0
  9
$PSTYLEMODE
290
1
  9
$FINGERPRINTGUID
  2
{CF8CCCB7-2CD1-4FF8-B522-B3667B0E6985}
  9
$VERSIONGUID
  2
{8418700C-B9CA-4CB6-AA4D-79320215B8F7}
  9
$EXTNAMES
290
1
  9
$PSVPSCALE
 40
0.0
  9
$OLESTARTUP
290
0
  9
$SORTENTS
280
127
  9
$INDEXCTL
280
0
  9
$HIDETEXT
280
1
  9
$XCLIPFRAME
280
1
  9
$HALOGAP
280
0
  9
$OBSCOLOR
 70
257
  9
$OBSLTYPE
280
0
  9
$INTERSECTIONDISPLAY
280
0
  9
$INTERSECTIONCOLOR
 70
257
  9
$DIMASSOC
280
2
  9
$PROJECTNAME
  1

  9
$CAMERADISPLAY
290
0
  9
$LENSLENGTH
 40
50.0
  9
$CAMERAHEIGHT
 40
0.0
  9
$STEPSPERSEC
 40
24.0
  9
$STEPSIZE
 40
100.0
  9
$3DDWFPREC
 40
2.0
  9
$PSOLWIDTH
 40
0.005
  9
$PSOLHEIGHT
 40
0.08
  9
$LOFTANG1
 40
1.570796326795
  9
$LOFTANG2
 40
1.570796326795
  9
$LOFTMAG1
 40
0.0
  9
$LOFTMAG2
 40
0.0
  9
$LOFTPARAM
 70
7
  9
$LOFTNORMALS
280
1
  9
$LATITUDE
 40
37.795
  9
$LONGITUDE
 40
-122.394
  9
$NORTHDIRECTION
 40
0.0
  9
$TIMEZONE
 70
-8000
  9
$LIGHTGLYPHDISPLAY
280
1
  9
$TILEMODELIGHTSYNCH
280
1
  9
$CMATERIAL
347
20
  9
$SOLIDHIST
280
0
  9
$SHOWHIST
280
1
  9
$DWFFRAME
280
2
  9
$DGNFRAME
280
2
  9
$REALWORLDSCALE
290
1
  9
$INTERFERECOLOR
 62
256
  9
$CSHADOW
280
0
  9
$SHADOWPLANELOCATION
 40
0.0
  0
ENDSEC
  0
SECTION
  2
CLASSES
  0
CLASS
  1
ACDBDICTIONARYWDFLT
  2
AcDbDictionaryWithDefault
  3
ObjectDBX Classes
 90
0
 91
0
280
0
281
0
  0
CLASS
  1
SUN
  2
AcDbSun
  3
SCENEOE
 90
1153
 91
0
280
0
281
0
  0
CLASS
  1
VISUALSTYLE
  2
AcDbVisualStyle
  3
ObjectDBX Classes
 90
4095
 91
0
280
0
281
0
  0
CLASS
  1
MATERIAL
  2
AcDbMaterial
  3
ObjectDBX Classes
 90
1153
 91
0
280
0
281
0
  0
CLASS
  1
SCALE
  2
AcDbScale
  3
ObjectDBX Classes
 90
1153
 91
0
280
0
281
0
  0
CLASS
  1
TABLESTYLE
  2
AcDbTableStyle
  3
ObjectDBX Classes
 90
4095
 91
0
280
0
281
0
  0
CLASS
  1
MLEADERSTYLE
  2
AcDbMLeaderStyle
  3
ACDB_MLEADERSTYLE_CLASS
 90
4095
 91
0
280
0
281
0
  0
CLASS
  1
DICTIONARYVAR
  2
AcDbDictionaryVar
  3
ObjectDBX Classes
 90
0
 91
0
280
0
281
0
  0
CLASS
  1
CELLSTYLEMAP
  2
AcDbCellStyleMap
  3
ObjectDBX Classes
 90
1152
 91
0
280
0
281
0
  0
CLASS
  1
MENTALRAYRENDERSETTINGS
  2
AcDbMentalRayRenderSettings
  3
SCENEOE
 90
1024
 91
0
280
0
281
0
  0
CLASS
  1
ACDBDETAILVIEWSTYLE
  2
AcDbDetailViewStyle
  3
ObjectDBX Classes
 90
1025
 91
0
280
0
281
0
  0
CLASS
  1
ACDBSECTIONVIEWSTYLE
  2
AcDbSectionViewStyle
  3
ObjectDBX Classes
 90
1025
 91
0
280
0
281
0
  0
CLASS
  1
RASTERVARIABLES
  2
AcDbRasterVariables
  3
ISM
 90
0
 91
0
280
0
281
0
  0
CLASS
  1
ACDBPLACEHOLDER
  2
AcDbPlaceHolder
  3
ObjectDBX Classes
 90
0
 91
0
280
0
281
0
  0
CLASS
  1
LAYOUT
  2
AcDbLayout
  3
ObjectDBX Classes
 90
0
 91
0
280
0
281
0
  0
ENDSEC
  0
SECTION
  2
TABLES
  0
TABLE
  2
VPORT
  5
8
330
0
100
AcDbSymbolTable
 70
1
  0
VPORT
  5
23
330
8
100
AcDbSymbolTableRecord
100
AcDbViewportTableRecord
  2
*Active
 70
0
 10
0.0
 20
0.0
 11
1.0
 21
1.0
 12
0.0
 22
0.0
 13
0.0
 23
0.0
 14
0.5
 24
0.5
 15
0.5
 25
0.5
 16
0.0
 26
0.0
 36
1.0
 17
0.0
 27
0.0
 37
0.0
 40
1000.0
 41
1.34
 42
50.0
 43
0.0
 44
0.0
 50
0.0
 51
0.0
 71
0
 72
1000
 73
1
 74
3
 75
0
 76
0
 77
0
 78
0
281
0
 65
0
146
0.0
  0
ENDTAB
  0
TABLE
  2
LTYPE
  5
2
330
0
100
AcDbSymbolTable
 70
21
  0
LTYPE
  5
24
330
2
100
AcDbSymbolTableRecord
100
AcDbLinetypeTableRecord
  2
ByBlock
 70
0
  3

 72
65
 73
0
 40
0.0
  0
LTYPE
  5
25
330
2
100
AcDbSymbolTableRecord
100
AcDbLinetypeTableRecord
  2
ByLayer
 70
0
  3

 72
65
 73
0
 40
0.0
  0
LTYPE
  5
26
330
2
100
AcDbSymbolTableRecord
100
AcDbLinetypeTableRecord
  2
Continuous
 70
0
  3

 72
65
 73
0
 40
0.0
  0
LTYPE
  5
2F
330
2
100
AcDbSymbolTableRecord
100
AcDbLinetypeTableRecord
  2
CENTER
 70
0
  3
Center ____ _ ____ _ ____ _ ____ _ ____ _ ____
 72
65
 73
4
 40
5.08
 49
3.175
 74
0
 49
-0.635
 74
0
 49
0.635
 74
0
 49
-0.635
 74
0
  0
LTYPE
  5
30
330
2
100
AcDbSymbolTableRecord
100
AcDbLinetypeTableRecord
  2
CENTERX2
 70
0
  3
Center (2x) ________  __  ________  __  ________
 72
65
 73
4
 40
8.89
 49
6.35
 74
0
 49
-0.635
 74
0
 49
1.27
 74
0
 49
-0.635
 74
0
  0
LTYPE
  5
31
330
2
100
AcDbSymbolTableRecord
100
AcDbLinetypeTableRecord
  2
CENTER2
 70
0
  3
Center (.5x) ____ _ ____ _ ____ _ ____ _ ____
 72
65
 73
4
 40
2.54
 49
1.587
 74
0
 49
-0.318
 74
0
 49
0.318
 74
0
 49
-0.318
 74
0
  0
LTYPE
  5
32
330
2
100
AcDbSymbolTableRecord
100
AcDbLinetypeTableRecord
  2
DASHED
 70
0
  3
Dashed __ __ __ __ __ __ __ __ __ __ __ __ __ _
 72
65
 73
2
 40
1.524
 49
1.27
 74
0
 49
-0.254
 74
0
  0
LTYPE
  5
33
330
2
100
AcDbSymbolTableRecord
100
AcDbLinetypeTableRecord
  2
DASHEDX2
 70
0
  3
Dashed (2x) ____  ____  ____  ____  ____  ____
 72
65
 73
2
 40
3.048
 49
2.54
 74
0
 49
-0.508
 74
0
  0
LTYPE
  5
34
330
2
100
AcDbSymbolTableRecord
100
AcDbLinetypeTableRecord
  2
DASHED2
 70
0
  3
Dashed (.5x) _ _ _ _ _ _ _ _ _ _ _ _ _ _
 72
65
 73
2
 40
0.762
 49
0.635
 74
0
 49
-0.127
 74
0
  0
LTYPE
  5
35
330
2
100
AcDbSymbolTableRecord
100
AcDbLinetypeTableRecord
  2
PHANTOM
 70
0
  3
Phantom ______  __  __  ______  __  __  ______
 72
65
 73
6
 40
6.35
 49
3.175
 74
0
 49
-0.635
 74
0
 49
0.635
 74
0
 49
-0.635
 74
0
 49
0.635
 74
0
 49
-0.635
 74
0
  0
LTYPE
  5
36
330
2
100
AcDbSymbolTableRecord
100
AcDbLinetypeTableRecord
  2
PHANTOMX2
 70
0
  3
Phantom (2x)____________    ____    ____    ____________
 72
65
 73
6
 40
10.795
 49
6.35
 74
0
 49
-0.635
 74
0
 49
1.27
 74
0
 49
-0.635
 74
0
 49
1.27
 74
0
 49
-0.635
 74
0
  0
LTYPE
  5
37
330
2
100
AcDbSymbolTableRecord
100
AcDbLinetypeTableRecord
  2
PHANTOM2
 70
0
  3
Phantom (.5x) ___ _ _ ___ _ _ ___ _ _ ___ _ _ ___
 72
65
 73
6
 40
3.175
 49
1.587
 74
0
 49
-0.318
 74
0
 49
0.318
 74
0
 49
-0.318
 74
0
 49
0.318
 74
0
 49
-0.318
 74
0
  0
LTYPE
  5
38
330
2
100
AcDbSymbolTableRecord
100
AcDbLinetypeTableRecord
  2
DASHDOT
 70
0
  3
Dash dot __ . __ . __ . __ . __ . __ . __ . __
 72
65
 73
4
 40
3.556
 49
2.54
 74
0
 49
-0.508
 74
0
 49
0.0
 74
0
 49
-0.508
 74
0
  0
LTYPE
  5
39
330
2
100
AcDbSymbolTableRecord
100
AcDbLinetypeTableRecord
  2
DASHDOTX2
 70
0
  3
Dash dot (2x) ____  .  ____  .  ____  .  ____
 72
65
 73
4
 40
6.096
 49
5.08
 74
0
 49
-0.508
 74
0
 49
0.0
 74
0
 49
-0.508
 74
0
  0
LTYPE
  5
3A
330
2
100
AcDbSymbolTableRecord
100
AcDbLinetypeTableRecord
  2
DASHDOT2
 70
0
  3
Dash dot (.5x) _ . _ . _ . _ . _ . _ . _ . _
 72
65
 73
4
 40
1.778
 49
1.27
 74
0
 49
-0.254
 74
0
 49
0.0
 74
0
 49
-0.254
 74
0
  0
LTYPE
  5
3B
330
2
100
AcDbSymbolTableRecord
100
AcDbLinetypeTableRecord
  2
DOT
 70
0
  3
Dot .  .  .  .  .  .  .  .  .  .  .  .  .  .  .  .
 72
65
 73
2
 40
0.508
 49
0.0
 74
0
 49
-0.508
 74
0
  0
LTYPE
  5
3C
330
2
100
AcDbSymbolTableRecord
100
AcDbLinetypeTableRecord
  2
DOTX2
 70
0
  3
Dot (2x) .    .    .    .    .    .    .    . 
 72
65
 73
2
 40
1.016
 49
0.0
 74
0
 49
-1.016
 74
0
  0
LTYPE
  5
3D
330
2
100
AcDbSymbolTableRecord
100
AcDbLinetypeTableRecord
  2
DOT2
 70
0
  3
Dot (.5) . . . . . . . . . . . . . . . . . . . 
 72
65
 73
2
 40
0.254
 49
0.0
 74
0
 49
-0.254
 74
0
  0
LTYPE
  5
3E
330
2
100
AcDbSymbolTableRecord
100
AcDbLinetypeTableRecord
  2
DIVIDE
 70
0
  3
Divide __ . . __ . . __ . . __ . . __ . . __
 72
65
 73
6
 40
4.064
 49
2.54
 74
0
 49
-0.508
 74
0
 49
0.0
 74
0
 49
-0.508
 74
0
 49
0.0
 74
0
 49
-0.508
 74
0
  0
LTYPE
  5
3F
330
2
100
AcDbSymbolTableRecord
100
AcDbLinetypeTableRecord
  2
DIVIDEX2
 70
0
  3
Divide (2x) ____  . .  ____  . .  ____  . .  ____
 72
65
 73
6
 40
6.604
 49
5.08
 74
0
 49
-0.508
 74
0
 49
0.0
 74
0
 49
-0.508
 74
0
 49
0.0
 74
0
 49
-0.508
 74
0
  0
LTYPE
  5
40
330
2
100
AcDbSymbolTableRecord
100
AcDbLinetypeTableRecord
  2
DIVIDE2
 70
0
  3
Divide(.5x) _ . _ . _ . _ . _ . _ . _ . _
 72
65
 73
6
 40
2.032
 49
1.27
 74
0
 49
-0.254
 74
0
 49
0.0
 74
0
 49
-0.254
 74
0
 49
0.0
 74
0
 49
-0.254
 74
0
  0
ENDTAB
  0
TABLE
  2
LAYER
  5
1
330
0
100
AcDbSymbolTable
 70
2
  0
LAYER
  5
27
330
1
100
AcDbSymbolTableRecord
100
AcDbLayerTableRecord
  2
0
 70
0
 62
7
  6
Continuous
370
-3
390
13
347
21
  0
LAYER
  5
28
330
1
100
AcDbSymbolTableRecord
100
AcDbLayerTableRecord
  2
Defpoints
 70
0
 62
7
  6
Continuous
290
0
370
-3
390
13
347
21
  0
ENDTAB
  0
TABLE
  2
STYLE
  5
5
330
0
100
AcDbSymbolTable
 70
26
  0
STYLE
  5
29
330
5
100
AcDbSymbolTableRecord
100
AcDbTextStyleTableRecord
  2
Standard
 70
0
 40
0.0
 41
1.0
 50
0.0
 71
0
 42
2.5
  3
txt
  4

  0
STYLE
  5
41
330
5
100
AcDbSymbolTableRecord
100
AcDbTextStyleTableRecord
  2
OpenSans-Light
 70
0
 40
0.0
 41
1.0
 50
0.0
 71
0
 42
2.5
  3
OpenSans-Light.ttf
  4

  0
STYLE
  5
42
330
5
100
AcDbSymbolTableRecord
100
AcDbTextStyleTableRecord
  2
OpenSans-Light-Italic
 70
0
 40
0.0
 41
1.0
 50
0.0
 71
0
 42
2.5
  3
OpenSans-LightItalic.ttf
  4

  0
STYLE
  5
43
330
5
100
AcDbSymbolTableRecord
100
AcDbTextStyleTableRecord
  2
OpenSans
 70
0
 40
0.0
 41
1.0
 50
0.0
 71
0
 42
2.5
  3
OpenSans-Regular.ttf
  4

  0
STYLE
  5
44
330
5
100
AcDbSymbolTableRecord
100
AcDbTextStyleTableRecord
  2
OpenSans-Italic
 70
0
 40
0.0
 41
1.0
 50
0.0
 71
0
 42
2.5
  3
OpenSans-Italic.ttf
  4

  0
STYLE
  5
45
330
5
100
AcDbSymbolTableRecord
100
AcDbTextStyleTableRecord
  2
OpenSans-SemiBold
 70
0
 40
0.0
 41
1.0
 50
0.0
 71
0
 42
2.5
  3
OpenSans-SemiBold.ttf
  4

  0
STYLE
  5
46
330
5
100
AcDbSymbolTableRecord
100
AcDbTextStyleTableRecord
  2
OpenSans-SemiBoldItalic
 70
0
 40
0.0
 41
1.0
 50
0.0
 71
0
 42
2.5
  3
OpenSans-SemiBoldItalic.ttf
  4

  0
STYLE
  5
47
330
5
100
AcDbSymbolTableRecord
100
AcDbTextStyleTableRecord
  2
OpenSans-Bold
 70
0
 40
0.0
 41
1.0
 50
0.0
 71
0
 42
2.5
  3
OpenSans-Bold.ttf
  4

  0
STYLE
  5
48
330
5
100
AcDbSymbolTableRecord
100
AcDbTextStyleTableRecord
  2
OpenSans-BoldItalic
 70
0
 40
0.0
 41
1.0
 50
0.0
 71
0
 42
2.5
  3
OpenSans-BoldItalic.ttf
  4

  0
STYLE
  5
49
330
5
100
AcDbSymbolTableRecord
100
AcDbTextStyleTableRecord
  2
OpenSans-ExtraBold
 70
0
 40
0.0
 41
1.0
 50
0.0
 71
0
 42
2.5
  3
OpenSans-ExtraBold.ttf
  4

  0
STYLE
  5
4A
330
5
100
AcDbSymbolTableRecord
100
AcDbTextStyleTableRecord
  2
OpenSans-ExtraBoldItalic
 70
0
 40
0.0
 41
1.0
 50
0.0
 71
0
 42
2.5
  3
OpenSans-ExtraBoldItalic.ttf
  4

  0
STYLE
  5
4B
330
5
100
AcDbSymbolTableRecord
100
AcDbTextStyleTableRecord
  2
OpenSansCondensed-Bold
 70
0
 40
0.0
 41
1.0
 50
0.0
 71
0
 42
2.5
  3
OpenSansCondensed-Bold.ttf
  4

  0
STYLE
  5
4C
330
5
100
AcDbSymbolTableRecord
100
AcDbTextStyleTableRecord
  2
OpenSansCondensed-Light
 70
0
 40
0.0
 41
1.0
 50
0.0
 71
0
 42
2.5
  3
OpenSansCondensed-Light.ttf
  4

  0
STYLE
  5
4D
330
5
100
AcDbSymbolTableRecord
100
AcDbTextStyleTableRecord
  2
OpenSansCondensed-Italic
 70
0
 40
0.0
 41
1.0
 50
0.0
 71
0
 42
2.5
  3
OpenSansCondensed-LightItalic.ttf
  4

  0
STYLE
  5
4E
330
5
100
AcDbSymbolTableRecord
100
AcDbTextStyleTableRecord
  2
LiberationSans
 70
0
 40
0.0
 41
1.0
 50
0.0
 71
0
 42
2.5
  3
LiberationSans-Regular.ttf
  4

  0
STYLE
  5
4F
330
5
100
AcDbSymbolTableRecord
100
AcDbTextStyleTableRecord
  2
LiberationSans-Bold
 70
0
 40
0.0
 41
1.0
 50
0.0
 71
0
 42
2.5
  3
LiberationSans-Bold.ttf
  4

  0
STYLE
  5
50
330
5
100
AcDbSymbolTableRecord
100
AcDbTextStyleTableRecord
  2
LiberationSans-BoldItalic
 70
0
 40
0.0
 41
1.0
 50
0.0
 71
0
 42
2.5
  3
LiberationSans-BoldItalic.ttf
  4

  0
STYLE
  5
51
330
5
100
AcDbSymbolTableRecord
100
AcDbTextStyleTableRecord
  2
LiberationSans-Italic
 70
0
 40
0.0
 41
1.0
 50
0.0
 71
0
 42
2.5
  3
LiberationSans-Italic.ttf
  4

  0
STYLE
  5
52
330
5
100
AcDbSymbolTableRecord
100
AcDbTextStyleTableRecord
  2
LiberationSerif
 70
0
 40
0.0
 41
1.0
 50
0.0
 71
0
 42
2.5
  3
LiberationSerif-Regular.ttf
  4

  0
STYLE
  5
53
330
5
100
AcDbSymbolTableRecord
100
AcDbTextStyleTableRecord
  2
LiberationSerif-Bold
 70
0
 40
0.0
 41
1.0
 50
0.0
 71
0
 42
2.5
  3
LiberationSerif-Bold.ttf
  4

  0
STYLE
  5
54
330
5
100
AcDbSymbolTableRecord
100
AcDbTextStyleTableRecord
  2
LiberationSerif-BoldItalic
 70
0
 40
0.0
 41
1.0
 50
0.0
 71
0
 42
2.5
  3
LiberationSerif-BoldItalic.ttf
  4

  0
STYLE
  5
55
330
5
100
AcDbSymbolTableRecord
100
AcDbTextStyleTableRecord
  2
LiberationSerif-Italic
 70
0
 40
0.0
 41
1.0
 50
0.0
 71
0
 42
2.5
  3
LiberationSerif-Italic.ttf
  4

  0
STYLE
  5
56
330
5
100
AcDbSymbolTableRecord
100
AcDbTextStyleTableRecord
  2
LiberationMono
 70
0
 40
0.0
 41
1.0
 50
0.0
 71
0
 42
2.5
  3
LiberationMono-Regular.ttf
  4

  0
STYLE
  5
57
330
5
100
AcDbSymbolTableRecord
100
AcDbTextStyleTableRecord
  2
LiberationMono-Bold
 70
0
 40
0.0
 41
1.0
 50
0.0
 71
0
 42
2.5
  3
LiberationMono-Bold.ttf
  4

  0
STYLE
  5
58
330
5
100
AcDbSymbolTableRecord
100
AcDbTextStyleTableRecord
  2
LiberationMono-BoldItalic
 70
0
 40
0.0
 41
1.0
 50
0.0
 71
0
 42
2.5
  3
LiberationMono-BoldItalic.ttf
  4

  0
STYLE
  5
59
330
5
100
AcDbSymbolTableRecord
100
AcDbTextStyleTableRecord
  2
LiberationMono-Italic
 70
0
 40
0.0
 41
1.0
 50
0.0
 71
0
 42
2.5
  3
LiberationMono-Italic.ttf
  4

  0
ENDTAB
  0
TABLE
  2
VIEW
  5
7
330
0
100
AcDbSymbolTable
 70
0
  0
ENDTAB
  0
TABLE
  2
UCS
  5
6
330
0
100
AcDbSymbolTable
 70
0
  0
ENDTAB
  0
TABLE
  2
APPID
  5
3
330
0
100
AcDbSymbolTable
 70
3
  0
APPID
  5
2A
330
3
100
AcDbSymbolTableRecord
100
AcDbRegAppTableRecord
  2
ACAD
 70
0
  0
APPID
  5
335
330
3
100
AcDbSymbolTableRecord
100
AcDbRegAppTableRecord
  2
HATCHBACKGROUNDCOLOR
 70
0
  0
APPID
  5
336
330
3
100
AcDbSymbolTableRecord
100
AcDbRegAppTableRecord
  2
EZDXF
 70
0
  0
ENDTAB
  0
TABLE
  2
DIMSTYLE
  5
4
330
0
100
AcDbSymbolTable
 70
12
100
AcDbDimStyleTable
  0
DIMSTYLE
105
2B
330
4
100
AcDbSymbolTableRecord
100
AcDbDimStyleTableRecord
  2
Standard
 70
0
 40
1.0
 41
2.5
 42
0.625
 43
3.75
 44
1.25
 45
0.0
 46
0.0
 47
0.0
 48
0.0
 49
2.5
140
2.5
141
2.5
142
0.0
143
0.03937007874
144
1.0
145
0.0
146
1.0
147
0.625
148
0.0
 69
0
 70
0
 71
0
 72
0
 73
0
 74
0
 75
0
 76
0
 77
1
 78
8
 79
3
170
0
171
3
172
1
173
0
174
0
175
0
176
0
177
0
178
0
179
2
271
2
272
2
273
2
274
3
275
0
276
0
277
2
278
44
279
0
280
0
281
0
282
0
283
0
284
8
285
0
286
0
288
0
289
3
290
0
371
-2
372
-2
  0
DIMSTYLE
105
73
330
4
100
AcDbSymbolTableRecord
100
AcDbDimStyleTableRecord
  2
EZDXF
 70
0
 40
1.0
 41
0.175
 42
0.125
 43
3.75
 44
0.375
 45
0.0
 46
0.0
 47
0.0
 48
0.0
 49
2.5
140
0.25
141
2.5
142
0.0
143
0.03937007874
144
100.0
145
0.0
146
0.5
147
0.1
148
0.0
 69
0
 70
0
 71
0
 72
0
 73
0
 74
0
 75
0
 76
0
 77
1
 78
12
 79
3
170
0
171
3
172
1
173
0
174
0
175
0
176
0
177
0
178
0
179
2
271
2
272
2
273
2
274
3
275
0
276
0
277
2
278
46
279
2
280
0
281
0
282
0
283
0
284
8
285
0
286
0
288
1
289
3
290
0
340
4C
342
74
371
-2
372
-2
  0
DIMSTYLE
105
7C
330
4
100
AcDbSymbolTableRecord
100
AcDbDimStyleTableRecord
  2
EZ_M_100_H25_CM
 70
0
 40
1.0
 41
0.25
 42
0.125
 43
3.75
 44
0.375
 45
0.0
 46
0.0
 47
0.0
 48
0.0
 49
2.5
140
0.25
141
2.5
142
0.125
143
0.03937007874
144
100.0
145
0.0
146
0.5
147
0.1
148
0.0
 69
0
 70
0
 71
0
 72
0
 73
0
 74
0
 75
0
 76
0
 77
1
 78
12
 79
3
170
0
171
3
172
1
173
0
174
0
175
0
176
0
177
0
178
0
179
2
271
2
272
2
273
2
274
3
275
0
276
0
277
2
278
46
279
2
280
0
281
0
282
0
283
0
284
8
285
0
286
0
288
1
289
3
290
0
340
4C
371
-2
372
-2
  0
DIMSTYLE
105
7D
330
4
100
AcDbSymbolTableRecord
100
AcDbDimStyleTableRecord
  2
EZ_M_50_H25_CM
 70
0
 40
1.0
 41
0.125
 42
0.0625
 43
3.75
 44
0.1875
 45
0.0
 46
0.0
 47
0.0
 48
0.0
 49
2.5
140
0.125
141
2.5
142
0.0625
143
0.03937007874
144
100.0
145
0.0
146
0.5
147
0.05
148
0.0
 69
0
 70
0
 71
0
 72
0
 73
0
 74
0
 75
0
 76
0
 77
1
 78
12
 79
3
170
0
171
3
172
1
173
0
174
0
175
0
176
0
177
0
178
0
179
2
271
2
272
2
273
2
274
3
275
0
276
0
277
2
278
46
279
2
280
0
281
0
282
0
283
0
284
8
285
0
286
0
288
1
289
3
290
0
340
4C
371
-2
372
-2
  0
DIMSTYLE
105
7E
330
4
100
AcDbSymbolTableRecord
100
AcDbDimStyleTableRecord
  2
EZ_M_25_H25_CM
 70
0
 40
1.0
 41
0.0625
 42
0.03125
 43
3.75
 44
0.09375
 45
0.0
 46
0.0
 47
0.0
 48
0.0
 49
2.5
140
0.0625
141
2.5
142
0.03125
143
0.03937007874
144
100.0
145
0.0
146
0.5
147
0.025
148
0.0
 69
0
 70
0
 71
0
 72
0
 73
0
 74
0
 75
0
 76
0
 77
1
 78
12
 79
3
170
0
171
3
172
1
173
0
174
0
175
0
176
0
177
0
178
0
179
2
271
2
272
2
273
2
274
3
275
0
276
0
277
2
278
46
279
2
280
0
281
0
282
0
283
0
284
8
285
0
286
0
288
1
289
3
290
0
340
4C
371
-2
372
-2
  0
DIMSTYLE
105
7F
330
4
100
AcDbSymbolTableRecord
100
AcDbDimStyleTableRecord
  2
EZ_M_20_H25_CM
 70
0
 40
1.0
 41
0.05
 42
0.025
 43
3.75
 44
0.07500000000000001
 45
0.0
 46
0.0
 47
0.0
 48
0.0
 49
2.5
140
0.05
141
2.5
142
0.025
143
0.03937007874
144
100.0
145
0.0
146
0.5
147
0.020000000000000004
148
0.0
 69
0
 70
0
 71
0
 72
0
 73
0
 74
0
 75
0
 76
0
 77
1
 78
12
 79
3
170
0
171
3
172
1
173
0
174
0
175
0
176
0
177
0
178
0
179
2
271
2
272
2
273
2
274
3
275
0
276
0
277
2
278
46
279
2
280
0
281
0
282
0
283
0
284
8
285
0
286
0
288
1
289
3
290
0
340
4C
371
-2
372
-2
  0
DIMSTYLE
105
80
330
4
100
AcDbSymbolTableRecord
100
AcDbDimStyleTableRecord
  2
EZ_M_10_H25_CM
 70
0
 40
1.0
 41
0.025
 42
0.0125
 43
3.75
 44
0.037500000000000006
 45
0.0
 46
0.0
 47
0.0
 48
0.0
 49
2.5
140
0.025
141
2.5
142
0.0125
143
0.03937007874
144
100.0
145
0.0
146
0.5
147
0.010000000000000002
148
0.0
 69
0
 70
0
 71
0
 72
0
 73
0
 74
0
 75
0
 76
0
 77
1
 78
12
 79
3
170
0
171
3
172
1
173
0
174
0
175
0
176
0
177
0
178
0
179
2
271
2
272
2
273
2
274
3
275
0
276
0
277
2
278
46
279
2
280
0
281
0
282
0
283
0
284
8
285
0
286
0
288
1
289
3
290
0
340
4C
371
-2
372
-2
  0
DIMSTYLE
105
81
330
4
100
AcDbSymbolTableRecord
100
AcDbDimStyleTableRecord
  2
EZ_M_5_H25_CM
 70
0
 40
1.0
 41
0.0125
 42
0.00625
 43
3.75
 44
0.018750000000000003
 45
0.0
 46
0.0
 47
0.0
 48
0.0
 49
2.5
140
0.0125
141
2.5
142
0.00625
143
0.03937007874
144
100.0
145
0.0
146
0.5
147
0.005000000000000001
148
0.0
 69
0
 70
0
 71
0
 72
0
 73
0
 74
0
 75
0
 76
0
 77
1
 78
12
 79
3
170
0
171
3
172
1
173
0
174
0
175
0
176
0
177
0
178
0
179
2
271
2
272
2
273
2
274
3
275
0
276
0
277
2
278
46
279
2
280
0
281
0
282
0
283
0
284
8
285
0
286
0
288
1
289
3
290
0
340
4C
371
-2
372
-2
  0
DIMSTYLE
105
82
330
4
100
AcDbSymbolTableRecord
100
AcDbDimStyleTableRecord
  2
EZ_M_1_H25_CM
 70
0
 40
1.0
 41
0.0025
 42
0.00125
 43
3.75
 44
0.00375
 45
0.0
 46
0.0
 47
0.0
 48
0.0
 49
2.5
140
0.0025
141
2.5
142
0.00125
143
0.03937007874
144
100.0
145
0.0
146
0.5
147
0.001
148
0.0
 69
0
 70
0
 71
0
 72
0
 73
0
 74
0
 75
0
 76
0
 77
1
 78
12
 79
3
170
0
171
3
172
1
173
0
174
0
175
0
176
0
177
0
178
0
179
2
271
2
272
2
273
2
274
3
275
0
276
0
277
2
278
46
279
2
280
0
281
0
282
0
283
0
284
8
285
0
286
0
288
1
289
3
290
0
340
4C
371
-2
372
-2
  0
DIMSTYLE
105
83
330
4
100
AcDbSymbolTableRecord
100
AcDbDimStyleTableRecord
  2
EZ_RADIUS
 70
0
 40
1.0
 41
0.25
 42
0.125
 43
3.75
 44
0.375
 45
0.0
 46
0.0
 47
0.0
 48
0.0
 49
2.5
140
0.25
141
0.0
142
0.0
143
0.03937007874
144
100.0
145
0.0
146
0.5
147
0.1
148
0.0
 69
0
 70
0
 71
0
 72
0
 73
0
 74
0
 75
0
 76
0
 77
1
 78
12
 79
3
170
0
171
3
172
0
173
0
174
0
175
0
176
0
177
0
178
0
179
2
271
2
272
2
273
2
274
3
275
0
276
0
277
2
278
46
279
1
280
0
281
0
282
0
283
0
284
8
285
0
286
0
288
1
289
3
290
0
340
4C
342
84
371
-2
372
-2
  0
DIMSTYLE
105
88
330
4
100
AcDbSymbolTableRecord
100
AcDbDimStyleTableRecord
  2
EZ_RADIUS_INSIDE
 70
0
 40
1.0
 41
0.25
 42
0.125
 43
3.75
 44
0.375
 45
0.0
 46
0.0
 47
0.0
 48
0.0
 49
2.5
140
0.25
141
0.0
142
0.0
143
0.03937007874
144
100.0
145
0.0
146
0.5
147
0.1
148
0.0
 69
0
 70
0
 71
0
 72
0
 73
0
 74
0
 75
0
 76
0
 77
0
 78
12
 79
3
170
0
171
3
172
0
173
0
174
1
175
0
176
0
177
0
178
0
179
2
271
2
272
2
273
2
274
3
275
0
276
0
277
2
278
46
279
0
280
0
281
0
282
0
283
0
284
8
285
0
286
0
288
1
289
0
290
0
340
4C
342
84
371
-2
372
-2
  0
DIMSTYLE
105
89
330
4
100
AcDbSymbolTableRecord
100
AcDbDimStyleTableRecord
  2
EZ_CURVED
 70
0
 40
1.0
 41
0.25
 42
0.125
 43
3.75
 44
0.375
 45
0.0
 46
0.0
 47
0.0
 48
0.0
 49
2.5
140
0.25
141
2.5
142
0.0
143
0.03937007874
144
100.0
145
0.0
146
0.5
147
0.1
148
0.0
 69
0
 70
0
 71
0
 72
0
 73
0
 74
0
 75
0
 76
0
 77
1
 78
12
 79
2
 90
2
170
0
171
3
172
1
173
0
174
0
175
0
176
0
177
0
178
0
179
2
271
2
272
2
273
2
274
3
275
0
276
0
277
2
278
46
279
2
280
0
281
0
282
0
283
0
284
8
285
0
286
0
288
1
289
3
290
0
340
4C
371
-2
372
-2
  0
ENDTAB
  0
TABLE
  2
BLOCK_RECORD
  5
9
330
0
100
AcDbSymbolTable
 70
5
  0
BLOCK_RECORD
  5
17
330
9
100
AcDbSymbolTableRecord
100
AcDbBlockTableRecord
  2
*Model_Space
340
1A
 70
0
280
1
281
0
  0
BLOCK_RECORD
  5
1B
330
9
100
AcDbSymbolTableRecord
100
AcDbBlockTableRecord
  2
*Paper_Space
340
1E
 70
0
280
1
281
0
  0
BLOCK_RECORD
  5
74
330
9
100
AcDbSymbolTableRecord
100
AcDbBlockTableRecord
  2
_ARCHTICK
340
0
 70
0
280
1
281
0
  0
BLOCK_RECORD
  5
78
330
9
100
AcDbSymbolTableRecord
100
AcDbBlockTableRecord
  2
_CLOSEDFILLED
340
0
 70
0
280
1
281
0
  0
BLOCK_RECORD
  5
84
330
9
100
AcDbSymbolTableRecord
100
AcDbBlockTableRecord
  2
_CLOSEDBLANK
340
0
 70
0
280
1
281
0
  0
ENDTAB
  0
ENDSEC
  0
SECTION
  2
BLOCKS
  0
BLOCK
  5
18
330
17
100
AcDbEntity
  8
0
100
AcDbBlockBegin
  2
*Model_Space
 70
0
 10
0.0
 20
0.0
 30
0.0
  3
*Model_Space
  1

  0
ENDBLK
  5
19
330
17
100
AcDbEntity
  8
0
100
AcDbBlockEnd
  0
BLOCK
  5
1C
330
1B
100
AcDbEntity
  8
0
100
AcDbBlockBegin
  2
*Paper_Space
 70
0
 10
0.0
 20
0.0
 30
0.0
  3
*Paper_Space
  1

  0
ENDBLK
  5
1D
330
1B
100
AcDbEntity
  8
0
100
AcDbBlockEnd
  0
BLOCK
  5
75
330
74
100
AcDbEntity
  8
0
100
AcDbBlockBegin
  2
_ARCHTICK
 70
0
 10
0.0
 20
0.0
 30
0.0
  3
_ARCHTICK
  1

  0
LWPOLYLINE
  5
77
330
74
100
AcDbEntity
  8
0
  6
BYBLOCK
 62
0
100
AcDbPolyline
 90
2
 70
0
 43
0.15
 10
-0.5
 20
-0.5
 10
0.5
 20
0.5
  0
ENDBLK
  5
76
330
74
100
AcDbEntity
  8
0
100
AcDbBlockEnd
  0
BLOCK
  5
79
330
78
100
AcDbEntity
  8
0
100
AcDbBlockBegin
  2
_CLOSEDFILLED
 70
0
 10
0.0
 20
0.0
 30
0.0
  3
_CLOSEDFILLED
  1

  0
SOLID
  5
7B
330
78
100
AcDbEntity
  8
0
  6
BYBLOCK
 62
0
100
AcDbTrace
 10
-1.0
 20
0.16439898372402537
 30
0.0
 11
0.0
 21
0.0
 31
0.0
 12
-1.0
 22
-0.16439898372402537
 32
0.0
 13
-1.0
 23
-0.16439898372402537
 33
0.0
  0
ENDBLK
  5
7A
330
78
100
AcDbEntity
  8
0
100
AcDbBlockEnd
  0
BLOCK
  5
85
330
84
100
AcDbEntity
  8
0
100
AcDbBlockBegin
  2
_CLOSEDBLANK
 70
0
 10
0.0
 20
0.0
 30
0.0
  3
_CLOSEDBLANK
  1

  0
LWPOLYLINE
  5
87
330
84
100
AcDbEntity
  8
0
  6
BYBLOCK
 62
0
100
AcDbPolyline
 90
3
 70
1
 10
-1.0
 20
0.16439898372402537
 10
0.0
 20
0.0
 10
-1.0
 20
-0.16439898372402537
  0
ENDBLK
  5
86
330
84
100
AcDbEntity
  8
0
100
AcDbBlockEnd
  0
ENDSEC
  0
SECTION
  2
ENTITIES
  0
LWPOLYLINE
  5
8A
330
17
100
AcDbEntity
  8
GEOMETRY
100
AcDbPolyline
 90
4
 70
1
 10
285.71675989085946
 20
89.28324010914054
 10
485.71675989085946
 20
89.28324010914054
 10
485.71675989085946
 20
389.28324010914054
 10
285.71675989085946
 20
389.28324010914054
  0
CIRCLE
  5
8B
330
17
100
AcDbEntity
  8
GEOMETRY
100
AcDbCircle
 10
335.71675989085946
 20
139.28324010914054
 30
0.0
 40
9.0
  0
CIRCLE
  5
8C
330
17
100
AcDbEntity
  8
GEOMETRY
100
AcDbCircle
 10
435.71675989085946
 20
139.28324010914054
 30
0.0
 40
9.0
  0
CIRCLE
  5
8D
330
17
100
AcDbEntity
  8
GEOMETRY
100
AcDbCircle
 10
335.71675989085946
 20
339.28324010914054
 30
0.0
 40
11.0
  0
CIRCLE
  5
8E
330
17
100
AcDbEntity
  8
GEOMETRY
100
AcDbCircle
 10
435.71675989085946
 20
339.28324010914054
 30
0.0
 40
11.0
  0
CIRCLE
  5
8F
330
17
100
AcDbEntity
  8
GEOMETRY
100
AcDbCircle
 10
335.71675989085946
 20
289.28324010914054
 30
0.0
 40
11.0
  0
CIRCLE
  5
90
330
17
100
AcDbEntity
  8
GEOMETRY
100
AcDbCircle
 10
435.71675989085946
 20
289.28324010914054
 30
0.0
 40
11.0
  0
MTEXT
  5
91
330
17
100
AcDbEntity
  8
ANNOTATION
100
AcDbMText
 10
295.71675989085946
 20
439.28324010914054
 30
0.0
 40
5.58
 71
1
  1
PART: HORIZONTAL BRACE CONNECTION PLATE
  0
MTEXT
  5
92
330
17
100
AcDbEntity
  8
ANNOTATION
100
AcDbMText
 10
295.71675989085946
 20
429.28324010914054
 30
0.0
 40
5.58
 71
1
  1
MATERIAL: PL12 (EST)
  0
MTEXT
  5
93
330
17
100
AcDbEntity
  8
ANNOTATION
100
AcDbMText
 10
295.71675989085946
 20
419.28324010914054
 30
0.0
 40
5.58
 71
1
  1
QTY: 4 (EST)
  0
LINE
  5
94
330
17
100
AcDbEntity
  8
DIMENSION
100
AcDbLine
 10
285.71675989085946
 20
89.28324010914054
 30
0.0
 11
285.71675989085946
 21
69.28324010914054
 31
0.0
  0
LINE
  5
95
330
17
100
AcDbEntity
  8
DIMENSION
100
AcDbLine
 10
485.71675989085946
 20
89.28324010914054
 30
0.0
 11
485.71675989085946
 21
69.28324010914054
 31
0.0
  0
LINE
  5
96
330
17
100
AcDbEntity
  8
DIMENSION
100
AcDbLine
 10
285.71675989085946
 20
69.28324010914054
 30
0.0
 11
485.71675989085946
 21
69.28324010914054
 31
0.0
  0
LINE
  5
97
330
17
100
AcDbEntity
  8
DIMENSION
100
AcDbLine
 10
285.71675989085946
 20
69.28324010914054
 30
0.0
 11
288.3148361022128
 21
70.78324010914054
 31
0.0
  0
LINE
  5
98
330
17
100
AcDbEntity
  8
DIMENSION
100
AcDbLine
 10
285.71675989085946
 20
69.28324010914054
 30
0.0
 11
288.3148361022128
 21
67.78324010914054
 31
0.0
  0
LINE
  5
99
330
17
100
AcDbEntity
  8
DIMENSION
100
AcDbLine
 10
485.71675989085946
 20
69.28324010914054
 30
0.0
 11
483.11868367950615
 21
67.78324010914054
 31
0.0
  0
LINE
  5
9A
330
17
100
AcDbEntity
  8
DIMENSION
100
AcDbLine
 10
485.71675989085946
 20
69.28324010914054
 30
0.0
 11
483.11868367950615
 21
70.78324010914054
 31
0.0
  0
MTEXT
  5
9B
330
17
100
AcDbEntity
  8
ANNOTATION
100
AcDbMText
 10
385.71675989085946
 20
64.28324010914054
 30
0.0
 40
5.58
 71
5
  1
200
  0
LINE
  5
9C
330
17
100
AcDbEntity
  8
DIMENSION
100
AcDbLine
 10
485.71675989085946
 20
89.28324010914054
 30
0.0
 11
505.71675989085946
 21
89.28324010914054
 31
0.0
  0
LINE
  5
9D
330
17
100
AcDbEntity
  8
DIMENSION
100
AcDbLine
 10
485.71675989085946
 20
389.28324010914054
 30
0.0
 11
505.71675989085946
 21
389.28324010914054
 31
0.0
  0
LINE
  5
9E
330
17
100
AcDbEntity
  8
DIMENSION
100
AcDbLine
 10
505.71675989085946
 20
89.28324010914054
 30
0.0
 11
505.71675989085946
 21
389.28324010914054
 31
0.0
  0
LINE
  5
9F
330
17
100
AcDbEntity
  8
DIMENSION
100
AcDbLine
 10
505.71675989085946
 20
89.28324010914054
 30
0.0
 11
507.21675989085946
 21
86.68516389778722
 31
0.0
  0
LINE
  5
A0
330
17
100
AcDbEntity
  8
DIMENSION
100
AcDbLine
 10
505.71675989085946
 20
89.28324010914054
 30
0.0
 11
504.21675989085946
 21
86.68516389778722
 31
0.0
  0
LINE
  5
A1
330
17
100
AcDbEntity
  8
DIMENSION
100
AcDbLine
 10
505.71675989085946
 20
389.28324010914054
 30
0.0
 11
504.21675989085946
 21
391.88131632049385
 31
0.0
  0
LINE
  5
A2
330
17
100
AcDbEntity
  8
DIMENSION
100
AcDbLine
 10
505.71675989085946
 20
389.28324010914054
 30
0.0
 11
507.21675989085946
 21
391.88131632049385
 31
0.0
  0
MTEXT
  5
A3
330
17
100
AcDbEntity
  8
ANNOTATION
100
AcDbMText
 10
510.71675989085946
 20
239.28324010914054
 30
0.0
 40
5.58
 71
4
  1
300
 11
6.123233995736766e-17
 21
1.0
 31
0.0
  0
LINE
  5
A4
330
17
100
AcDbEntity
  8
DIMENSION
100
AcDbLine
 10
335.71675989085946
 20
139.28324010914054
 30
0.0
 11
335.71675989085946
 21
159.28324010914054
 31
0.0
  0
LINE
  5
A5
330
17
100
AcDbEntity
  8
DIMENSION
100
AcDbLine
 10
435.71675989085946
 20
139.28324010914054
 30
0.0
 11
435.71675989085946
 21
159.28324010914054
 31
0.0
  0
LINE
  5
A6
330
17
100
AcDbEntity
  8
DIMENSION
100
AcDbLine
 10
335.71675989085946
 20
159.28324010914054
 30
0.0
 11
435.71675989085946
 21
159.28324010914054
 31
0.0
  0
LINE
  5
A7
330
17
100
AcDbEntity
  8
DIMENSION
100
AcDbLine
 10
335.71675989085946
 20
159.28324010914054
 30
0.0
 11
338.3148361022128
 21
160.78324010914054
 31
0.0
  0
LINE
  5
A8
330
17
100
AcDbEntity
  8
DIMENSION
100
AcDbLine
 10
335.71675989085946
 20
159.28324010914054
 30
0.0
 11
338.3148361022128
 21
157.78324010914054
 31
0.0
  0
LINE
  5
A9
330
17
100
AcDbEntity
  8
DIMENSION
100
AcDbLine
 10
435.71675989085946
 20
159.28324010914054
 30
0.0
 11
433.11868367950615
 21
157.78324010914054
 31
0.0
  0
LINE
  5
AA
330
17
100
AcDbEntity
  8
DIMENSION
100
AcDbLine
 10
435.71675989085946
 20
159.28324010914054
 30
0.0
 11
433.11868367950615
 21
160.78324010914054
 31
0.0
  0
MTEXT
  5
AB
330
17
100
AcDbEntity
  8
ANNOTATION
100
AcDbMText
 10
385.71675989085946
 20
154.28324010914054
 30
0.0
 40
5.58
 71
5
  1
100.0
  0
LINE
  5
AC
330
17
100
AcDbEntity
  8
DIMENSION
100
AcDbLine
 10
285.71675989085946
 20
139.28324010914054
 30
0.0
 11
285.71675989085946
 21
119.28324010914054
 31
0.0
  0
LINE
  5
AD
330
17
100
AcDbEntity
  8
DIMENSION
100
AcDbLine
 10
335.71675989085946
 20
139.28324010914054
 30
0.0
 11
335.71675989085946
 21
119.28324010914054
 31
0.0
  0
LINE
  5
AE
330
17
100
AcDbEntity
  8
DIMENSION
100
AcDbLine
 10
285.71675989085946
 20
119.28324010914054
 30
0.0
 11
335.71675989085946
 21
119.28324010914054
 31
0.0
  0
LINE
  5
AF
330
17
100
AcDbEntity
  8
DIMENSION
100
AcDbLine
 10
285.71675989085946
 20
119.28324010914054
 30
0.0
 11
288.3148361022128
 21
120.78324010914054
 31
0.0
  0
LINE
  5
B0
330
17
100
AcDbEntity
  8
DIMENSION
100
AcDbLine
 10
285.71675989085946
 20
119.28324010914054
 30
0.0
 11
288.3148361022128
 21
117.78324010914054
 31
0.0
  0
LINE
  5
B1
330
17
100
AcDbEntity
  8
DIMENSION
100
AcDbLine
 10
335.71675989085946
 20
119.28324010914054
 30
0.0
 11
333.11868367950615
 21
117.78324010914054
 31
0.0
  0
LINE
  5
B2
330
17
100
AcDbEntity
  8
DIMENSION
100
AcDbLine
 10
335.71675989085946
 20
119.28324010914054
 30
0.0
 11
333.11868367950615
 21
120.78324010914054
 31
0.0
  0
MTEXT
  5
B3
330
17
100
AcDbEntity
  8
ANNOTATION
100
AcDbMText
 10
310.71675989085946
 20
114.28324010914054
 30
0.0
 40
5.58
 71
5
  1
50.0
  0
LINE
  5
B4
330
17
100
AcDbEntity
  8
DIMENSION
100
AcDbLine
 10
285.71675989085946
 20
89.28324010914054
 30
0.0
 11
305.71675989085946
 21
89.28324010914054
 31
0.0
  0
LINE
  5
B5
330
17
100
AcDbEntity
  8
DIMENSION
100
AcDbLine
 10
285.71675989085946
 20
139.28324010914054
 30
0.0
 11
305.71675989085946
 21
139.28324010914054
 31
0.0
  0
LINE
  5
B6
330
17
100
AcDbEntity
  8
DIMENSION
100
AcDbLine
 10
305.71675989085946
 20
89.28324010914054
 30
0.0
 11
305.71675989085946
 21
139.28324010914054
 31
0.0
  0
LINE
  5
B7
330
17
100
AcDbEntity
  8
DIMENSION
100
AcDbLine
 10
305.71675989085946
 20
89.28324010914054
 30
0.0
 11
307.21675989085946
 21
86.68516389778722
 31
0.0
  0
LINE
  5
B8
330
17
100
AcDbEntity
  8
DIMENSION
100
AcDbLine
 10
305.71675989085946
 20
89.28324010914054
 30
0.0
 11
304.21675989085946
 21
86.68516389778722
 31
0.0
  0
LINE
  5
B9
330
17
100
AcDbEntity
  8
DIMENSION
100
AcDbLine
 10
305.71675989085946
 20
139.28324010914054
 30
0.0
 11
304.21675989085946
 21
141.88131632049385
 31
0.0
  0
LINE
  5
BA
330
17
100
AcDbEntity
  8
DIMENSION
100
AcDbLine
 10
305.71675989085946
 20
139.28324010914054
 30
0.0
 11
307.21675989085946
 21
141.88131632049385
 31
0.0
  0
MTEXT
  5
BB
330
17
100
AcDbEntity
  8
ANNOTATION
100
AcDbMText
 10
310.71675989085946
 20
114.28324010914054
 30
0.0
 40
5.58
 71
4
  1
50
 11
6.123233995736766e-17
 21
1.0
 31
0.0
  0
LINE
  5
BC
330
17
100
AcDbEntity
  8
DIMENSION
100
AcDbLine
 10
326.71675989085946
 20
139.28324010914054
 30
0.0
 11
344.71675989085946
 21
139.28324010914054
 31
0.0
  0
LINE
  5
BD
330
17
100
AcDbEntity
  8
DIMENSION
100
AcDbLine
 10
326.71675989085946
 20
139.28324010914054
 30
0.0
 11
329.3148361022128
 21
140.78324010914054
 31
0.0
  0
LINE
  5
BE
330
17
100
AcDbEntity
  8
DIMENSION
100
AcDbLine
 10
326.71675989085946
 20
139.28324010914054
 30
0.0
 11
329.3148361022128
 21
137.78324010914054
 31
0.0
  0
LINE
  5
BF
330
17
100
AcDbEntity
  8
DIMENSION
100
AcDbLine
 10
344.71675989085946
 20
139.28324010914054
 30
0.0
 11
342.11868367950615
 21
137.78324010914054
 31
0.0
  0
LINE
  5
C0
330
17
100
AcDbEntity
  8
DIMENSION
100
AcDbLine
 10
344.71675989085946
 20
139.28324010914054
 30
0.0
 11
342.11868367950615
 21
140.78324010914054
 31
0.0
  0
MTEXT
  5
C1
330
17
100
AcDbEntity
  8
ANNOTATION
100
AcDbMText
 10
335.71675989085946
 20
153.28324010914054
 30
0.0
 40
5.58
 71
5
  1
Ø18
  0
LINE
  5
C2
330
17
100
AcDbEntity
  8
DIMENSION
100
AcDbLine
 10
335.71675989085946
 20
339.28324010914054
 30
0.0
 11
335.71675989085946
 21
319.28324010914054
 31
0.0
  0
LINE
  5
C3
330
17
100
AcDbEntity
  8
DIMENSION
100
AcDbLine
 10
435.71675989085946
 20
339.28324010914054
 30
0.0
 11
435.71675989085946
 21
319.28324010914054
 31
0.0
  0
LINE
  5
C4
330
17
100
AcDbEntity
  8
DIMENSION
100
AcDbLine
 10
335.71675989085946
 20
319.28324010914054
 30
0.0
 11
435.71675989085946
 21
319.28324010914054
 31
0.0
  0
LINE
  5
C5
330
17
100
AcDbEntity
  8
DIMENSION
100
AcDbLine
 10
335.71675989085946
 20
319.28324010914054
 30
0.0
 11
338.3148361022128
 21
320.78324010914054
 31
0.0
  0
LINE
  5
C6
330
17
100
AcDbEntity
  8
DIMENSION
100
AcDbLine
 10
335.71675989085946
 20
319.28324010914054
 30
0.0
 11
338.3148361022128
 21
317.78324010914054
 31
0.0
  0
LINE
  5
C7
330
17
100
AcDbEntity
  8
DIMENSION
100
AcDbLine
 10
435.71675989085946
 20
319.28324010914054
 30
0.0
 11
433.11868367950615
 21
317.78324010914054
 31
0.0
  0
LINE
  5
C8
330
17
100
AcDbEntity
  8
DIMENSION
100
AcDbLine
 10
435.71675989085946
 20
319.28324010914054
 30
0.0
 11
433.11868367950615
 21
320.78324010914054
 31
0.0
  0
MTEXT
  5
C9
330
17
100
AcDbEntity
  8
ANNOTATION
100
AcDbMText
 10
385.71675989085946
 20
314.28324010914054
 30
0.0
 40
5.58
 71
5
  1
100
  0
LINE
  5
CA
330
17
100
AcDbEntity
  8
DIMENSION
100
AcDbLine
 10
285.71675989085946
 20
339.28324010914054
 30
0.0
 11
285.71675989085946
 21
319.28324010914054
 31
0.0
  0
LINE
  5
CB
330
17
100
AcDbEntity
  8
DIMENSION
100
AcDbLine
 10
335.71675989085946
 20
339.28324010914054
 30
0.0
 11
335.71675989085946
 21
319.28324010914054
 31
0.0
  0
LINE
  5
CC
330
17
100
AcDbEntity
  8
DIMENSION
100
AcDbLine
 10
285.71675989085946
 20
319.28324010914054
 30
0.0
 11
335.71675989085946
 21
319.28324010914054
 31
0.0
  0
LINE
  5
CD
330
17
100
AcDbEntity
  8
DIMENSION
100
AcDbLine
 10
285.71675989085946
 20
319.28324010914054
 30
0.0
 11
288.3148361022128
 21
320.78324010914054
 31
0.0
  0
LINE
  5
CE
330
17
100
AcDbEntity
  8
DIMENSION
100
AcDbLine
 10
285.71675989085946
 20
319.28324010914054
 30
0.0
 11
288.3148361022128
 21
317.78324010914054
 31
0.0
  0
LINE
  5
CF
330
17
100
AcDbEntity
  8
DIMENSION
100
AcDbLine
 10
335.71675989085946
 20
319.28324010914054
 30
0.0
 11
333.11868367950615
 21
317.78324010914054
 31
0.0
  0
LINE
  5
D0
330
17
100
AcDbEntity
  8
DIMENSION
100
AcDbLine
 10
335.71675989085946
 20
319.28324010914054
 30
0.0
 11
333.11868367950615
 21
320.78324010914054
 31
0.0
  0
MTEXT
  5
D1
330
17
100
AcDbEntity
  8
ANNOTATION
100
AcDbMText
 10
310.71675989085946
 20
314.28324010914054
 30
0.0
 40
5.58
 71
5
  1
50
  0
LINE
  5
D2
330
17
100
AcDbEntity
  8
DIMENSION
100
AcDbLine
 10
285.71675989085946
 20
289.28324010914054
 30
0.0
 11
285.71675989085946
 21
269.28324010914054
 31
0.0
  0
LINE
  5
D3
330
17
100
AcDbEntity
  8
DIMENSION
100
AcDbLine
 10
335.71675989085946
 20
289.28324010914054
 30
0.0
 11
335.71675989085946
 21
269.28324010914054
 31
0.0
  0
LINE
  5
D4
330
17
100
AcDbEntity
  8
DIMENSION
100
AcDbLine
 10
285.71675989085946
 20
269.28324010914054
 30
0.0
 11
335.71675989085946
 21
269.28324010914054
 31
0.0
  0
LINE
  5
D5
330
17
100
AcDbEntity
  8
DIMENSION
100
AcDbLine
 10
285.71675989085946
 20
269.28324010914054
 30
0.0
 11
288.3148361022128
 21
270.78324010914054
 31
0.0
  0
LINE
  5
D6
330
17
100
AcDbEntity
  8
DIMENSION
100
AcDbLine
 10
285.71675989085946
 20
269.28324010914054
 30
0.0
 11
288.3148361022128
 21
267.78324010914054
 31
0.0
  0
LINE
  5
D7
330
17
100
AcDbEntity
  8
DIMENSION
100
AcDbLine
 10
335.71675989085946
 20
269.28324010914054
 30
0.0
 11
333.11868367950615
 21
267.78324010914054
 31
0.0
  0
LINE
  5
D8
330
17
100
AcDbEntity
  8
DIMENSION
100
AcDbLine
 10
335.71675989085946
 20
269.28324010914054
 30
0.0
 11
333.11868367950615
 21
270.78324010914054
 31
0.0
  0
MTEXT
  5
D9
330
17
100
AcDbEntity
  8
ANNOTATION
100
AcDbMText
 10
310.71675989085946
 20
264.28324010914054
 30
0.0
 40
5.58
 71
5
  1
50
  0
LINE
  5
DA
330
17
100
AcDbEntity
  8
DIMENSION
100
AcDbLine
 10
285.71675989085946
 20
289.28324010914054
 30
0.0
 11
305.71675989085946
 21
289.28324010914054
 31
0.0
  0
LINE
  5
DB
330
17
100
AcDbEntity
  8
DIMENSION
100
AcDbLine
 10
285.71675989085946
 20
339.28324010914054
 30
0.0
 11
305.71675989085946
 21
339.28324010914054
 31
0.0
  0
LINE
  5
DC
330
17
100
AcDbEntity
  8
DIMENSION
100
AcDbLine
 10
305.71675989085946
 20
289.28324010914054
 30
0.0
 11
305.71675989085946
 21
339.28324010914054
 31
0.0
  0
LINE
  5
DD
330
17
100
AcDbEntity
  8
DIMENSION
100
AcDbLine
 10
305.71675989085946
 20
289.28324010914054
 30
0.0
 11
307.21675989085946
 21
286.6851638977872
 31
0.0
  0
LINE
  5
DE
330
17
100
AcDbEntity
  8
DIMENSION
100
AcDbLine
 10
305.71675989085946
 20
289.28324010914054
 30
0.0
 11
304.21675989085946
 21
286.6851638977872
 31
0.0
  0
LINE
  5
DF
330
17
100
AcDbEntity
  8
DIMENSION
100
AcDbLine
 10
305.71675989085946
 20
339.28324010914054
 30
0.0
 11
304.21675989085946
 21
341.88131632049385
 31
0.0
  0
LINE
  5
E0
330
17
100
AcDbEntity
  8
DIMENSION
100
AcDbLine
 10
305.71675989085946
 20
339.28324010914054
 30
0.0
 11
307.21675989085946
 21
341.88131632049385
 31
0.0
  0
MTEXT
  5
E1
330
17
100
AcDbEntity
  8
ANNOTATION
100
AcDbMText
 10
310.71675989085946
 20
314.28324010914054
 30
0.0
 40
5.58
 71
4
  1
50
 11
6.123233995736766e-17
 21
1.0
 31
0.0
  0
LINE
  5
E2
330
17
100
AcDbEntity
  8
DIMENSION
100
AcDbLine
 10
285.71675989085946
 20
339.28324010914054
 30
0.0
 11
305.71675989085946
 21
339.28324010914054
 31
0.0
  0
LINE
  5
E3
330
17
100
AcDbEntity
  8
DIMENSION
100
AcDbLine
 10
285.71675989085946
 20
389.28324010914054
 30
0.0
 11
305.71675989085946
 21
389.28324010914054
 31
0.0
  0
LINE
  5
E4
330
17
100
AcDbEntity
  8
DIMENSION
100
AcDbLine
 10
305.71675989085946
 20
339.28324010914054
 30
0.0
 11
305.71675989085946
 21
389.28324010914054
 31
0.0
  0
LINE
  5
E5
330
17
100
AcDbEntity
  8
DIMENSION
100
AcDbLine
 10
305.71675989085946
 20
339.28324010914054
 30
0.0
 11
307.21675989085946
 21
336.6851638977872
 31
0.0
  0
LINE
  5
E6
330
17
100
AcDbEntity
  8
DIMENSION
100
AcDbLine
 10
305.71675989085946
 20
339.28324010914054
 30
0.0
 11
304.21675989085946
 21
336.6851638977872
 31
0.0
  0
LINE
  5
E7
330
17
100
AcDbEntity
  8
DIMENSION
100
AcDbLine
 10
305.71675989085946
 20
389.28324010914054
 30
0.0
 11
304.21675989085946
 21
391.88131632049385
 31
0.0
  0
LINE
  5
E8
330
17
100
AcDbEntity
  8
DIMENSION
100
AcDbLine
 10
305.71675989085946
 20
389.28324010914054
 30
0.0
 11
307.21675989085946
 21
391.88131632049385
 31
0.0
  0
MTEXT
  5
E9
330
17
100
AcDbEntity
  8
ANNOTATION
100
AcDbMText
 10
310.71675989085946
 20
364.28324010914054
 30
0.0
 40
5.58
 71
4
  1
50
 11
6.123233995736766e-17
 21
1.0
 31
0.0
  0
LINE
  5
EA
330
17
100
AcDbEntity
  8
DIMENSION
100
AcDbLine
 10
324.71675989085946
 20
339.28324010914054
 30
0.0
 11
346.71675989085946
 21
339.28324010914054
 31
0.0
  0
LINE
  5
EB
330
17
100
AcDbEntity
  8
DIMENSION
100
AcDbLine
 10
324.71675989085946
 20
339.28324010914054
 30
0.0
 11
327.3148361022128
 21
340.78324010914054
 31
0.0
  0
LINE
  5
EC
330
17
100
AcDbEntity
  8
DIMENSION
100
AcDbLine
 10
324.71675989085946
 20
339.28324010914054
 30
0.0
 11
327.3148361022128
 21
337.78324010914054
 31
0.0
  0
LINE
  5
ED
330
17
100
AcDbEntity
  8
DIMENSION
100
AcDbLine
 10
346.71675989085946
 20
339.28324010914054
 30
0.0
 11
344.11868367950615
 21
337.78324010914054
 31
0.0
  0
LINE
  5
EE
330
17
100
AcDbEntity
  8
DIMENSION
100
AcDbLine
 10
346.71675989085946
 20
339.28324010914054
 30
0.0
 11
344.11868367950615
 21
340.78324010914054
 31
0.0
  0
MTEXT
  5
EF
330
17
100
AcDbEntity
  8
ANNOTATION
100
AcDbMText
 10
335.71675989085946
 20
355.28324010914054
 30
0.0
 40
5.58
 71
5
  1
Ø22
  0
LWPOLYLINE
  5
F0
330
17
100
AcDbEntity
  8
GEOMETRY
100
AcDbPolyline
 90
8
 70
1
 10
1115.0
 20
139.28324010914054
 10
1365.0
 20
139.28324010914054
 10
1365.0
 20
239.28324010914054
 10
1280.0
 20
239.28324010914054
 10
1280.0
 20
339.28324010914054
 10
1200.0
 20
339.28324010914054
 10
1200.0
 20
239.28324010914054
 10
1115.0
 20
239.28324010914054
  0
CIRCLE
  5
F1
330
17
100
AcDbEntity
  8
GEOMETRY
100
AcDbCircle
 10
1165.0
 20
164.28324010914054
 30
0.0
 40
11.0
  0
CIRCLE
  5
F2
330
17
100
AcDbEntity
  8
GEOMETRY
100
AcDbCircle
 10
1315.0
 20
164.28324010914054
 30
0.0
 40
11.0
  0
CIRCLE
  5
F3
330
17
100
AcDbEntity
  8
GEOMETRY
100
AcDbCircle
 10
1165.0
 20
214.28324010914054
 30
0.0
 40
11.0
  0
CIRCLE
  5
F4
330
17
100
AcDbEntity
  8
GEOMETRY
100
AcDbCircle
 10
1315.0
 20
214.28324010914054
 30
0.0
 40
11.0
  0
CIRCLE
  5
F5
330
17
100
AcDbEntity
  8
GEOMETRY
100
AcDbCircle
 10
1215.0
 20
314.28324010914054
 30
0.0
 40
13.0
  0
CIRCLE
  5
F6
330
17
100
AcDbEntity
  8
GEOMETRY
100
AcDbCircle
 10
1265.0
 20
314.28324010914054
 30
0.0
 40
13.0
  0
MTEXT
  5
F7
330
17
100
AcDbEntity
  8
ANNOTATION
100
AcDbMText
 10
1125.0
 20
389.28324010914054
 30
0.0
 40
5.58
 71
1
  1
PART: INSULATOR BRACKET
  0
MTEXT
  5
F8
330
17
100
AcDbEntity
  8
ANNOTATION
100
AcDbMText
 10
1125.0
 20
379.28324010914054
 30
0.0
 40
5.58
 71
1
  1
MATERIAL: PL15 (EST)
  0
MTEXT
  5
F9
330
17
100
AcDbEntity
  8
ANNOTATION
100
AcDbMText
 10
1125.0
 20
369.28324010914054
 30
0.0
 40
5.58
 71
1
  1
QTY: 6 (EST)
  0
LINE
  5
FA
330
17
100
AcDbEntity
  8
DIMENSION
100
AcDbLine
 10
1115.0
 20
139.28324010914054
 30
0.0
 11
1115.0
 21
119.28324010914054
 31
0.0
  0
LINE
  5
FB
330
17
100
AcDbEntity
  8
DIMENSION
100
AcDbLine
 10
1365.0
 20
139.28324010914054
 30
0.0
 11
1365.0
 21
119.28324010914054
 31
0.0
  0
LINE
  5
FC
330
17
100
AcDbEntity
  8
DIMENSION
100
AcDbLine
 10
1115.0
 20
119.28324010914054
 30
0.0
 11
1365.0
 21
119.28324010914054
 31
0.0
  0
LINE
  5
FD
330
17
100
AcDbEntity
  8
DIMENSION
100
AcDbLine
 10
1115.0
 20
119.28324010914054
 30
0.0
 11
1117.5980762113534
 21
120.78324010914054
 31
0.0
  0
LINE
  5
FE
330
17
100
AcDbEntity
  8
DIMENSION
100
AcDbLine
 10
1115.0
 20
119.28324010914054
 30
0.0
 11
1117.5980762113534
 21
117.78324010914054
 31
0.0
  0
LINE
  5
FF
330
17
100
AcDbEntity
  8
DIMENSION
100
AcDbLine
 10
1365.0
 20
119.28324010914054
 30
0.0
 11
1362.4019237886466
 21
117.78324010914054
 31
0.0
  0
LINE
  5
100
330
17
100
AcDbEntity
  8
DIMENSION
100
AcDbLine
 10
1365.0
 20
119.28324010914054
 30
0.0
 11
1362.4019237886466
 21
120.78324010914054
 31
0.0
  0
MTEXT
  5
101
330
17
100
AcDbEntity
  8
ANNOTATION
100
AcDbMText
 10
1240.0
 20
114.28324010914054
 30
0.0
 40
5.58
 71
5
  1
250
  0
LINE
  5
102
330
17
100
AcDbEntity
  8
DIMENSION
100
AcDbLine
 10
1115.0
 20
139.28324010914054
 30
0.0
 11
1135.0
 21
139.28324010914054
 31
0.0
  0
LINE
  5
103
330
17
100
AcDbEntity
  8
DIMENSION
100
AcDbLine
 10
1115.0
 20
339.28324010914054
 30
0.0
 11
1135.0
 21
339.28324010914054
 31
0.0
  0
LINE
  5
104
330
17
100
AcDbEntity
  8
DIMENSION
100
AcDbLine
 10
1135.0
 20
139.28324010914054
 30
0.0
 11
1135.0
 21
339.28324010914054
 31
0.0
  0
LINE
  5
105
330
17
100
AcDbEntity
  8
DIMENSION
100
AcDbLine
 10
1135.0
 20
139.28324010914054
 30
0.0
 11
1136.5
 21
136.68516389778722
 31
0.0
  0
LINE
  5
106
330
17
100
AcDbEntity
  8
DIMENSION
100
AcDbLine
 10
1135.0
 20
139.28324010914054
 30
0.0
 11
1133.5
 21
136.68516389778722
 31
0.0
  0
LINE
  5
107
330
17
100
AcDbEntity
  8
DIMENSION
100
AcDbLine
 10
1135.0
 20
339.28324010914054
 30
0.0
 11
1133.5
 21
341.88131632049385
 31
0.0
  0
LINE
  5
108
330
17
100
AcDbEntity
  8
DIMENSION
100
AcDbLine
 10
1135.0
 20
339.28324010914054
 30
0.0
 11
1136.5
 21
341.88131632049385
 31
0.0
  0
MTEXT
  5
109
330
17
100
AcDbEntity
  8
ANNOTATION
100
AcDbMText
 10
1140.0
 20
239.28324010914054
 30
0.0
 40
5.58
 71
4
  1
200
 11
6.123233995736766e-17
 21
1.0
 31
0.0
  0
LINE
  5
10A
330
17
100
AcDbEntity
  8
DIMENSION
100
AcDbLine
 10
1115.0
 20
239.28324010914054
 30
0.0
 11
1115.0
 21
219.28324010914054
 31
0.0
  0
LINE
  5
10B
330
17
100
AcDbEntity
  8
DIMENSION
100
AcDbLine
 10
1200.0
 20
239.28324010914054
 30
0.0
 11
1200.0
 21
219.28324010914054
 31
0.0
  0
LINE
  5
10C
330
17
100
AcDbEntity
  8
DIMENSION
100
AcDbLine
 10
1115.0
 20
219.28324010914054
 30
0.0
 11
1200.0
 21
219.28324010914054
 31
0.0
  0
LINE
  5
10D
330
17
100
AcDbEntity
  8
DIMENSION
100
AcDbLine
 10
1115.0
 20
219.28324010914054
 30
0.0
 11
1117.5980762113534
 21
220.78324010914054
 31
0.0
  0
LINE
  5
10E
330
17
100
AcDbEntity
  8
DIMENSION
100
AcDbLine
 10
1115.0
 20
219.28324010914054
 30
0.0
 11
1117.5980762113534
 21
217.78324010914054
 31
0.0
  0
LINE
  5
10F
330
17
100
AcDbEntity
  8
DIMENSION
100
AcDbLine
 10
1200.0
 20
219.28324010914054
 30
0.0
 11
1197.4019237886466
 21
217.78324010914054
 31
0.0
  0
LINE
  5
110
330
17
100
AcDbEntity
  8
DIMENSION
100
AcDbLine
 10
1200.0
 20
219.28324010914054
 30
0.0
 11
1197.4019237886466
 21
220.78324010914054
 31
0.0
  0
MTEXT
  5
111
330
17
100
AcDbEntity
  8
ANNOTATION
100
AcDbMText
 10
1157.5
 20
214.28324010914054
 30
0.0
 40
5.58
 71
5
  1
85.0
  0
LINE
  5
112
330
17
100
AcDbEntity
  8
DIMENSION
100
AcDbLine
 10
1280.0
 20
239.28324010914054
 30
0.0
 11
1280.0
 21
219.28324010914054
 31
0.0
  0
LINE
  5
113
330
17
100
AcDbEntity
  8
DIMENSION
100
AcDbLine
 10
1365.0
 20
239.28324010914054
 30
0.0
 11
1365.0
 21
219.28324010914054
 31
0.0
  0
LINE
  5
114
330
17
100
AcDbEntity
  8
DIMENSION
100
AcDbLine
 10
1280.0
 20
219.28324010914054
 30
0.0
 11
1365.0
 21
219.28324010914054
 31
0.0
  0
LINE
  5
115
330
17
100
AcDbEntity
  8
DIMENSION
100
AcDbLine
 10
1280.0
 20
219.28324010914054
 30
0.0
 11
1282.5980762113534
 21
220.78324010914054
 31
0.0
  0
LINE
  5
116
330
17
100
AcDbEntity
  8
DIMENSION
100
AcDbLine
 10
1280.0
 20
219.28324010914054
 30
0.0
 11
1282.5980762113534
 21
217.78324010914054
 31
0.0
  0
LINE
  5
117
330
17
100
AcDbEntity
  8
DIMENSION
100
AcDbLine
 10
1365.0
 20
219.28324010914054
 30
0.0
 11
1362.4019237886466
 21
217.78324010914054
 31
0.0
  0
LINE
  5
118
330
17
100
AcDbEntity
  8
DIMENSION
100
AcDbLine
 10
1365.0
 20
219.28324010914054
 30
0.0
 11
1362.4019237886466
 21
220.78324010914054
 31
0.0
  0
MTEXT
  5
119
330
17
100
AcDbEntity
  8
ANNOTATION
100
AcDbMText
 10
1322.5
 20
214.28324010914054
 30
0.0
 40
5.58
 71
5
  1
85.0
  0
LINE
  5
11A
330
17
100
AcDbEntity
  8
DIMENSION
100
AcDbLine
 10
1200.0
 20
239.28324010914054
 30
0.0
 11
1200.0
 21
259.28324010914054
 31
0.0
  0
LINE
  5
11B
330
17
100
AcDbEntity
  8
DIMENSION
100
AcDbLine
 10
1280.0
 20
239.28324010914054
 30
0.0
 11
1280.0
 21
259.28324010914054
 31
0.0
  0
LINE
  5
11C
330
17
100
AcDbEntity
  8
DIMENSION
100
AcDbLine
 10
1200.0
 20
259.28324010914054
 30
0.0
 11
1280.0
 21
259.28324010914054
 31
0.0
  0
LINE
  5
11D
330
17
100
AcDbEntity
  8
DIMENSION
100
AcDbLine
 10
1200.0
 20
259.28324010914054
 30
0.0
 11
1202.5980762113534
 21
260.78324010914054
 31
0.0
  0
LINE
  5
11E
330
17
100
AcDbEntity
  8
DIMENSION
100
AcDbLine
 10
1200.0
 20
259.28324010914054
 30
0.0
 11
1202.5980762113534
 21
257.78324010914054
 31
0.0
  0
LINE
  5
11F
330
17
100
AcDbEntity
  8
DIMENSION
100
AcDbLine
 10
1280.0
 20
259.28324010914054
 30
0.0
 11
1277.4019237886466
 21
257.78324010914054
 31
0.0
  0
LINE
  5
120
330
17
100
AcDbEntity
  8
DIMENSION
100
AcDbLine
 10
1280.0
 20
259.28324010914054
 30
0.0
 11
1277.4019237886466
 21
260.78324010914054
 31
0.0
  0
MTEXT
  5
121
330
17
100
AcDbEntity
  8
ANNOTATION
100
AcDbMText
 10
1240.0
 20
254.28324010914054
 30
0.0
 40
5.58
 71
5
  1
80
  0
LINE
  5
122
330
17
100
AcDbEntity
  8
DIMENSION
100
AcDbLine
 10
1200.0
 20
239.28324010914054
 30
0.0
 11
1220.0
 21
239.28324010914054
 31
0.0
  0
LINE
  5
123
330
17
100
AcDbEntity
  8
DIMENSION
100
AcDbLine
 10
1200.0
 20
339.28324010914054
 30
0.0
 11
1220.0
 21
339.28324010914054
 31
0.0
  0
LINE
  5
124
330
17
100
AcDbEntity
  8
DIMENSION
100
AcDbLine
 10
1220.0
 20
239.28324010914054
 30
0.0
 11
1220.0
 21
339.28324010914054
 31
0.0
  0
LINE
  5
125
330
17
100
AcDbEntity
  8
DIMENSION
100
AcDbLine
 10
1220.0
 20
239.28324010914054
 30
0.0
 11
1221.5
 21
236.68516389778722
 31
0.0
  0
LINE
  5
126
330
17
100
AcDbEntity
  8
DIMENSION
100
AcDbLine
 10
1220.0
 20
239.28324010914054
 30
0.0
 11
1218.5
 21
236.68516389778722
 31
0.0
  0
LINE
  5
127
330
17
100
AcDbEntity
  8
DIMENSION
100
AcDbLine
 10
1220.0
 20
339.28324010914054
 30
0.0
 11
1218.5
 21
341.88131632049385
 31
0.0
  0
LINE
  5
128
330
17
100
AcDbEntity
  8
DIMENSION
100
AcDbLine
 10
1220.0
 20
339.28324010914054
 30
0.0
 11
1221.5
 21
341.88131632049385
 31
0.0
  0
MTEXT
  5
129
330
17
100
AcDbEntity
  8
ANNOTATION
100
AcDbMText
 10
1225.0
 20
289.28324010914054
 30
0.0
 40
5.58
 71
4
  1
100
 11
6.123233995736766e-17
 21
1.0
 31
0.0
  0
LINE
  5
12A
330
17
100
AcDbEntity
  8
DIMENSION
100
AcDbLine
 10
1115.0
 20
164.28324010914054
 30
0.0
 11
1115.0
 21
184.28324010914054
 31
0.0
  0
LINE
  5
12B
330
17
100
AcDbEntity
  8
DIMENSION
100
AcDbLine
 10
1165.0
 20
164.28324010914054
 30
0.0
 11
1165.0
 21
184.28324010914054
 31
0.0
  0
LINE
  5
12C
330
17
100
AcDbEntity
  8
DIMENSION
100
AcDbLine
 10
1115.0
 20
184.28324010914054
 30
0.0
 11
1165.0
 21
184.28324010914054
 31
0.0
  0
LINE
  5
12D
330
17
100
AcDbEntity
  8
DIMENSION
100
AcDbLine
 10
1115.0
 20
184.28324010914054
 30
0.0
 11
1117.5980762113534
 21
185.78324010914054
 31
0.0
  0
LINE
  5
12E
330
17
100
AcDbEntity
  8
DIMENSION
100
AcDbLine
 10
1115.0
 20
184.28324010914054
 30
0.0
 11
1117.5980762113534
 21
182.78324010914054
 31
0.0
  0
LINE
  5
12F
330
17
100
AcDbEntity
  8
DIMENSION
100
AcDbLine
 10
1165.0
 20
184.28324010914054
 30
0.0
 11
1162.4019237886466
 21
182.78324010914054
 31
0.0
  0
LINE
  5
130
330
17
100
AcDbEntity
  8
DIMENSION
100
AcDbLine
 10
1165.0
 20
184.28324010914054
 30
0.0
 11
1162.4019237886466
 21
185.78324010914054
 31
0.0
  0
MTEXT
  5
131
330
17
100
AcDbEntity
  8
ANNOTATION
100
AcDbMText
 10
1140.0
 20
179.28324010914054
 30
0.0
 40
5.58
 71
5
  1
50
  0
LINE
  5
132
330
17
100
AcDbEntity
  8
DIMENSION
100
AcDbLine
 10
1165.0
 20
164.28324010914054
 30
0.0
 11
1165.0
 21
184.28324010914054
 31
0.0
  0
LINE
  5
133
330
17
100
AcDbEntity
  8
DIMENSION
100
AcDbLine
 10
1315.0
 20
164.28324010914054
 30
0.0
 11
1315.0
 21
184.28324010914054
 31
0.0
  0
LINE
  5
134
330
17
100
AcDbEntity
  8
DIMENSION
100
AcDbLine
 10
1165.0
 20
184.28324010914054
 30
0.0
 11
1315.0
 21
184.28324010914054
 31
0.0
  0
LINE
  5
135
330
17
100
AcDbEntity
  8
DIMENSION
100
AcDbLine
 10
1165.0
 20
184.28324010914054
 30
0.0
 11
1167.5980762113534
 21
185.78324010914054
 31
0.0
  0
LINE
  5
136
330
17
100
AcDbEntity
  8
DIMENSION
100
AcDbLine
 10
1165.0
 20
184.28324010914054
 30
0.0
 11
1167.5980762113534
 21
182.78324010914054
 31
0.0
  0
LINE
  5
137
330
17
100
AcDbEntity
  8
DIMENSION
100
AcDbLine
 10
1315.0
 20
184.28324010914054
 30
0.0
 11
1312.4019237886466
 21
182.78324010914054
 31
0.0
  0
LINE
  5
138
330
17
100
AcDbEntity
  8
DIMENSION
100
AcDbLine
 10
1315.0
 20
184.28324010914054
 30
0.0
 11
1312.4019237886466
 21
185.78324010914054
 31
0.0
  0
MTEXT
  5
139
330
17
100
AcDbEntity
  8
ANNOTATION
100
AcDbMText
 10
1240.0
 20
179.28324010914054
 30
0.0
 40
5.58
 71
5
  1
150
  0
LINE
  5
13A
330
17
100
AcDbEntity
  8
DIMENSION
100
AcDbLine
 10
1115.0
 20
139.28324010914054
 30
0.0
 11
1135.0
 21
139.28324010914054
 31
0.0
  0
LINE
  5
13B
330
17
100
AcDbEntity
  8
DIMENSION
100
AcDbLine
 10
1115.0
 20
164.28324010914054
 30
0.0
 11
1135.0
 21
164.28324010914054
 31
0.0
  0
LINE
  5
13C
330
17
100
AcDbEntity
  8
DIMENSION
100
AcDbLine
 10
1135.0
 20
139.28324010914054
 30
0.0
 11
1135.0
 21
164.28324010914054
 31
0.0
  0
LINE
  5
13D
330
17
100
AcDbEntity
  8
DIMENSION
100
AcDbLine
 10
1135.0
 20
139.28324010914054
 30
0.0
 11
1136.5
 21
136.68516389778722
 31
0.0
  0
LINE
  5
13E
330
17
100
AcDbEntity
  8
DIMENSION
100
AcDbLine
 10
1135.0
 20
139.28324010914054
 30
0.0
 11
1133.5
 21
136.68516389778722
 31
0.0
  0
LINE
  5
13F
330
17
100
AcDbEntity
  8
DIMENSION
100
AcDbLine
 10
1135.0
 20
164.28324010914054
 30
0.0
 11
1133.5
 21
166.88131632049385
 31
0.0
  0
LINE
  5
140
330
17
100
AcDbEntity
  8
DIMENSION
100
AcDbLine
 10
1135.0
 20
164.28324010914054
 30
0.0
 11
1136.5
 21
166.88131632049385
 31
0.0
  0
MTEXT
  5
141
330
17
100
AcDbEntity
  8
ANNOTATION
100
AcDbMText
 10
1140.0
 20
151.78324010914054
 30
0.0
 40
5.58
 71
4
  1
25
 11
6.123233995736766e-17
 21
1.0
 31
0.0
  0
LINE
  5
142
330
17
100
AcDbEntity
  8
DIMENSION
100
AcDbLine
 10
1115.0
 20
164.28324010914054
 30
0.0
 11
1135.0
 21
164.28324010914054
 31
0.0
  0
LINE
  5
143
330
17
100
AcDbEntity
  8
DIMENSION
100
AcDbLine
 10
1115.0
 20
214.28324010914054
 30
0.0
 11
1135.0
 21
214.28324010914054
 31
0.0
  0
LINE
  5
144
330
17
100
AcDbEntity
  8
DIMENSION
100
AcDbLine
 10
1135.0
 20
164.28324010914054
 30
0.0
 11
1135.0
 21
214.28324010914054
 31
0.0
  0
LINE
  5
145
330
17
100
AcDbEntity
  8
DIMENSION
100
AcDbLine
 10
1135.0
 20
164.28324010914054
 30
0.0
 11
1136.5
 21
161.68516389778722
 31
0.0
  0
LINE
  5
146
330
17
100
AcDbEntity
  8
DIMENSION
100
AcDbLine
 10
1135.0
 20
164.28324010914054
 30
0.0
 11
1133.5
 21
161.68516389778722
 31
0.0
  0
LINE
  5
147
330
17
100
AcDbEntity
  8
DIMENSION
100
AcDbLine
 10
1135.0
 20
214.28324010914054
 30
0.0
 11
1133.5
 21
216.88131632049385
 31
0.0
  0
LINE
  5
148
330
17
100
AcDbEntity
  8
DIMENSION
100
AcDbLine
 10
1135.0
 20
214.28324010914054
 30
0.0
 11
1136.5
 21
216.88131632049385
 31
0.0
  0
MTEXT
  5
149
330
17
100
AcDbEntity
  8
ANNOTATION
100
AcDbMText
 10
1140.0
 20
189.28324010914054
 30
0.0
 40
5.58
 71
4
  1
50
 11
6.123233995736766e-17
 21
1.0
 31
0.0
  0
LINE
  5
14A
330
17
100
AcDbEntity
  8
DIMENSION
100
AcDbLine
 10
1154.0
 20
164.28324010914054
 30
0.0
 11
1176.0
 21
164.28324010914054
 31
0.0
  0
LINE
  5
14B
330
17
100
AcDbEntity
  8
DIMENSION
100
AcDbLine
 10
1154.0
 20
164.28324010914054
 30
0.0
 11
1156.5980762113534
 21
165.78324010914054
 31
0.0
  0
LINE
  5
14C
330
17
100
AcDbEntity
  8
DIMENSION
100
AcDbLine
 10
1154.0
 20
164.28324010914054
 30
0.0
 11
1156.5980762113534
 21
162.78324010914054
 31
0.0
  0
LINE
  5
14D
330
17
100
AcDbEntity
  8
DIMENSION
100
AcDbLine
 10
1176.0
 20
164.28324010914054
 30
0.0
 11
1173.4019237886466
 21
162.78324010914054
 31
0.0
  0
LINE
  5
14E
330
17
100
AcDbEntity
  8
DIMENSION
100
AcDbLine
 10
1176.0
 20
164.28324010914054
 30
0.0
 11
1173.4019237886466
 21
165.78324010914054
 31
0.0
  0
MTEXT
  5
14F
330
17
100
AcDbEntity
  8
ANNOTATION
100
AcDbMText
 10
1165.0
 20
180.28324010914054
 30
0.0
 40
5.58
 71
5
  1
Ø22
  0
LINE
  5
150
330
17
100
AcDbEntity
  8
DIMENSION
100
AcDbLine
 10
1115.0
 20
314.28324010914054
 30
0.0
 11
1115.0
 21
294.28324010914054
 31
0.0
  0
LINE
  5
151
330
17
100
AcDbEntity
  8
DIMENSION
100
AcDbLine
 10
1215.0
 20
314.28324010914054
 30
0.0
 11
1215.0
 21
294.28324010914054
 31
0.0
  0
LINE
  5
152
330
17
100
AcDbEntity
  8
DIMENSION
100
AcDbLine
 10
1115.0
 20
294.28324010914054
 30
0.0
 11
1215.0
 21
294.28324010914054
 31
0.0
  0
LINE
  5
153
330
17
100
AcDbEntity
  8
DIMENSION
100
AcDbLine
 10
1115.0
 20
294.28324010914054
 30
0.0
 11
1117.5980762113534
 21
295.78324010914054
 31
0.0
  0
LINE
  5
154
330
17
100
AcDbEntity
  8
DIMENSION
100
AcDbLine
 10
1115.0
 20
294.28324010914054
 30
0.0
 11
1117.5980762113534
 21
292.78324010914054
 31
0.0
  0
LINE
  5
155
330
17
100
AcDbEntity
  8
DIMENSION
100
AcDbLine
 10
1215.0
 20
294.28324010914054
 30
0.0
 11
1212.4019237886466
 21
292.78324010914054
 31
0.0
  0
LINE
  5
156
330
17
100
AcDbEntity
  8
DIMENSION
100
AcDbLine
 10
1215.0
 20
294.28324010914054
 30
0.0
 11
1212.4019237886466
 21
295.78324010914054
 31
0.0
  0
MTEXT
  5
157
330
17
100
AcDbEntity
  8
ANNOTATION
100
AcDbMText
 10
1165.0
 20
289.28324010914054
 30
0.0
 40
5.58
 71
5
  1
100.0
  0
LINE
  5
158
330
17
100
AcDbEntity
  8
DIMENSION
100
AcDbLine
 10
1215.0
 20
314.28324010914054
 30
0.0
 11
1215.0
 21
294.28324010914054
 31
0.0
  0
LINE
  5
159
330
17
100
AcDbEntity
  8
DIMENSION
100
AcDbLine
 10
1265.0
 20
314.28324010914054
 30
0.0
 11
1265.0
 21
294.28324010914054
 31
0.0
  0
LINE
  5
15A
330
17
100
AcDbEntity
  8
DIMENSION
100
AcDbLine
 10
1215.0
 20
294.28324010914054
 30
0.0
 11
1265.0
 21
294.28324010914054
 31
0.0
  0
LINE
  5
15B
330
17
100
AcDbEntity
  8
DIMENSION
100
AcDbLine
 10
1215.0
 20
294.28324010914054
 30
0.0
 11
1217.5980762113534
 21
295.78324010914054
 31
0.0
  0
LINE
  5
15C
330
17
100
AcDbEntity
  8
DIMENSION
100
AcDbLine
 10
1215.0
 20
294.28324010914054
 30
0.0
 11
1217.5980762113534
 21
292.78324010914054
 31
0.0
  0
LINE
  5
15D
330
17
100
AcDbEntity
  8
DIMENSION
100
AcDbLine
 10
1265.0
 20
294.28324010914054
 30
0.0
 11
1262.4019237886466
 21
292.78324010914054
 31
0.0
  0
LINE
  5
15E
330
17
100
AcDbEntity
  8
DIMENSION
100
AcDbLine
 10
1265.0
 20
294.28324010914054
 30
0.0
 11
1262.4019237886466
 21
295.78324010914054
 31
0.0
  0
MTEXT
  5
15F
330
17
100
AcDbEntity
  8
ANNOTATION
100
AcDbMText
 10
1240.0
 20
289.28324010914054
 30
0.0
 40
5.58
 71
5
  1
50.0
  0
LINE
  5
160
330
17
100
AcDbEntity
  8
DIMENSION
100
AcDbLine
 10
1115.0
 20
314.28324010914054
 30
0.0
 11
1135.0
 21
314.28324010914054
 31
0.0
  0
LINE
  5
161
330
17
100
AcDbEntity
  8
DIMENSION
100
AcDbLine
 10
1115.0
 20
339.28324010914054
 30
0.0
 11
1135.0
 21
339.28324010914054
 31
0.0
  0
LINE
  5
162
330
17
100
AcDbEntity
  8
DIMENSION
100
AcDbLine
 10
1135.0
 20
314.28324010914054
 30
0.0
 11
1135.0
 21
339.28324010914054
 31
0.0
  0
LINE
  5
163
330
17
100
AcDbEntity
  8
DIMENSION
100
AcDbLine
 10
1135.0
 20
314.28324010914054
 30
0.0
 11
1136.5
 21
311.6851638977872
 31
0.0
  0
LINE
  5
164
330
17
100
AcDbEntity
  8
DIMENSION
100
AcDbLine
 10
1135.0
 20
314.28324010914054
 30
0.0
 11
1133.5
 21
311.6851638977872
 31
0.0
  0
LINE
  5
165
330
17
100
AcDbEntity
  8
DIMENSION
100
AcDbLine
 10
1135.0
 20
339.28324010914054
 30
0.0
 11
1133.5
 21
341.88131632049385
 31
0.0
  0
LINE
  5
166
330
17
100
AcDbEntity
  8
DIMENSION
100
AcDbLine
 10
1135.0
 20
339.28324010914054
 30
0.0
 11
1136.5
 21
341.88131632049385
 31
0.0
  0
MTEXT
  5
167
330
17
100
AcDbEntity
  8
ANNOTATION
100
AcDbMText
 10
1140.0
 20
326.78324010914054
 30
0.0
 40
5.58
 71
4
  1
25
 11
6.123233995736766e-17
 21
1.0
 31
0.0
  0
LINE
  5
168
330
17
100
AcDbEntity
  8
DIMENSION
100
AcDbLine
 10
1202.0
 20
314.28324010914054
 30
0.0
 11
1228.0
 21
314.28324010914054
 31
0.0
  0
LINE
  5
169
330
17
100
AcDbEntity
  8
DIMENSION
100
AcDbLine
 10
1202.0
 20
314.28324010914054
 30
0.0
 11
1204.5980762113534
 21
315.78324010914054
 31
0.0
  0
LINE
  5
16A
330
17
100
AcDbEntity
  8
DIMENSION
100
AcDbLine
 10
1202.0
 20
314.28324010914054
 30
0.0
 11
1204.5980762113534
 21
312.78324010914054
 31
0.0
  0
LINE
  5
16B
330
17
100
AcDbEntity
  8
DIMENSION
100
AcDbLine
 10
1228.0
 20
314.28324010914054
 30
0.0
 11
1225.4019237886466
 21
312.78324010914054
 31
0.0
  0
LINE
  5
16C
330
17
100
AcDbEntity
  8
DIMENSION
100
AcDbLine
 10
1228.0
 20
314.28324010914054
 30
0.0
 11
1225.4019237886466
 21
315.78324010914054
 31
0.0
  0
MTEXT
  5
16D
330
17
100
AcDbEntity
  8
ANNOTATION
100
AcDbMText
 10
1215.0
 20
332.28324010914054
 30
0.0
 40
5.58
 71
5
  1
Ø26
  0
LWPOLYLINE
  5
16E
330
17
100
AcDbEntity
  8
GEOMETRY
100
AcDbPolyline
 90
3
 70
0
 10
1990.7167598908595
 20
199.2832401091405
 10
2100.7167598908595
 20
199.2832401091405
 10
2100.7167598908595
 20
279.2832401091405
  0
ARC
  5
16F
330
17
100
AcDbEntity
  8
GEOMETRY
100
AcDbCircle
 10
2100.7167598908595
 20
239.2832401091405
 30
0.0
 40
40.0
100
AcDbArc
 50
90.0
 51
-90.00000000000001
  0
LINE
  5
170
330
17
100
AcDbEntity
  8
GEOMETRY
100
AcDbLine
 10
1990.7167598908595
 20
279.2832401091405
 30
0.0
 11
2100.7167598908595
 21
279.2832401091405
 31
0.0
  0
LINE
  5
171
330
17
100
AcDbEntity
  8
GEOMETRY
100
AcDbLine
 10
1990.7167598908595
 20
279.2832401091405
 30
0.0
 11
1990.7167598908595
 21
199.2832401091405
 31
0.0
  0
CIRCLE
  5
172
330
17
100
AcDbEntity
  8
GEOMETRY
100
AcDbCircle
 10
2140.7167598908595
 20
239.2832401091405
 30
0.0
 40
15.0
  0
CIRCLE
  5
173
330
17
100
AcDbEntity
  8
GEOMETRY
100
AcDbCircle
 10
2040.7167598908595
 20
214.2832401091405
 30
0.0
 40
9.0
  0
CIRCLE
  5
174
330
17
100
AcDbEntity
  8
GEOMETRY
100
AcDbCircle
 10
2040.7167598908595
 20
264.2832401091405
 30
0.0
 40
9.0
  0
MTEXT
  5
175
330
17
100
AcDbEntity
  8
ANNOTATION
100
AcDbMText
 10
2000.7167598908595
 20
329.2832401091405
 30
0.0
 40
5.58
 71
1
  1
PART: INSULATOR LUG PLATE
  0
MTEXT
  5
176
330
17
100
AcDbEntity
  8
ANNOTATION
100
AcDbMText
 10
2000.7167598908595
 20
319.2832401091405
 30
0.0
 40
5.58
 71
1
  1
MATERIAL: PL12 (EST)
  0
MTEXT
  5
177
330
17
100
AcDbEntity
  8
ANNOTATION
100
AcDbMText
 10
2000.7167598908595
 20
309.2832401091405
 30
0.0
 40
5.58
 71
1
  1
QTY: 12 (EST)
  0
LINE
  5
178
330
17
100
AcDbEntity
  8
DIMENSION
100
AcDbLine
 10
1990.7167598908595
 20
199.2832401091405
 30
0.0
 11
1990.7167598908595
 21
179.2832401091405
 31
0.0
  0
LINE
  5
179
330
17
100
AcDbEntity
  8
DIMENSION
100
AcDbLine
 10
2140.7167598908595
 20
199.2832401091405
 30
0.0
 11
2140.7167598908595
 21
179.2832401091405
 31
0.0
  0
LINE
  5
17A
330
17
100
AcDbEntity
  8
DIMENSION
100
AcDbLine
 10
1990.7167598908595
 20
179.2832401091405
 30
0.0
 11
2140.7167598908595
 21
179.2832401091405
 31
0.0
  0
LINE
  5
17B
330
17
100
AcDbEntity
  8
DIMENSION
100
AcDbLine
 10
1990.7167598908595
 20
179.2832401091405
 30
0.0
 11
1993.314836102213
 21
180.7832401091405
 31
0.0
  0
LINE
  5
17C
330
17
100
AcDbEntity
  8
DIMENSION
100
AcDbLine
 10
1990.7167598908595
 20
179.2832401091405
 30
0.0
 11
1993.314836102213
 21
177.7832401091405
 31
0.0
  0
LINE
  5
17D
330
17
100
AcDbEntity
  8
DIMENSION
100
AcDbLine
 10
2140.7167598908595
 20
179.2832401091405
 30
0.0
 11
2138.1186836795064
 21
177.7832401091405
 31
0.0
  0
LINE
  5
17E
330
17
100
AcDbEntity
  8
DIMENSION
100
AcDbLine
 10
2140.7167598908595
 20
179.2832401091405
 30
0.0
 11
2138.1186836795064
 21
180.7832401091405
 31
0.0
  0
MTEXT
  5
17F
330
17
100
AcDbEntity
  8
ANNOTATION
100
AcDbMText
 10
2065.7167598908595
 20
174.2832401091405
 30
0.0
 40
5.58
 71
5
  1
150
  0
LINE
  5
180
330
17
100
AcDbEntity
  8
DIMENSION
100
AcDbLine
 10
2140.7167598908595
 20
199.2832401091405
 30
0.0
 11
2160.7167598908595
 21
199.2832401091405
 31
0.0
  0
LINE
  5
181
330
17
100
AcDbEntity
  8
DIMENSION
100
AcDbLine
 10
2140.7167598908595
 20
279.2832401091405
 30
0.0
 11
2160.7167598908595
 21
279.2832401091405
 31
0.0
  0
LINE
  5
182
330
17
100
AcDbEntity
  8
DIMENSION
100
AcDbLine
 10
2160.7167598908595
 20
199.2832401091405
 30
0.0
 11
2160.7167598908595
 21
279.2832401091405
 31
0.0
  0
LINE
  5
183
330
17
100
AcDbEntity
  8
DIMENSION
100
AcDbLine
 10
2160.7167598908595
 20
199.2832401091405
 30
0.0
 11
2162.2167598908595
 21
196.6851638977872
 31
0.0
  0
LINE
  5
184
330
17
100
AcDbEntity
  8
DIMENSION
100
AcDbLine
 10
2160.7167598908595
 20
199.2832401091405
 30
0.0
 11
2159.2167598908595
 21
196.6851638977872
 31
0.0
  0
LINE
  5
185
330
17
100
AcDbEntity
  8
DIMENSION
100
AcDbLine
 10
2160.7167598908595
 20
279.2832401091405
 30
0.0
 11
2159.2167598908595
 21
281.88131632049385
 31
0.0
  0
LINE
  5
186
330
17
100
AcDbEntity
  8
DIMENSION
100
AcDbLine
 10
2160.7167598908595
 20
279.2832401091405
 30
0.0
 11
2162.2167598908595
 21
281.88131632049385
 31
0.0
  0
MTEXT
  5
187
330
17
100
AcDbEntity
  8
ANNOTATION
100
AcDbMText
 10
2165.7167598908595
 20
239.2832401091405
 30
0.0
 40
5.58
 71
4
  1
80
 11
6.123233995736766e-17
 21
1.0
 31
0.0
  0
LINE
  5
188
330
17
100
AcDbEntity
  8
DIMENSION
100
AcDbLine
 10
1990.7167598908595
 20
214.2832401091405
 30
0.0
 11
1990.7167598908595
 21
234.2832401091405
 31
0.0
  0
LINE
  5
189
330
17
100
AcDbEntity
  8
DIMENSION
100
AcDbLine
 10
2040.7167598908595
 20
214.2832401091405
 30
0.0
 11
2040.7167598908595
 21
234.2832401091405
 31
0.0
  0
LINE
  5
18A
330
17
100
AcDbEntity
  8
DIMENSION
100
AcDbLine
 10
1990.7167598908595
 20
234.2832401091405
 30
0.0
 11
2040.7167598908595
 21
234.2832401091405
 31
0.0
  0
LINE
  5
18B
330
17
100
AcDbEntity
  8
DIMENSION
100
AcDbLine
 10
1990.7167598908595
 20
234.2832401091405
 30
0.0
 11
1993.314836102213
 21
235.7832401091405
 31
0.0
  0
LINE
  5
18C
330
17
100
AcDbEntity
  8
DIMENSION
100
AcDbLine
 10
1990.7167598908595
 20
234.2832401091405
 30
0.0
 11
1993.314836102213
 21
232.7832401091405
 31
0.0
  0
LINE
  5
18D
330
17
100
AcDbEntity
  8
DIMENSION
100
AcDbLine
 10
2040.7167598908595
 20
234.2832401091405
 30
0.0
 11
2038.1186836795061
 21
232.7832401091405
 31
0.0
  0
LINE
  5
18E
330
17
100
AcDbEntity
  8
DIMENSION
100
AcDbLine
 10
2040.7167598908595
 20
234.2832401091405
 30
0.0
 11
2038.1186836795061
 21
235.7832401091405
 31
0.0
  0
MTEXT
  5
18F
330
17
100
AcDbEntity
  8
ANNOTATION
100
AcDbMText
 10
2015.7167598908595
 20
229.2832401091405
 30
0.0
 40
5.58
 71
5
  1
50
  0
LINE
  5
190
330
17
100
AcDbEntity
  8
DIMENSION
100
AcDbLine
 10
2040.7167598908595
 20
214.2832401091405
 30
0.0
 11
2020.7167598908595
 21
214.2832401091405
 31
0.0
  0
LINE
  5
191
330
17
100
AcDbEntity
  8
DIMENSION
100
AcDbLine
 10
2040.7167598908595
 20
264.2832401091405
 30
0.0
 11
2020.7167598908595
 21
264.2832401091405
 31
0.0
  0
LINE
  5
192
330
17
100
AcDbEntity
  8
DIMENSION
100
AcDbLine
 10
2020.7167598908595
 20
214.2832401091405
 30
0.0
 11
2020.7167598908595
 21
264.2832401091405
 31
0.0
  0
LINE
  5
193
330
17
100
AcDbEntity
  8
DIMENSION
100
AcDbLine
 10
2020.7167598908595
 20
214.2832401091405
 30
0.0
 11
2022.2167598908595
 21
211.6851638977872
 31
0.0
  0
LINE
  5
194
330
17
100
AcDbEntity
  8
DIMENSION
100
AcDbLine
 10
2020.7167598908595
 20
214.2832401091405
 30
0.0
 11
2019.2167598908595
 21
211.6851638977872
 31
0.0
  0
LINE
  5
195
330
17
100
AcDbEntity
  8
DIMENSION
100
AcDbLine
 10
2020.7167598908595
 20
264.2832401091405
 30
0.0
 11
2019.2167598908595
 21
266.88131632049385
 31
0.0
  0
LINE
  5
196
330
17
100
AcDbEntity
  8
DIMENSION
100
AcDbLine
 10
2020.7167598908595
 20
264.2832401091405
 30
0.0
 11
2022.2167598908595
 21
266.88131632049385
 31
0.0
  0
MTEXT
  5
197
330
17
100
AcDbEntity
  8
ANNOTATION
100
AcDbMText
 10
2025.7167598908595
 20
239.2832401091405
 30
0.0
 40
5.58
 71
4
  1
50.0
 11
6.123233995736766e-17
 21
1.0
 31
0.0
  0
LINE
  5
198
330
17
100
AcDbEntity
  8
DIMENSION
100
AcDbLine
 10
2031.7167598908595
 20
214.2832401091405
 30
0.0
 11
2049.7167598908595
 21
214.2832401091405
 31
0.0
  0
LINE
  5
199
330
17
100
AcDbEntity
  8
DIMENSION
100
AcDbLine
 10
2031.7167598908595
 20
214.2832401091405
 30
0.0
 11
2034.314836102213
 21
215.7832401091405
 31
0.0
  0
LINE
  5
19A
330
17
100
AcDbEntity
  8
DIMENSION
100
AcDbLine
 10
2031.7167598908595
 20
214.2832401091405
 30
0.0
 11
2034.314836102213
 21
212.7832401091405
 31
0.0
  0
LINE
  5
19B
330
17
100
AcDbEntity
  8
DIMENSION
100
AcDbLine
 10
2049.7167598908595
 20
214.2832401091405
 30
0.0
 11
2047.1186836795061
 21
212.7832401091405
 31
0.0
  0
LINE
  5
19C
330
17
100
AcDbEntity
  8
DIMENSION
100
AcDbLine
 10
2049.7167598908595
 20
214.2832401091405
 30
0.0
 11
2047.1186836795061
 21
215.7832401091405
 31
0.0
  0
MTEXT
  5
19D
330
17
100
AcDbEntity
  8
ANNOTATION
100
AcDbMText
 10
2040.7167598908595
 20
228.2832401091405
 30
0.0
 40
5.58
 71
5
  1
Ø18
  0
LINE
  5
19E
330
17
100
AcDbEntity
  8
DIMENSION
100
AcDbLine
 10
2100.7167598908595
 20
239.2832401091405
 30
0.0
 11
2100.7167598908595
 21
219.2832401091405
 31
0.0
  0
LINE
  5
19F
330
17
100
AcDbEntity
  8
DIMENSION
100
AcDbLine
 10
2140.7167598908595
 20
239.2832401091405
 30
0.0
 11
2140.7167598908595
 21
219.2832401091405
 31
0.0
  0
LINE
  5
1A0
330
17
100
AcDbEntity
  8
DIMENSION
100
AcDbLine
 10
2100.7167598908595
 20
219.2832401091405
 30
0.0
 11
2140.7167598908595
 21
219.2832401091405
 31
0.0
  0
LINE
  5
1A1
330
17
100
AcDbEntity
  8
DIMENSION
100
AcDbLine
 10
2100.7167598908595
 20
219.2832401091405
 30
0.0
 11
2103.3148361022127
 21
220.7832401091405
 31
0.0
  0
LINE
  5
1A2
330
17
100
AcDbEntity
  8
DIMENSION
100
AcDbLine
 10
2100.7167598908595
 20
219.2832401091405
 30
0.0
 11
2103.3148361022127
 21
217.7832401091405
 31
0.0
  0
LINE
  5
1A3
330
17
100
AcDbEntity
  8
DIMENSION
100
AcDbLine
 10
2140.7167598908595
 20
219.2832401091405
 30
0.0
 11
2138.1186836795064
 21
217.7832401091405
 31
0.0
  0
LINE
  5
1A4
330
17
100
AcDbEntity
  8
DIMENSION
100
AcDbLine
 10
2140.7167598908595
 20
219.2832401091405
 30
0.0
 11
2138.1186836795064
 21
220.7832401091405
 31
0.0
  0
MTEXT
  5
1A5
330
17
100
AcDbEntity
  8
ANNOTATION
100
AcDbMText
 10
2120.7167598908595
 20
214.2832401091405
 30
0.0
 40
5.58
 71
5
  1
40.0
  0
LINE
  5
1A6
330
17
100
AcDbEntity
  8
DIMENSION
100
AcDbLine
 10
2125.7167598908595
 20
239.2832401091405
 30
0.0
 11
2155.7167598908595
 21
239.2832401091405
 31
0.0
  0
LINE
  5
1A7
330
17
100
AcDbEntity
  8
DIMENSION
100
AcDbLine
 10
2125.7167598908595
 20
239.2832401091405
 30
0.0
 11
2128.3148361022127
 21
240.7832401091405
 31
0.0
  0
LINE
  5
1A8
330
17
100
AcDbEntity
  8
DIMENSION
100
AcDbLine
 10
2125.7167598908595
 20
239.2832401091405
 30
0.0
 11
2128.3148361022127
 21
237.7832401091405
 31
0.0
  0
LINE
  5
1A9
330
17
100
AcDbEntity
  8
DIMENSION
100
AcDbLine
 10
2155.7167598908595
 20
239.2832401091405
 30
0.0
 11
2153.1186836795064
 21
237.7832401091405
 31
0.0
  0
LINE
  5
1AA
330
17
100
AcDbEntity
  8
DIMENSION
100
AcDbLine
 10
2155.7167598908595
 20
239.2832401091405
 30
0.0
 11
2153.1186836795064
 21
240.7832401091405
 31
0.0
  0
MTEXT
  5
1AB
330
17
100
AcDbEntity
  8
ANNOTATION
100
AcDbMText
 10
2140.7167598908595
 20
259.2832401091405
 30
0.0
 40
5.58
 71
5
  1
Ø30
  0
LINE
  5
1AC
330
17
100
AcDbEntity
  8
DIMENSION
100
AcDbLine
 10
2060.7167598908595
 20
239.2832401091405
 30
0.0
 11
2058.290353019667
 21
196.85683323794765
 31
0.0
  0
MTEXT
  5
1AD
330
17
100
AcDbEntity
  8
ANNOTATION
100
AcDbMText
 10
2063.290353019667
 20
201.85683323794765
 30
0.0
 40
5.58
 71
1
  1
R40.0
  0
LWPOLYLINE
  5
1AE
330
17
100
AcDbEntity
  8
GEOMETRY
100
AcDbPolyline
 90
7
 70
1
 10
219.60694237627322
 20
-375.3614986700015
 10
307.3225582497506
 20
-463.07711454347884
 10
482.75378999670534
 20
-463.07711454347884
 10
570.4694058701828
 20
-375.3614986700015
 10
570.4694058701828
 20
-199.93026692304676
 10
395.038174123228
 20
-112.21465104956934
 10
219.60694237627322
 20
-199.93026692304676
  0
CIRCLE
  5
1AF
330
17
100
AcDbEntity
  8
GEOMETRY
100
AcDbCircle
 10
263.4647503130119
 20
-419.21930660674013
 30
0.0
 40
9.64871774608251
  0
CIRCLE
  5
1B0
330
17
100
AcDbEntity
  8
GEOMETRY
100
AcDbCircle
 10
526.611597933444
 20
-419.21930660674013
 30
0.0
 40
9.64871774608251
  0
CIRCLE
  5
1B1
330
17
100
AcDbEntity
  8
GEOMETRY
100
AcDbCircle
 10
526.611597933444
 20
-243.7880748597854
 30
0.0
 40
9.64871774608251
  0
CIRCLE
  5
1B2
330
17
100
AcDbEntity
  8
GEOMETRY
100
AcDbCircle
 10
395.038174123228
 20
-156.07245898630805
 30
0.0
 40
9.64871774608251
  0
CIRCLE
  5
1B3
330
17
100
AcDbEntity
  8
GEOMETRY
100
AcDbCircle
 10
263.4647503130119
 20
-243.7880748597854
 30
0.0
 40
9.64871774608251
  0
CIRCLE
  5
1B4
330
17
100
AcDbEntity
  8
GEOMETRY
100
AcDbCircle
 10
395.038174123228
 20
-287.6458827965241
 30
0.0
 40
9.64871774608251
  0
MTEXT
  5
1B5
330
17
100
AcDbEntity
  8
ANNOTATION
100
AcDbMText
 10
219.60694237627322
 20
-68.35684311283069
 30
0.0
 40
6.140093111143416
 71
7
  1
~PEAK GUSSET PLATE
 11
0.8771561587347737
 21
0.0
 31
0.0
  0
MTEXT
  5
1B6
330
17
100
AcDbEntity
  8
ANNOTATION
100
AcDbMText
 10
219.60694237627322
 20
-77.12840470017841
 30
0.0
 40
4.385780793673868
 71
1
  1
PL 12 - QTY: 1 (EST.)
 11
0.8771561587347737
 21
0.0
 31
0.0
  0
LINE
  5
1B7
330
17
100
AcDbEntity
  8
DIMENSION
100
AcDbLine
 10
219.60694237627322
 20
-375.3614986700015
 30
0.0
 11
219.60694237627322
 21
-401.6761834320447
 31
0.0
  0
LINE
  5
1B8
330
17
100
AcDbEntity
  8
DIMENSION
100
AcDbLine
 10
570.4694058701828
 20
-375.3614986700015
 30
0.0
 11
570.4694058701828
 21
-401.6761834320447
 31
0.0
  0
LINE
  5
1B9
330
17
100
AcDbEntity
  8
DIMENSION
100
AcDbLine
 10
219.60694237627322
 20
-401.6761834320447
 30
0.0
 11
570.4694058701828
 21
-401.6761834320447
 31
0.0
  0
LWPOLYLINE
  5
1BA
330
17
100
AcDbEntity
  8
DIMENSION
100
AcDbPolyline
 90
4
 70
1
 10
219.60694237627322
 20
-401.6761834320447
 10
222.23841085247756
 20
-400.36044919394254
 10
222.23841085247756
 20
-402.99191767014685
 10
219.60694237627322
 20
-401.6761834320447
  0
LWPOLYLINE
  5
1BB
330
17
100
AcDbEntity
  8
DIMENSION
100
AcDbPolyline
 90
4
 70
1
 10
570.4694058701828
 20
-401.6761834320447
 10
567.8379373939783
 20
-400.36044919394254
 10
567.8379373939783
 20
-402.99191767014685
 10
570.4694058701828
 20
-401.6761834320447
  0
MTEXT
  5
1BC
330
17
100
AcDbEntity
  8
DIMENSION
100
AcDbMText
 10
395.038174123228
 20
-405.62338614635115
 30
0.0
 40
4.385780793673868
 71
5
  1
~400 (W)
 11
0.8771561587347737
 21
0.0
 31
0.0
  0
LINE
  5
1BD
330
17
100
AcDbEntity
  8
DIMENSION
100
AcDbLine
 10
395.038174123228
 20
-112.21465104956934
 30
0.0
 11
368.72348936118476
 21
-112.21465104956934
 31
0.0
  0
LINE
  5
1BE
330
17
100
AcDbEntity
  8
DIMENSION
100
AcDbLine
 10
307.3225582497506
 20
-463.07711454347884
 30
0.0
 11
281.0078734877074
 21
-463.07711454347884
 31
0.0
  0
LINE
  5
1BF
330
17
100
AcDbEntity
  8
DIMENSION
100
AcDbLine
 10
368.72348936118476
 20
-112.21465104956934
 30
0.0
 11
281.0078734877074
 21
-463.07711454347884
 31
0.0
  0
LWPOLYLINE
  5
1C0
330
17
100
AcDbEntity
  8
DIMENSION
100
AcDbPolyline
 90
4
 70
1
 10
368.72348936118476
 20
-112.21465104956934
 10
370.0392235992869
 20
-114.8461195257737
 10
367.40775512308255
 20
-114.8461195257737
 10
368.72348936118476
 20
-112.21465104956934
  0
LWPOLYLINE
  5
1C1
330
17
100
AcDbEntity
  8
DIMENSION
100
AcDbPolyline
 90
4
 70
1
 10
281.0078734877074
 20
-463.07711454347884
 10
282.32360772580955
 20
-460.44564606727454
 10
279.69213924960525
 20
-460.44564606727454
 10
281.0078734877074
 20
-463.07711454347884
  0
MTEXT
  5
1C2
330
17
100
AcDbEntity
  8
DIMENSION
100
AcDbMText
 10
364.77628664687825
 20
-287.6458827965241
 30
0.0
 40
4.385780793673868
 71
5
  1
~400 (H)
 11
0.8771561587347737
 21
0.0
 31
0.0
  0
MTEXT
  5
1C3
330
17
100
AcDbEntity
  8
ANNOTATION
100
AcDbMText
 10
579.2409674575305
 20
-419.21930660674013
 30
0.0
 40
4.385780793673868
 71
4
  1
~6x Ø22 HOLES
 11
0.8771561587347737
 21
0.0
 31
0.0
  0
LINE
  5
1C4
330
17
100
AcDbEntity
  8
DIMENSION
100
AcDbLine
 10
263.4647503130119
 20
-419.21930660674013
 30
0.0
 11
263.4647503130119
 21
-471.84867613082656
 31
0.0
  0
LINE
  5
1C5
330
17
100
AcDbEntity
  8
DIMENSION
100
AcDbLine
 10
526.611597933444
 20
-419.21930660674013
 30
0.0
 11
526.611597933444
 21
-471.84867613082656
 31
0.0
  0
LINE
  5
1C6
330
17
100
AcDbEntity
  8
DIMENSION
100
AcDbLine
 10
263.4647503130119
 20
-471.84867613082656
 30
0.0
 11
526.611597933444
 21
-471.84867613082656
 31
0.0
  0
LWPOLYLINE
  5
1C7
330
17
100
AcDbEntity
  8
DIMENSION
100
AcDbPolyline
 90
4
 70
1
 10
263.4647503130119
 20
-471.84867613082656
 10
266.0962187892162
 20
-470.5329418927244
 10
266.0962187892162
 20
-473.1644103689287
 10
263.4647503130119
 20
-471.84867613082656
  0
LWPOLYLINE
  5
1C8
330
17
100
AcDbEntity
  8
DIMENSION
100
AcDbPolyline
 90
4
 70
1
 10
526.611597933444
 20
-471.84867613082656
 10
523.9801294572397
 20
-470.5329418927244
 10
523.9801294572397
 20
-473.1644103689287
 10
526.611597933444
 20
-471.84867613082656
  0
MTEXT
  5
1C9
330
17
100
AcDbEntity
  8
DIMENSION
100
AcDbMText
 10
395.038174123228
 20
-475.7958788451331
 30
0.0
 40
4.385780793673868
 71
5
  1
~300
 11
0.8771561587347737
 21
0.0
 31
0.0
  0
LINE
  5
1CA
330
17
100
AcDbEntity
  8
DIMENSION
100
AcDbLine
 10
219.60694237627322
 20
-463.07711454347884
 30
0.0
 11
219.60694237627322
 21
-533.2496072422607
 31
0.0
  0
LINE
  5
1CB
330
17
100
AcDbEntity
  8
DIMENSION
100
AcDbLine
 10
263.4647503130119
 20
-419.21930660674013
 30
0.0
 11
263.4647503130119
 21
-489.39179930552206
 31
0.0
  0
LINE
  5
1CC
330
17
100
AcDbEntity
  8
DIMENSION
100
AcDbLine
 10
219.60694237627322
 20
-533.2496072422607
 30
0.0
 11
263.4647503130119
 21
-489.39179930552206
 31
0.0
  0
LWPOLYLINE
  5
1CD
330
17
100
AcDbEntity
  8
DIMENSION
100
AcDbPolyline
 90
4
 70
1
 10
219.60694237627322
 20
-533.2496072422607
 10
222.23841085247756
 20
-531.9338730041586
 10
222.23841085247756
 20
-534.5653414803629
 10
219.60694237627322
 20
-533.2496072422607
  0
LWPOLYLINE
  5
1CE
330
17
100
AcDbEntity
  8
DIMENSION
100
AcDbPolyline
 90
4
 70
1
 10
263.4647503130119
 20
-489.39179930552206
 10
260.8332818368076
 20
-488.0760650674199
 10
260.8332818368076
 20
-490.7075335436242
 10
263.4647503130119
 20
-489.39179930552206
  0
MTEXT
  5
1CF
330
17
100
AcDbEntity
  8
DIMENSION
100
AcDbMText
 10
241.53584634464258
 20
-537.1968099565672
 30
0.0
 40
4.385780793673868
 71
5
  1
~50
 11
0.8771561587347737
 21
0.0
 31
0.0
  0
LINE
  5
1D0
330
17
100
AcDbEntity
  8
DIMENSION
100
AcDbLine
 10
526.611597933444
 20
-419.21930660674013
 30
0.0
 11
526.611597933444
 21
-489.39179930552206
 31
0.0
  0
LINE
  5
1D1
330
17
100
AcDbEntity
  8
DIMENSION
100
AcDbLine
 10
570.4694058701828
 20
-463.07711454347884
 30
0.0
 11
570.4694058701828
 21
-533.2496072422607
 31
0.0
  0
LINE
  5
1D2
330
17
100
AcDbEntity
  8
DIMENSION
100
AcDbLine
 10
526.611597933444
 20
-489.39179930552206
 30
0.0
 11
570.4694058701828
 21
-533.2496072422607
 31
0.0
  0
LWPOLYLINE
  5
1D3
330
17
100
AcDbEntity
  8
DIMENSION
100
AcDbPolyline
 90
4
 70
1
 10
526.611597933444
 20
-489.39179930552206
 10
529.2430664096483
 20
-488.0760650674199
 10
529.2430664096483
 20
-490.7075335436242
 10
526.611597933444
 20
-489.39179930552206
  0
LWPOLYLINE
  5
1D4
330
17
100
AcDbEntity
  8
DIMENSION
100
AcDbPolyline
 90
4
 70
1
 10
570.4694058701828
 20
-533.2496072422607
 10
567.8379373939783
 20
-531.9338730041586
 10
567.8379373939783
 20
-534.5653414803629
 10
570.4694058701828
 20
-533.2496072422607
  0
MTEXT
  5
1D5
330
17
100
AcDbEntity
  8
DIMENSION
100
AcDbMText
 10
548.5405019018134
 20
-493.3390020198285
 30
0.0
 40
4.385780793673868
 71
5
  1
~50
 11
0.8771561587347737
 21
0.0
 31
0.0
  0
LINE
  5
1D6
330
17
100
AcDbEntity
  8
DIMENSION
100
AcDbLine
 10
263.4647503130119
 20
-243.7880748597854
 30
0.0
 11
210.83538078892548
 21
-243.7880748597854
 31
0.0
  0
LINE
  5
1D7
330
17
100
AcDbEntity
  8
DIMENSION
100
AcDbLine
 10
263.4647503130119
 20
-419.21930660674013
 30
0.0
 11
210.83538078892548
 21
-419.21930660674013
 31
0.0
  0
LINE
  5
1D8
330
17
100
AcDbEntity
  8
DIMENSION
100
AcDbLine
 10
210.83538078892548
 20
-243.7880748597854
 30
0.0
 11
210.83538078892548
 21
-419.21930660674013
 31
0.0
  0
LWPOLYLINE
  5
1D9
330
17
100
AcDbEntity
  8
DIMENSION
100
AcDbPolyline
 90
4
 70
1
 10
210.83538078892548
 20
-243.7880748597854
 10
212.15111502702766
 20
-246.41954333598974
 10
209.51964655082332
 20
-246.41954333598974
 10
210.83538078892548
 20
-243.7880748597854
  0
LWPOLYLINE
  5
1DA
330
17
100
AcDbEntity
  8
DIMENSION
100
AcDbPolyline
 90
4
 70
1
 10
210.83538078892548
 20
-419.21930660674013
 10
212.15111502702766
 20
-416.58783813053583
 10
209.51964655082332
 20
-416.58783813053583
 10
210.83538078892548
 20
-419.21930660674013
  0
MTEXT
  5
1DB
330
17
100
AcDbEntity
  8
DIMENSION
100
AcDbMText
 10
206.88817807461902
 20
-331.50369073326283
 30
0.0
 40
4.385780793673868
 71
5
  1
~200
 11
0.8771561587347737
 21
0.0
 31
0.0
  0
LINE
  5
1DC
330
17
100
AcDbEntity
  8
DIMENSION
100
AcDbLine
 10
395.038174123228
 20
-112.21465104956934
 30
0.0
 11
324.86568142444605
 21
-112.21465104956934
 31
0.0
  0
LINE
  5
1DD
330
17
100
AcDbEntity
  8
DIMENSION
100
AcDbLine
 10
395.038174123228
 20
-156.07245898630805
 30
0.0
 11
324.86568142444605
 21
-156.07245898630805
 31
0.0
  0
LINE
  5
1DE
330
17
100
AcDbEntity
  8
DIMENSION
100
AcDbLine
 10
324.86568142444605
 20
-112.21465104956934
 30
0.0
 11
324.86568142444605
 21
-156.07245898630805
 31
0.0
  0
LWPOLYLINE
  5
1DF
330
17
100
AcDbEntity
  8
DIMENSION
100
AcDbPolyline
 90
4
 70
1
 10
324.86568142444605
 20
-112.21465104956934
 10
326.18141566254826
 20
-114.8461195257737
 10
323.5499471863439
 20
-114.8461195257737
 10
324.86568142444605
 20
-112.21465104956934
  0
LWPOLYLINE
  5
1E0
330
17
100
AcDbEntity
  8
DIMENSION
100
AcDbPolyline
 90
4
 70
1
 10
324.86568142444605
 20
-156.07245898630805
 10
326.18141566254826
 20
-153.44099051010375
 10
323.5499471863439
 20
-153.44099051010375
 10
324.86568142444605
 20
-156.07245898630805
  0
MTEXT
  5
1E1
330
17
100
AcDbEntity
  8
DIMENSION
100
AcDbMText
 10
320.9184787101396
 20
-134.1435550179387
 30
0.0
 40
4.385780793673868
 71
5
  1
~50
 11
0.8771561587347737
 21
0.0
 31
0.0
  0
LWPOLYLINE
  5
1E2
330
17
100
AcDbEntity
  8
GEOMETRY
100
AcDbPolyline
 90
4
 70
1
 10
1108.3721009549795
 20
-363.16119372442023
 10
1408.3721009549795
 20
-363.16119372442023
 10
1408.3721009549795
 20
-243.16119372442023
 10
1108.3721009549795
 20
-243.16119372442023
  0
CIRCLE
  5
1E3
330
17
100
AcDbEntity
  8
GEOMETRY
100
AcDbCircle
 10
1138.3721009549795
 20
-333.16119372442023
 30
0.0
 40
9.0
  0
CIRCLE
  5
1E4
330
17
100
AcDbEntity
  8
GEOMETRY
100
AcDbCircle
 10
1138.3721009549795
 20
-273.16119372442023
 30
0.0
 40
9.0
  0
CIRCLE
  5
1E5
330
17
100
AcDbEntity
  8
GEOMETRY
100
AcDbCircle
 10
1178.3721009549795
 20
-333.16119372442023
 30
0.0
 40
9.0
  0
CIRCLE
  5
1E6
330
17
100
AcDbEntity
  8
GEOMETRY
100
AcDbCircle
 10
1178.3721009549795
 20
-273.16119372442023
 30
0.0
 40
9.0
  0
CIRCLE
  5
1E7
330
17
100
AcDbEntity
  8
GEOMETRY
100
AcDbCircle
 10
1338.3721009549795
 20
-333.16119372442023
 30
0.0
 40
9.0
  0
CIRCLE
  5
1E8
330
17
100
AcDbEntity
  8
GEOMETRY
100
AcDbCircle
 10
1338.3721009549795
 20
-273.16119372442023
 30
0.0
 40
9.0
  0
CIRCLE
  5
1E9
330
17
100
AcDbEntity
  8
GEOMETRY
100
AcDbCircle
 10
1378.3721009549795
 20
-333.16119372442023
 30
0.0
 40
9.0
  0
CIRCLE
  5
1EA
330
17
100
AcDbEntity
  8
GEOMETRY
100
AcDbCircle
 10
1378.3721009549795
 20
-273.16119372442023
 30
0.0
 40
9.0
  0
MTEXT
  5
1EB
330
17
100
AcDbEntity
  8
ANNOTATION
100
AcDbMText
 10
1108.3721009549795
 20
-193.16119372442023
 30
0.0
 40
7.0
 71
7
  1
~DIAGONAL BRACE SPLICE PLATE
  0
MTEXT
  5
1EC
330
17
100
AcDbEntity
  8
ANNOTATION
100
AcDbMText
 10
1108.3721009549795
 20
-203.16119372442023
 30
0.0
 40
5.0
 71
1
  1
PL 10 - QTY: VARIES (EST.)
  0
LINE
  5
1ED
330
17
100
AcDbEntity
  8
DIMENSION
100
AcDbLine
 10
1108.3721009549795
 20
-363.16119372442023
 30
0.0
 11
1108.3721009549795
 21
-393.16119372442023
 31
0.0
  0
LINE
  5
1EE
330
17
100
AcDbEntity
  8
DIMENSION
100
AcDbLine
 10
1408.3721009549795
 20
-363.16119372442023
 30
0.0
 11
1408.3721009549795
 21
-393.16119372442023
 31
0.0
  0
LINE
  5
1EF
330
17
100
AcDbEntity
  8
DIMENSION
100
AcDbLine
 10
1108.3721009549795
 20
-393.16119372442023
 30
0.0
 11
1408.3721009549795
 21
-393.16119372442023
 31
0.0
  0
LWPOLYLINE
  5
1F0
330
17
100
AcDbEntity
  8
DIMENSION
100
AcDbPolyline
 90
4
 70
1
 10
1108.3721009549795
 20
-393.16119372442023
 10
1111.3721009549795
 20
-391.66119372442023
 10
1111.3721009549795
 20
-394.66119372442023
 10
1108.3721009549795
 20
-393.16119372442023
  0
LWPOLYLINE
  5
1F1
330
17
100
AcDbEntity
  8
DIMENSION
100
AcDbPolyline
 90
4
 70
1
 10
1408.3721009549795
 20
-393.16119372442023
 10
1405.3721009549795
 20
-391.66119372442023
 10
1405.3721009549795
 20
-394.66119372442023
 10
1408.3721009549795
 20
-393.16119372442023
  0
MTEXT
  5
1F2
330
17
100
AcDbEntity
  8
DIMENSION
100
AcDbMText
 10
1258.3721009549795
 20
-397.66119372442023
 30
0.0
 40
5.0
 71
5
  1
~300
  0
LINE
  5
1F3
330
17
100
AcDbEntity
  8
DIMENSION
100
AcDbLine
 10
1108.3721009549795
 20
-243.16119372442023
 30
0.0
 11
1078.3721009549795
 21
-243.16119372442023
 31
0.0
  0
LINE
  5
1F4
330
17
100
AcDbEntity
  8
DIMENSION
100
AcDbLine
 10
1108.3721009549795
 20
-363.16119372442023
 30
0.0
 11
1078.3721009549795
 21
-363.16119372442023
 31
0.0
  0
LINE
  5
1F5
330
17
100
AcDbEntity
  8
DIMENSION
100
AcDbLine
 10
1078.3721009549795
 20
-243.16119372442023
 30
0.0
 11
1078.3721009549795
 21
-363.16119372442023
 31
0.0
  0
LWPOLYLINE
  5
1F6
330
17
100
AcDbEntity
  8
DIMENSION
100
AcDbPolyline
 90
4
 70
1
 10
1078.3721009549795
 20
-243.16119372442023
 10
1079.8721009549795
 20
-246.16119372442023
 10
1076.8721009549795
 20
-246.16119372442023
 10
1078.3721009549795
 20
-243.16119372442023
  0
LWPOLYLINE
  5
1F7
330
17
100
AcDbEntity
  8
DIMENSION
100
AcDbPolyline
 90
4
 70
1
 10
1078.3721009549795
 20
-363.16119372442023
 10
1079.8721009549795
 20
-360.16119372442023
 10
1076.8721009549795
 20
-360.16119372442023
 10
1078.3721009549795
 20
-363.16119372442023
  0
MTEXT
  5
1F8
330
17
100
AcDbEntity
  8
DIMENSION
100
AcDbMText
 10
1073.8721009549795
 20
-303.16119372442023
 30
0.0
 40
5.0
 71
5
  1
~120
  0
MTEXT
  5
1F9
330
17
100
AcDbEntity
  8
ANNOTATION
100
AcDbMText
 10
1418.3721009549795
 20
-303.16119372442023
 30
0.0
 40
5.0
 71
4
  1
~8x Ø18 HOLES
  0
LINE
  5
1FA
330
17
100
AcDbEntity
  8
DIMENSION
100
AcDbLine
 10
1108.3721009549795
 20
-363.16119372442023
 30
0.0
 11
1108.3721009549795
 21
-423.16119372442023
 31
0.0
  0
LINE
  5
1FB
330
17
100
AcDbEntity
  8
DIMENSION
100
AcDbLine
 10
1138.3721009549795
 20
-363.16119372442023
 30
0.0
 11
1138.3721009549795
 21
-423.16119372442023
 31
0.0
  0
LINE
  5
1FC
330
17
100
AcDbEntity
  8
DIMENSION
100
AcDbLine
 10
1108.3721009549795
 20
-423.16119372442023
 30
0.0
 11
1138.3721009549795
 21
-423.16119372442023
 31
0.0
  0
LWPOLYLINE
  5
1FD
330
17
100
AcDbEntity
  8
DIMENSION
100
AcDbPolyline
 90
4
 70
1
 10
1108.3721009549795
 20
-423.16119372442023
 10
1111.3721009549795
 20
-421.66119372442023
 10
1111.3721009549795
 20
-424.66119372442023
 10
1108.3721009549795
 20
-423.16119372442023
  0
LWPOLYLINE
  5
1FE
330
17
100
AcDbEntity
  8
DIMENSION
100
AcDbPolyline
 90
4
 70
1
 10
1138.3721009549795
 20
-423.16119372442023
 10
1135.3721009549795
 20
-421.66119372442023
 10
1135.3721009549795
 20
-424.66119372442023
 10
1138.3721009549795
 20
-423.16119372442023
  0
MTEXT
  5
1FF
330
17
100
AcDbEntity
  8
DIMENSION
100
AcDbMText
 10
1123.3721009549795
 20
-427.66119372442023
 30
0.0
 40
5.0
 71
5
  1
~30
  0
LINE
  5
200
330
17
100
AcDbEntity
  8
DIMENSION
100
AcDbLine
 10
1138.3721009549795
 20
-363.16119372442023
 30
0.0
 11
1138.3721009549795
 21
-423.16119372442023
 31
0.0
  0
LINE
  5
201
330
17
100
AcDbEntity
  8
DIMENSION
100
AcDbLine
 10
1178.3721009549795
 20
-363.16119372442023
 30
0.0
 11
1178.3721009549795
 21
-423.16119372442023
 31
0.0
  0
LINE
  5
202
330
17
100
AcDbEntity
  8
DIMENSION
100
AcDbLine
 10
1138.3721009549795
 20
-423.16119372442023
 30
0.0
 11
1178.3721009549795
 21
-423.16119372442023
 31
0.0
  0
LWPOLYLINE
  5
203
330
17
100
AcDbEntity
  8
DIMENSION
100
AcDbPolyline
 90
4
 70
1
 10
1138.3721009549795
 20
-423.16119372442023
 10
1141.3721009549795
 20
-421.66119372442023
 10
1141.3721009549795
 20
-424.66119372442023
 10
1138.3721009549795
 20
-423.16119372442023
  0
LWPOLYLINE
  5
204
330
17
100
AcDbEntity
  8
DIMENSION
100
AcDbPolyline
 90
4
 70
1
 10
1178.3721009549795
 20
-423.16119372442023
 10
1175.3721009549795
 20
-421.66119372442023
 10
1175.3721009549795
 20
-424.66119372442023
 10
1178.3721009549795
 20
-423.16119372442023
  0
MTEXT
  5
205
330
17
100
AcDbEntity
  8
DIMENSION
100
AcDbMText
 10
1158.3721009549795
 20
-427.66119372442023
 30
0.0
 40
5.0
 71
5
  1
~40
  0
LINE
  5
206
330
17
100
AcDbEntity
  8
DIMENSION
100
AcDbLine
 10
1178.3721009549795
 20
-363.16119372442023
 30
0.0
 11
1178.3721009549795
 21
-423.16119372442023
 31
0.0
  0
LINE
  5
207
330
17
100
AcDbEntity
  8
DIMENSION
100
AcDbLine
 10
1338.3721009549795
 20
-363.16119372442023
 30
0.0
 11
1338.3721009549795
 21
-423.16119372442023
 31
0.0
  0
LINE
  5
208
330
17
100
AcDbEntity
  8
DIMENSION
100
AcDbLine
 10
1178.3721009549795
 20
-423.16119372442023
 30
0.0
 11
1338.3721009549795
 21
-423.16119372442023
 31
0.0
  0
LWPOLYLINE
  5
209
330
17
100
AcDbEntity
  8
DIMENSION
100
AcDbPolyline
 90
4
 70
1
 10
1178.3721009549795
 20
-423.16119372442023
 10
1181.3721009549795
 20
-421.66119372442023
 10
1181.3721009549795
 20
-424.66119372442023
 10
1178.3721009549795
 20
-423.16119372442023
  0
LWPOLYLINE
  5
20A
330
17
100
AcDbEntity
  8
DIMENSION
100
AcDbPolyline
 90
4
 70
1
 10
1338.3721009549795
 20
-423.16119372442023
 10
1335.3721009549795
 20
-421.66119372442023
 10
1335.3721009549795
 20
-424.66119372442023
 10
1338.3721009549795
 20
-423.16119372442023
  0
MTEXT
  5
20B
330
17
100
AcDbEntity
  8
DIMENSION
100
AcDbMText
 10
1258.3721009549795
 20
-427.66119372442023
 30
0.0
 40
5.0
 71
5
  1
~160
  0
LINE
  5
20C
330
17
100
AcDbEntity
  8
DIMENSION
100
AcDbLine
 10
1338.3721009549795
 20
-363.16119372442023
 30
0.0
 11
1338.3721009549795
 21
-423.16119372442023
 31
0.0
  0
LINE
  5
20D
330
17
100
AcDbEntity
  8
DIMENSION
100
AcDbLine
 10
1378.3721009549795
 20
-363.16119372442023
 30
0.0
 11
1378.3721009549795
 21
-423.16119372442023
 31
0.0
  0
LINE
  5
20E
330
17
100
AcDbEntity
  8
DIMENSION
100
AcDbLine
 10
1338.3721009549795
 20
-423.16119372442023
 30
0.0
 11
1378.3721009549795
 21
-423.16119372442023
 31
0.0
  0
LWPOLYLINE
  5
20F
330
17
100
AcDbEntity
  8
DIMENSION
100
AcDbPolyline
 90
4
 70
1
 10
1338.3721009549795
 20
-423.16119372442023
 10
1341.3721009549795
 20
-421.66119372442023
 10
1341.3721009549795
 20
-424.66119372442023
 10
1338.3721009549795
 20
-423.16119372442023
  0
LWPOLYLINE
  5
210
330
17
100
AcDbEntity
  8
DIMENSION
100
AcDbPolyline
 90
4
 70
1
 10
1378.3721009549795
 20
-423.16119372442023
 10
1375.3721009549795
 20
-421.66119372442023
 10
1375.3721009549795
 20
-424.66119372442023
 10
1378.3721009549795
 20
-423.16119372442023
  0
MTEXT
  5
211
330
17
100
AcDbEntity
  8
DIMENSION
100
AcDbMText
 10
1358.3721009549795
 20
-427.66119372442023
 30
0.0
 40
5.0
 71
5
  1
~40
  0
LINE
  5
212
330
17
100
AcDbEntity
  8
DIMENSION
100
AcDbLine
 10
1378.3721009549795
 20
-363.16119372442023
 30
0.0
 11
1378.3721009549795
 21
-423.16119372442023
 31
0.0
  0
LINE
  5
213
330
17
100
AcDbEntity
  8
DIMENSION
100
AcDbLine
 10
1408.3721009549795
 20
-363.16119372442023
 30
0.0
 11
1408.3721009549795
 21
-423.16119372442023
 31
0.0
  0
LINE
  5
214
330
17
100
AcDbEntity
  8
DIMENSION
100
AcDbLine
 10
1378.3721009549795
 20
-423.16119372442023
 30
0.0
 11
1408.3721009549795
 21
-423.16119372442023
 31
0.0
  0
LWPOLYLINE
  5
215
330
17
100
AcDbEntity
  8
DIMENSION
100
AcDbPolyline
 90
4
 70
1
 10
1378.3721009549795
 20
-423.16119372442023
 10
1381.3721009549795
 20
-421.66119372442023
 10
1381.3721009549795
 20
-424.66119372442023
 10
1378.3721009549795
 20
-423.16119372442023
  0
LWPOLYLINE
  5
216
330
17
100
AcDbEntity
  8
DIMENSION
100
AcDbPolyline
 90
4
 70
1
 10
1408.3721009549795
 20
-423.16119372442023
 10
1405.3721009549795
 20
-421.66119372442023
 10
1405.3721009549795
 20
-424.66119372442023
 10
1408.3721009549795
 20
-423.16119372442023
  0
MTEXT
  5
217
330
17
100
AcDbEntity
  8
DIMENSION
100
AcDbMText
 10
1393.3721009549795
 20
-427.66119372442023
 30
0.0
 40
5.0
 71
5
  1
~30
  0
LINE
  5
218
330
17
100
AcDbEntity
  8
DIMENSION
100
AcDbLine
 10
1108.3721009549795
 20
-273.16119372442023
 30
0.0
 11
1048.3721009549795
 21
-273.16119372442023
 31
0.0
  0
LINE
  5
219
330
17
100
AcDbEntity
  8
DIMENSION
100
AcDbLine
 10
1108.3721009549795
 20
-333.16119372442023
 30
0.0
 11
1048.3721009549795
 21
-333.16119372442023
 31
0.0
  0
LINE
  5
21A
330
17
100
AcDbEntity
  8
DIMENSION
100
AcDbLine
 10
1048.3721009549795
 20
-273.16119372442023
 30
0.0
 11
1048.3721009549795
 21
-333.16119372442023
 31
0.0
  0
LWPOLYLINE
  5
21B
330
17
100
AcDbEntity
  8
DIMENSION
100
AcDbPolyline
 90
4
 70
1
 10
1048.3721009549795
 20
-273.16119372442023
 10
1049.8721009549795
 20
-276.16119372442023
 10
1046.8721009549795
 20
-276.16119372442023
 10
1048.3721009549795
 20
-273.16119372442023
  0
LWPOLYLINE
  5
21C
330
17
100
AcDbEntity
  8
DIMENSION
100
AcDbPolyline
 90
4
 70
1
 10
1048.3721009549795
 20
-333.16119372442023
 10
1049.8721009549795
 20
-330.16119372442023
 10
1046.8721009549795
 20
-330.16119372442023
 10
1048.3721009549795
 20
-333.16119372442023
  0
MTEXT
  5
21D
330
17
100
AcDbEntity
  8
DIMENSION
100
AcDbMText
 10
1043.8721009549795
 20
-303.16119372442023
 30
0.0
 40
5.0
 71
5
  1
~60
  0
LINE
  5
21E
330
17
100
AcDbEntity
  8
DIMENSION
100
AcDbLine
 10
1108.3721009549795
 20
-243.16119372442023
 30
0.0
 11
1048.3721009549795
 21
-243.16119372442023
 31
0.0
  0
LINE
  5
21F
330
17
100
AcDbEntity
  8
DIMENSION
100
AcDbLine
 10
1108.3721009549795
 20
-273.16119372442023
 30
0.0
 11
1048.3721009549795
 21
-273.16119372442023
 31
0.0
  0
LINE
  5
220
330
17
100
AcDbEntity
  8
DIMENSION
100
AcDbLine
 10
1048.3721009549795
 20
-243.16119372442023
 30
0.0
 11
1048.3721009549795
 21
-273.16119372442023
 31
0.0
  0
LWPOLYLINE
  5
221
330
17
100
AcDbEntity
  8
DIMENSION
100
AcDbPolyline
 90
4
 70
1
 10
1048.3721009549795
 20
-243.16119372442023
 10
1049.8721009549795
 20
-246.16119372442023
 10
1046.8721009549795
 20
-246.16119372442023
 10
1048.3721009549795
 20
-243.16119372442023
  0
LWPOLYLINE
  5
222
330
17
100
AcDbEntity
  8
DIMENSION
100
AcDbPolyline
 90
4
 70
1
 10
1048.3721009549795
 20
-273.16119372442023
 10
1049.8721009549795
 20
-270.16119372442023
 10
1046.8721009549795
 20
-270.16119372442023
 10
1048.3721009549795
 20
-273.16119372442023
  0
MTEXT
  5
223
330
17
100
AcDbEntity
  8
DIMENSION
100
AcDbMText
 10
1043.8721009549795
 20
-258.16119372442023
 30
0.0
 40
5.0
 71
5
  1
~30
  0
LINE
  5
224
330
17
100
AcDbEntity
  8
DIMENSION
100
AcDbLine
 10
1108.3721009549795
 20
-333.16119372442023
 30
0.0
 11
1048.3721009549795
 21
-333.16119372442023
 31
0.0
  0
LINE
  5
225
330
17
100
AcDbEntity
  8
DIMENSION
100
AcDbLine
 10
1108.3721009549795
 20
-363.16119372442023
 30
0.0
 11
1048.3721009549795
 21
-363.16119372442023
 31
0.0
  0
LINE
  5
226
330
17
100
AcDbEntity
  8
DIMENSION
100
AcDbLine
 10
1048.3721009549795
 20
-333.16119372442023
 30
0.0
 11
1048.3721009549795
 21
-363.16119372442023
 31
0.0
  0
LWPOLYLINE
  5
227
330
17
100
AcDbEntity
  8
DIMENSION
100
AcDbPolyline
 90
4
 70
1
 10
1048.3721009549795
 20
-333.16119372442023
 10
1049.8721009549795
 20
-336.16119372442023
 10
1046.8721009549795
 20
-336.16119372442023
 10
1048.3721009549795
 20
-333.16119372442023
  0
LWPOLYLINE
  5
228
330
17
100
AcDbEntity
  8
DIMENSION
100
AcDbPolyline
 90
4
 70
1
 10
1048.3721009549795
 20
-363.16119372442023
 10
1049.8721009549795
 20
-360.16119372442023
 10
1046.8721009549795
 20
-360.16119372442023
 10
1048.3721009549795
 20
-363.16119372442023
  0
MTEXT
  5
229
330
17
100
AcDbEntity
  8
DIMENSION
100
AcDbMText
 10
1043.8721009549795
 20
-348.16119372442023
 30
0.0
 40
5.0
 71
5
  1
~30
  0
LWPOLYLINE
  5
22A
330
17
100
AcDbEntity
  8
GEOMETRY
100
AcDbPolyline
 90
8
 70
1
 10
1960.0
 20
-372.3161937244202
 10
2160.0
 20
-372.3161937244202
 10
2160.0
 20
-337.3161937244202
 10
2240.0
 20
-337.3161937244202
 10
2240.0
 20
-257.3161937244202
 10
2160.0
 20
-257.3161937244202
 10
2160.0
 20
-222.3161937244202
 10
1960.0
 20
-222.3161937244202
  0
CIRCLE
  5
22B
330
17
100
AcDbEntity
  8
GEOMETRY
100
AcDbCircle
 10
1990.0
 20
-342.3161937244202
 30
0.0
 40
11.0
  0
CIRCLE
  5
22C
330
17
100
AcDbEntity
  8
GEOMETRY
100
AcDbCircle
 10
1990.0
 20
-252.3161937244202
 30
0.0
 40
11.0
  0
CIRCLE
  5
22D
330
17
100
AcDbEntity
  8
GEOMETRY
100
AcDbCircle
 10
2130.0
 20
-342.3161937244202
 30
0.0
 40
11.0
  0
CIRCLE
  5
22E
330
17
100
AcDbEntity
  8
GEOMETRY
100
AcDbCircle
 10
2130.0
 20
-252.3161937244202
 30
0.0
 40
11.0
  0
CIRCLE
  5
22F
330
17
100
AcDbEntity
  8
GEOMETRY
100
AcDbCircle
 10
2200.0
 20
-297.3161937244202
 30
0.0
 40
15.0
  0
CIRCLE
  5
230
330
17
100
AcDbEntity
  8
GEOMETRY
100
AcDbCircle
 10
2200.0
 20
-322.3161937244202
 30
0.0
 40
9.0
  0
CIRCLE
  5
231
330
17
100
AcDbEntity
  8
GEOMETRY
100
AcDbCircle
 10
2200.0
 20
-272.3161937244202
 30
0.0
 40
9.0
  0
MTEXT
  5
232
330
17
100
AcDbEntity
  8
ANNOTATION
100
AcDbMText
 10
1960.0
 20
-172.3161937244202
 30
0.0
 40
7.0
 71
7
  1
~CONDUCTOR ATTACHMENT PLATE
  0
MTEXT
  5
233
330
17
100
AcDbEntity
  8
ANNOTATION
100
AcDbMText
 10
1960.0
 20
-182.3161937244202
 30
0.0
 40
5.0
 71
1
  1
PL 12 - QTY: VARIES (EST.)
  0
LINE
  5
234
330
17
100
AcDbEntity
  8
DIMENSION
100
AcDbLine
 10
1960.0
 20
-372.3161937244202
 30
0.0
 11
1960.0
 21
-402.3161937244202
 31
0.0
  0
LINE
  5
235
330
17
100
AcDbEntity
  8
DIMENSION
100
AcDbLine
 10
2240.0
 20
-372.3161937244202
 30
0.0
 11
2240.0
 21
-402.3161937244202
 31
0.0
  0
LINE
  5
236
330
17
100
AcDbEntity
  8
DIMENSION
100
AcDbLine
 10
1960.0
 20
-402.3161937244202
 30
0.0
 11
2240.0
 21
-402.3161937244202
 31
0.0
  0
LWPOLYLINE
  5
237
330
17
100
AcDbEntity
  8
DIMENSION
100
AcDbPolyline
 90
4
 70
1
 10
1960.0
 20
-402.3161937244202
 10
1963.0
 20
-400.8161937244202
 10
1963.0
 20
-403.8161937244202
 10
1960.0
 20
-402.3161937244202
  0
LWPOLYLINE
  5
238
330
17
100
AcDbEntity
  8
DIMENSION
100
AcDbPolyline
 90
4
 70
1
 10
2240.0
 20
-402.3161937244202
 10
2237.0
 20
-400.8161937244202
 10
2237.0
 20
-403.8161937244202
 10
2240.0
 20
-402.3161937244202
  0
MTEXT
  5
239
330
17
100
AcDbEntity
  8
DIMENSION
100
AcDbMText
 10
2100.0
 20
-406.8161937244202
 30
0.0
 40
5.0
 71
5
  1
~280
  0
LINE
  5
23A
330
17
100
AcDbEntity
  8
DIMENSION
100
AcDbLine
 10
1960.0
 20
-222.3161937244202
 30
0.0
 11
1930.0
 21
-222.3161937244202
 31
0.0
  0
LINE
  5
23B
330
17
100
AcDbEntity
  8
DIMENSION
100
AcDbLine
 10
1960.0
 20
-372.3161937244202
 30
0.0
 11
1930.0
 21
-372.3161937244202
 31
0.0
  0
LINE
  5
23C
330
17
100
AcDbEntity
  8
DIMENSION
100
AcDbLine
 10
1930.0
 20
-222.3161937244202
 30
0.0
 11
1930.0
 21
-372.3161937244202
 31
0.0
  0
LWPOLYLINE
  5
23D
330
17
100
AcDbEntity
  8
DIMENSION
100
AcDbPolyline
 90
4
 70
1
 10
1930.0
 20
-222.3161937244202
 10
1931.5
 20
-225.3161937244202
 10
1928.5
 20
-225.3161937244202
 10
1930.0
 20
-222.3161937244202
  0
LWPOLYLINE
  5
23E
330
17
100
AcDbEntity
  8
DIMENSION
100
AcDbPolyline
 90
4
 70
1
 10
1930.0
 20
-372.3161937244202
 10
1931.5
 20
-369.3161937244202
 10
1928.5
 20
-369.3161937244202
 10
1930.0
 20
-372.3161937244202
  0
MTEXT
  5
23F
330
17
100
AcDbEntity
  8
DIMENSION
100
AcDbMText
 10
1925.5
 20
-297.3161937244202
 30
0.0
 40
5.0
 71
5
  1
~150
  0
LINE
  5
240
330
17
100
AcDbEntity
  8
DIMENSION
100
AcDbLine
 10
1960.0
 20
-372.3161937244202
 30
0.0
 11
1960.0
 21
-432.3161937244202
 31
0.0
  0
LINE
  5
241
330
17
100
AcDbEntity
  8
DIMENSION
100
AcDbLine
 10
2160.0
 20
-372.3161937244202
 30
0.0
 11
2160.0
 21
-432.3161937244202
 31
0.0
  0
LINE
  5
242
330
17
100
AcDbEntity
  8
DIMENSION
100
AcDbLine
 10
1960.0
 20
-432.3161937244202
 30
0.0
 11
2160.0
 21
-432.3161937244202
 31
0.0
  0
LWPOLYLINE
  5
243
330
17
100
AcDbEntity
  8
DIMENSION
100
AcDbPolyline
 90
4
 70
1
 10
1960.0
 20
-432.3161937244202
 10
1963.0
 20
-430.8161937244202
 10
1963.0
 20
-433.8161937244202
 10
1960.0
 20
-432.3161937244202
  0
LWPOLYLINE
  5
244
330
17
100
AcDbEntity
  8
DIMENSION
100
AcDbPolyline
 90
4
 70
1
 10
2160.0
 20
-432.3161937244202
 10
2157.0
 20
-430.8161937244202
 10
2157.0
 20
-433.8161937244202
 10
2160.0
 20
-432.3161937244202
  0
MTEXT
  5
245
330
17
100
AcDbEntity
  8
DIMENSION
100
AcDbMText
 10
2060.0
 20
-436.8161937244202
 30
0.0
 40
5.0
 71
5
  1
~200
  0
LINE
  5
246
330
17
100
AcDbEntity
  8
DIMENSION
100
AcDbLine
 10
2160.0
 20
-372.3161937244202
 30
0.0
 11
2160.0
 21
-432.3161937244202
 31
0.0
  0
LINE
  5
247
330
17
100
AcDbEntity
  8
DIMENSION
100
AcDbLine
 10
2240.0
 20
-372.3161937244202
 30
0.0
 11
2240.0
 21
-432.3161937244202
 31
0.0
  0
LINE
  5
248
330
17
100
AcDbEntity
  8
DIMENSION
100
AcDbLine
 10
2160.0
 20
-432.3161937244202
 30
0.0
 11
2240.0
 21
-432.3161937244202
 31
0.0
  0
LWPOLYLINE
  5
249
330
17
100
AcDbEntity
  8
DIMENSION
100
AcDbPolyline
 90
4
 70
1
 10
2160.0
 20
-432.3161937244202
 10
2163.0
 20
-430.8161937244202
 10
2163.0
 20
-433.8161937244202
 10
2160.0
 20
-432.3161937244202
  0
LWPOLYLINE
  5
24A
330
17
100
AcDbEntity
  8
DIMENSION
100
AcDbPolyline
 90
4
 70
1
 10
2240.0
 20
-432.3161937244202
 10
2237.0
 20
-430.8161937244202
 10
2237.0
 20
-433.8161937244202
 10
2240.0
 20
-432.3161937244202
  0
MTEXT
  5
24B
330
17
100
AcDbEntity
  8
DIMENSION
100
AcDbMText
 10
2200.0
 20
-436.8161937244202
 30
0.0
 40
5.0
 71
5
  1
~80
  0
LINE
  5
24C
330
17
100
AcDbEntity
  8
DIMENSION
100
AcDbLine
 10
2240.0
 20
-257.3161937244202
 30
0.0
 11
2180.0
 21
-257.3161937244202
 31
0.0
  0
LINE
  5
24D
330
17
100
AcDbEntity
  8
DIMENSION
100
AcDbLine
 10
2240.0
 20
-337.3161937244202
 30
0.0
 11
2180.0
 21
-337.3161937244202
 31
0.0
  0
LINE
  5
24E
330
17
100
AcDbEntity
  8
DIMENSION
100
AcDbLine
 10
2180.0
 20
-257.3161937244202
 30
0.0
 11
2180.0
 21
-337.3161937244202
 31
0.0
  0
LWPOLYLINE
  5
24F
330
17
100
AcDbEntity
  8
DIMENSION
100
AcDbPolyline
 90
4
 70
1
 10
2180.0
 20
-257.3161937244202
 10
2181.5
 20
-260.3161937244202
 10
2178.5
 20
-260.3161937244202
 10
2180.0
 20
-257.3161937244202
  0
LWPOLYLINE
  5
250
330
17
100
AcDbEntity
  8
DIMENSION
100
AcDbPolyline
 90
4
 70
1
 10
2180.0
 20
-337.3161937244202
 10
2181.5
 20
-334.3161937244202
 10
2178.5
 20
-334.3161937244202
 10
2180.0
 20
-337.3161937244202
  0
MTEXT
  5
251
330
17
100
AcDbEntity
  8
DIMENSION
100
AcDbMText
 10
2175.5
 20
-297.3161937244202
 30
0.0
 40
5.0
 71
5
  1
~80
  0
MTEXT
  5
252
330
17
100
AcDbEntity
  8
ANNOTATION
100
AcDbMText
 10
1910.0
 20
-342.3161937244202
 30
0.0
 40
5.0
 71
4
  1
~4x Ø22 HOLES
  0
MTEXT
  5
253
330
17
100
AcDbEntity
  8
ANNOTATION
100
AcDbMText
 10
2250.0
 20
-297.3161937244202
 30
0.0
 40
5.0
 71
6
  1
~1x Ø30 HOLE (Conductor)
  0
MTEXT
  5
254
330
17
100
AcDbEntity
  8
ANNOTATION
100
AcDbMText
 10
2250.0
 20
-332.3161937244202
 30
0.0
 40
5.0
 71
6
  1
~2x Ø18 HOLES (Secondary)
  0
LINE
  5
255
330
17
100
AcDbEntity
  8
DIMENSION
100
AcDbLine
 10
1960.0
 20
-372.3161937244202
 30
0.0
 11
1960.0
 21
-352.3161937244202
 31
0.0
  0
LINE
  5
256
330
17
100
AcDbEntity
  8
DIMENSION
100
AcDbLine
 10
1990.0
 20
-372.3161937244202
 30
0.0
 11
1990.0
 21
-352.3161937244202
 31
0.0
  0
LINE
  5
257
330
17
100
AcDbEntity
  8
DIMENSION
100
AcDbLine
 10
1960.0
 20
-352.3161937244202
 30
0.0
 11
1990.0
 21
-352.3161937244202
 31
0.0
  0
LWPOLYLINE
  5
258
330
17
100
AcDbEntity
  8
DIMENSION
100
AcDbPolyline
 90
4
 70
1
 10
1960.0
 20
-352.3161937244202
 10
1963.0
 20
-350.8161937244202
 10
1963.0
 20
-353.8161937244202
 10
1960.0
 20
-352.3161937244202
  0
LWPOLYLINE
  5
259
330
17
100
AcDbEntity
  8
DIMENSION
100
AcDbPolyline
 90
4
 70
1
 10
1990.0
 20
-352.3161937244202
 10
1987.0
 20
-350.8161937244202
 10
1987.0
 20
-353.8161937244202
 10
1990.0
 20
-352.3161937244202
  0
MTEXT
  5
25A
330
17
100
AcDbEntity
  8
DIMENSION
100
AcDbMText
 10
1975.0
 20
-356.8161937244202
 30
0.0
 40
5.0
 71
5
  1
~30
  0
LINE
  5
25B
330
17
100
AcDbEntity
  8
DIMENSION
100
AcDbLine
 10
1960.0
 20
-372.3161937244202
 30
0.0
 11
1980.0
 21
-372.3161937244202
 31
0.0
  0
LINE
  5
25C
330
17
100
AcDbEntity
  8
DIMENSION
100
AcDbLine
 10
1960.0
 20
-342.3161937244202
 30
0.0
 11
1980.0
 21
-342.3161937244202
 31
0.0
  0
LINE
  5
25D
330
17
100
AcDbEntity
  8
DIMENSION
100
AcDbLine
 10
1980.0
 20
-372.3161937244202
 30
0.0
 11
1980.0
 21
-342.3161937244202
 31
0.0
  0
LWPOLYLINE
  5
25E
330
17
100
AcDbEntity
  8
DIMENSION
100
AcDbPolyline
 90
4
 70
1
 10
1980.0
 20
-372.3161937244202
 10
1981.5
 20
-375.3161937244202
 10
1978.5
 20
-375.3161937244202
 10
1980.0
 20
-372.3161937244202
  0
LWPOLYLINE
  5
25F
330
17
100
AcDbEntity
  8
DIMENSION
100
AcDbPolyline
 90
4
 70
1
 10
1980.0
 20
-342.3161937244202
 10
1981.5
 20
-339.3161937244202
 10
1978.5
 20
-339.3161937244202
 10
1980.0
 20
-342.3161937244202
  0
MTEXT
  5
260
330
17
100
AcDbEntity
  8
DIMENSION
100
AcDbMText
 10
1975.5
 20
-357.3161937244202
 30
0.0
 40
5.0
 71
5
  1
~30
  0
LINE
  5
261
330
17
100
AcDbEntity
  8
DIMENSION
100
AcDbLine
 10
1990.0
 20
-372.3161937244202
 30
0.0
 11
1990.0
 21
-352.3161937244202
 31
0.0
  0
LINE
  5
262
330
17
100
AcDbEntity
  8
DIMENSION
100
AcDbLine
 10
2130.0
 20
-372.3161937244202
 30
0.0
 11
2130.0
 21
-352.3161937244202
 31
0.0
  0
LINE
  5
263
330
17
100
AcDbEntity
  8
DIMENSION
100
AcDbLine
 10
1990.0
 20
-352.3161937244202
 30
0.0
 11
2130.0
 21
-352.3161937244202
 31
0.0
  0
LWPOLYLINE
  5
264
330
17
100
AcDbEntity
  8
DIMENSION
100
AcDbPolyline
 90
4
 70
1
 10
1990.0
 20
-352.3161937244202
 10
1993.0
 20
-350.8161937244202
 10
1993.0
 20
-353.8161937244202
 10
1990.0
 20
-352.3161937244202
  0
LWPOLYLINE
  5
265
330
17
100
AcDbEntity
  8
DIMENSION
100
AcDbPolyline
 90
4
 70
1
 10
2130.0
 20
-352.3161937244202
 10
2127.0
 20
-350.8161937244202
 10
2127.0
 20
-353.8161937244202
 10
2130.0
 20
-352.3161937244202
  0
MTEXT
  5
266
330
17
100
AcDbEntity
  8
DIMENSION
100
AcDbMText
 10
2060.0
 20
-356.8161937244202
 30
0.0
 40
5.0
 71
5
  1
~140
  0
LINE
  5
267
330
17
100
AcDbEntity
  8
DIMENSION
100
AcDbLine
 10
1960.0
 20
-342.3161937244202
 30
0.0
 11
1980.0
 21
-342.3161937244202
 31
0.0
  0
LINE
  5
268
330
17
100
AcDbEntity
  8
DIMENSION
100
AcDbLine
 10
1960.0
 20
-252.3161937244202
 30
0.0
 11
1980.0
 21
-252.3161937244202
 31
0.0
  0
LINE
  5
269
330
17
100
AcDbEntity
  8
DIMENSION
100
AcDbLine
 10
1980.0
 20
-342.3161937244202
 30
0.0
 11
1980.0
 21
-252.3161937244202
 31
0.0
  0
LWPOLYLINE
  5
26A
330
17
100
AcDbEntity
  8
DIMENSION
100
AcDbPolyline
 90
4
 70
1
 10
1980.0
 20
-342.3161937244202
 10
1981.5
 20
-345.3161937244202
 10
1978.5
 20
-345.3161937244202
 10
1980.0
 20
-342.3161937244202
  0
LWPOLYLINE
  5
26B
330
17
100
AcDbEntity
  8
DIMENSION
100
AcDbPolyline
 90
4
 70
1
 10
1980.0
 20
-252.3161937244202
 10
1981.5
 20
-249.3161937244202
 10
1978.5
 20
-249.3161937244202
 10
1980.0
 20
-252.3161937244202
  0
MTEXT
  5
26C
330
17
100
AcDbEntity
  8
DIMENSION
100
AcDbMText
 10
1975.5
 20
-297.3161937244202
 30
0.0
 40
5.0
 71
5
  1
~90
  0
LWPOLYLINE
  5
26D
330
17
100
AcDbEntity
  8
GEOMETRY
100
AcDbPolyline
 90
4
 70
1
 10
190.87889646267266
 20
-1040.742619770638
 10
564.7587081708826
 20
-1040.742619770638
 10
564.7587081708826
 20
-666.8628080624279
 10
190.87889646267266
 20
-666.8628080624279
  0
CIRCLE
  5
26E
330
17
100
AcDbEntity
  8
GEOMETRY
100
AcDbCircle
 10
246.96086821890415
 20
-984.6606480144064
 30
0.0
 40
11.2163943512463
  0
CIRCLE
  5
26F
330
17
100
AcDbEntity
  8
GEOMETRY
100
AcDbCircle
 10
508.67673641465115
 20
-984.6606480144064
 30
0.0
 40
11.2163943512463
  0
CIRCLE
  5
270
330
17
100
AcDbEntity
  8
GEOMETRY
100
AcDbCircle
 10
508.67673641465115
 20
-722.9447798186594
 30
0.0
 40
11.2163943512463
  0
CIRCLE
  5
271
330
17
100
AcDbEntity
  8
GEOMETRY
100
AcDbCircle
 10
246.96086821890415
 20
-722.9447798186594
 30
0.0
 40
11.2163943512463
  0
LINE
  5
272
330
17
100
AcDbEntity
  8
DIMENSION
100
AcDbLine
 10
190.87889646267266
 20
-1040.742619770638
 30
0.0
 11
190.87889646267266
 21
-1078.1306009414589
 31
0.0
  0
LINE
  5
273
330
17
100
AcDbEntity
  8
DIMENSION
100
AcDbLine
 10
564.7587081708826
 20
-1040.742619770638
 30
0.0
 11
564.7587081708826
 21
-1078.1306009414589
 31
0.0
  0
LINE
  5
274
330
17
100
AcDbEntity
  8
DIMENSION
100
AcDbLine
 10
190.87889646267266
 20
-1078.1306009414589
 30
0.0
 11
564.7587081708826
 21
-1078.1306009414589
 31
0.0
  0
LWPOLYLINE
  5
275
330
17
100
AcDbEntity
  8
DIMENSION
100
AcDbPolyline
 90
4
 70
1
 10
190.87889646267266
 20
-1078.1306009414589
 10
192.74829552121372
 20
-1080.0
 10
192.74829552121372
 20
-1076.261201882918
 10
190.87889646267266
 20
-1078.1306009414589
  0
LWPOLYLINE
  5
276
330
17
100
AcDbEntity
  8
DIMENSION
100
AcDbPolyline
 90
4
 70
1
 10
564.7587081708826
 20
-1078.1306009414589
 10
562.8893091123416
 20
-1080.0
 10
562.8893091123416
 20
-1076.261201882918
 10
564.7587081708826
 20
-1078.1306009414589
  0
MTEXT
  5
277
330
17
100
AcDbEntity
  8
ANNOTATION
100
AcDbMText
 10
377.8188023167777
 20
-1075.5134422595015
 30
0.0
 40
3.7387981170821
 71
5
  1
500
 11
0.74775962341642
 21
0.0
 31
0.0
  0
LINE
  5
278
330
17
100
AcDbEntity
  8
DIMENSION
100
AcDbLine
 10
564.7587081708826
 20
-1040.742619770638
 30
0.0
 11
602.1466893417037
 21
-1040.742619770638
 31
0.0
  0
LINE
  5
279
330
17
100
AcDbEntity
  8
DIMENSION
100
AcDbLine
 10
564.7587081708826
 20
-666.8628080624279
 30
0.0
 11
602.1466893417037
 21
-666.8628080624279
 31
0.0
  0
LINE
  5
27A
330
17
100
AcDbEntity
  8
DIMENSION
100
AcDbLine
 10
602.1466893417037
 20
-1040.742619770638
 30
0.0
 11
602.1466893417037
 21
-666.8628080624279
 31
0.0
  0
LWPOLYLINE
  5
27B
330
17
100
AcDbEntity
  8
DIMENSION
100
AcDbPolyline
 90
4
 70
1
 10
602.1466893417037
 20
-1040.742619770638
 10
600.2772902831626
 20
-1038.8732207120968
 10
604.0160884002447
 20
-1038.8732207120968
 10
602.1466893417037
 20
-1040.742619770638
  0
LWPOLYLINE
  5
27C
330
17
100
AcDbEntity
  8
DIMENSION
100
AcDbPolyline
 90
4
 70
1
 10
602.1466893417037
 20
-666.8628080624279
 10
600.2772902831626
 20
-668.732207120969
 10
604.0160884002447
 20
-668.732207120969
 10
602.1466893417037
 20
-666.8628080624279
  0
MTEXT
  5
27D
330
17
100
AcDbEntity
  8
ANNOTATION
100
AcDbMText
 10
604.7638480236611
 20
-853.8027139165329
 30
0.0
 40
3.7387981170821
 71
5
  1
500
 11
0.74775962341642
 21
0.0
 31
0.0
  0
LINE
  5
27E
330
17
100
AcDbEntity
  8
DIMENSION
100
AcDbLine
 10
190.87889646267266
 20
-984.6606480144064
 30
0.0
 11
190.87889646267266
 21
-1003.3546385998169
 31
0.0
  0
LINE
  5
27F
330
17
100
AcDbEntity
  8
DIMENSION
100
AcDbLine
 10
246.96086821890415
 20
-984.6606480144064
 30
0.0
 11
246.96086821890415
 21
-1003.3546385998169
 31
0.0
  0
LINE
  5
280
330
17
100
AcDbEntity
  8
DIMENSION
100
AcDbLine
 10
190.87889646267266
 20
-1003.3546385998169
 30
0.0
 11
246.96086821890415
 21
-1003.3546385998169
 31
0.0
  0
LWPOLYLINE
  5
281
330
17
100
AcDbEntity
  8
DIMENSION
100
AcDbPolyline
 90
4
 70
1
 10
190.87889646267266
 20
-1003.3546385998169
 10
192.74829552121372
 20
-1005.2240376583579
 10
192.74829552121372
 20
-1001.4852395412759
 10
190.87889646267266
 20
-1003.3546385998169
  0
LWPOLYLINE
  5
282
330
17
100
AcDbEntity
  8
DIMENSION
100
AcDbPolyline
 90
4
 70
1
 10
246.96086821890415
 20
-1003.3546385998169
 10
245.0914691603631
 20
-1005.2240376583579
 10
245.0914691603631
 20
-1001.4852395412759
 10
246.96086821890415
 20
-1003.3546385998169
  0
MTEXT
  5
283
330
17
100
AcDbEntity
  8
ANNOTATION
100
AcDbMText
 10
218.9198823407884
 20
-1000.7374799178594
 30
0.0
 40
3.7387981170821
 71
5
  1
75
 11
0.74775962341642
 21
0.0
 31
0.0
  0
LINE
  5
284
330
17
100
AcDbEntity
  8
DIMENSION
100
AcDbLine
 10
246.96086821890415
 20
-984.6606480144064
 30
0.0
 11
246.96086821890415
 21
-1003.3546385998169
 31
0.0
  0
LINE
  5
285
330
17
100
AcDbEntity
  8
DIMENSION
100
AcDbLine
 10
508.67673641465115
 20
-984.6606480144064
 30
0.0
 11
508.67673641465115
 21
-1003.3546385998169
 31
0.0
  0
LINE
  5
286
330
17
100
AcDbEntity
  8
DIMENSION
100
AcDbLine
 10
246.96086821890415
 20
-1003.3546385998169
 30
0.0
 11
508.67673641465115
 21
-1003.3546385998169
 31
0.0
  0
LWPOLYLINE
  5
287
330
17
100
AcDbEntity
  8
DIMENSION
100
AcDbPolyline
 90
4
 70
1
 10
246.96086821890415
 20
-1003.3546385998169
 10
248.83026727744522
 20
-1005.2240376583579
 10
248.83026727744522
 20
-1001.4852395412759
 10
246.96086821890415
 20
-1003.3546385998169
  0
LWPOLYLINE
  5
288
330
17
100
AcDbEntity
  8
DIMENSION
100
AcDbPolyline
 90
4
 70
1
 10
508.67673641465115
 20
-1003.3546385998169
 10
506.8073373561101
 20
-1005.2240376583579
 10
506.8073373561101
 20
-1001.4852395412759
 10
508.67673641465115
 20
-1003.3546385998169
  0
MTEXT
  5
289
330
17
100
AcDbEntity
  8
ANNOTATION
100
AcDbMText
 10
377.8188023167777
 20
-1000.7374799178594
 30
0.0
 40
3.7387981170821
 71
5
  1
350
 11
0.74775962341642
 21
0.0
 31
0.0
  0
LINE
  5
28A
330
17
100
AcDbEntity
  8
DIMENSION
100
AcDbLine
 10
508.67673641465115
 20
-984.6606480144064
 30
0.0
 11
508.67673641465115
 21
-1003.3546385998169
 31
0.0
  0
LINE
  5
28B
330
17
100
AcDbEntity
  8
DIMENSION
100
AcDbLine
 10
564.7587081708826
 20
-984.6606480144064
 30
0.0
 11
564.7587081708826
 21
-1003.3546385998169
 31
0.0
  0
LINE
  5
28C
330
17
100
AcDbEntity
  8
DIMENSION
100
AcDbLine
 10
508.67673641465115
 20
-1003.3546385998169
 30
0.0
 11
564.7587081708826
 21
-1003.3546385998169
 31
0.0
  0
LWPOLYLINE
  5
28D
330
17
100
AcDbEntity
  8
DIMENSION
100
AcDbPolyline
 90
4
 70
1
 10
508.67673641465115
 20
-1003.3546385998169
 10
510.5461354731922
 20
-1005.2240376583579
 10
510.5461354731922
 20
-1001.4852395412759
 10
508.67673641465115
 20
-1003.3546385998169
  0
LWPOLYLINE
  5
28E
330
17
100
AcDbEntity
  8
DIMENSION
100
AcDbPolyline
 90
4
 70
1
 10
564.7587081708826
 20
-1003.3546385998169
 10
562.8893091123416
 20
-1005.2240376583579
 10
562.8893091123416
 20
-1001.4852395412759
 10
564.7587081708826
 20
-1003.3546385998169
  0
MTEXT
  5
28F
330
17
100
AcDbEntity
  8
ANNOTATION
100
AcDbMText
 10
536.7177222927669
 20
-1000.7374799178594
 30
0.0
 40
3.7387981170821
 71
5
  1
75
 11
0.74775962341642
 21
0.0
 31
0.0
  0
LINE
  5
290
330
17
100
AcDbEntity
  8
DIMENSION
100
AcDbLine
 10
246.96086821890415
 20
-1040.742619770638
 30
0.0
 11
265.65485880431464
 21
-1040.742619770638
 31
0.0
  0
LINE
  5
291
330
17
100
AcDbEntity
  8
DIMENSION
100
AcDbLine
 10
246.96086821890415
 20
-984.6606480144064
 30
0.0
 11
265.65485880431464
 21
-984.6606480144064
 31
0.0
  0
LINE
  5
292
330
17
100
AcDbEntity
  8
DIMENSION
100
AcDbLine
 10
265.65485880431464
 20
-1040.742619770638
 30
0.0
 11
265.65485880431464
 21
-984.6606480144064
 31
0.0
  0
LWPOLYLINE
  5
293
330
17
100
AcDbEntity
  8
DIMENSION
100
AcDbPolyline
 90
4
 70
1
 10
265.65485880431464
 20
-1040.742619770638
 10
263.7854597457736
 20
-1038.8732207120968
 10
267.52425786285573
 20
-1038.8732207120968
 10
265.65485880431464
 20
-1040.742619770638
  0
LWPOLYLINE
  5
294
330
17
100
AcDbEntity
  8
DIMENSION
100
AcDbPolyline
 90
4
 70
1
 10
265.65485880431464
 20
-984.6606480144064
 10
263.7854597457736
 20
-986.5300470729475
 10
267.52425786285573
 20
-986.5300470729475
 10
265.65485880431464
 20
-984.6606480144064
  0
MTEXT
  5
295
330
17
100
AcDbEntity
  8
ANNOTATION
100
AcDbMText
 10
268.27201748627215
 20
-1012.7016338925222
 30
0.0
 40
3.7387981170821
 71
5
  1
75
 11
0.74775962341642
 21
0.0
 31
0.0
  0
LINE
  5
296
330
17
100
AcDbEntity
  8
DIMENSION
100
AcDbLine
 10
246.96086821890415
 20
-984.6606480144064
 30
0.0
 11
265.65485880431464
 21
-984.6606480144064
 31
0.0
  0
LINE
  5
297
330
17
100
AcDbEntity
  8
DIMENSION
100
AcDbLine
 10
246.96086821890415
 20
-722.9447798186594
 30
0.0
 11
265.65485880431464
 21
-722.9447798186594
 31
0.0
  0
LINE
  5
298
330
17
100
AcDbEntity
  8
DIMENSION
100
AcDbLine
 10
265.65485880431464
 20
-984.6606480144064
 30
0.0
 11
265.65485880431464
 21
-722.9447798186594
 31
0.0
  0
LWPOLYLINE
  5
299
330
17
100
AcDbEntity
  8
DIMENSION
100
AcDbPolyline
 90
4
 70
1
 10
265.65485880431464
 20
-984.6606480144064
 10
263.7854597457736
 20
-982.7912489558654
 10
267.52425786285573
 20
-982.7912489558654
 10
265.65485880431464
 20
-984.6606480144064
  0
LWPOLYLINE
  5
29A
330
17
100
AcDbEntity
  8
DIMENSION
100
AcDbPolyline
 90
4
 70
1
 10
265.65485880431464
 20
-722.9447798186594
 10
263.7854597457736
 20
-724.8141788772004
 10
267.52425786285573
 20
-724.8141788772004
 10
265.65485880431464
 20
-722.9447798186594
  0
MTEXT
  5
29B
330
17
100
AcDbEntity
  8
ANNOTATION
100
AcDbMText
 10
268.27201748627215
 20
-853.8027139165329
 30
0.0
 40
3.7387981170821
 71
5
  1
350
 11
0.74775962341642
 21
0.0
 31
0.0
  0
LINE
  5
29C
330
17
100
AcDbEntity
  8
DIMENSION
100
AcDbLine
 10
246.96086821890415
 20
-722.9447798186594
 30
0.0
 11
265.65485880431464
 21
-722.9447798186594
 31
0.0
  0
LINE
  5
29D
330
17
100
AcDbEntity
  8
DIMENSION
100
AcDbLine
 10
246.96086821890415
 20
-666.8628080624279
 30
0.0
 11
265.65485880431464
 21
-666.8628080624279
 31
0.0
  0
LINE
  5
29E
330
17
100
AcDbEntity
  8
DIMENSION
100
AcDbLine
 10
265.65485880431464
 20
-722.9447798186594
 30
0.0
 11
265.65485880431464
 21
-666.8628080624279
 31
0.0
  0
LWPOLYLINE
  5
29F
330
17
100
AcDbEntity
  8
DIMENSION
100
AcDbPolyline
 90
4
 70
1
 10
265.65485880431464
 20
-722.9447798186594
 10
263.7854597457736
 20
-721.0753807601184
 10
267.52425786285573
 20
-721.0753807601184
 10
265.65485880431464
 20
-722.9447798186594
  0
LWPOLYLINE
  5
2A0
330
17
100
AcDbEntity
  8
DIMENSION
100
AcDbPolyline
 90
4
 70
1
 10
265.65485880431464
 20
-666.8628080624279
 10
263.7854597457736
 20
-668.732207120969
 10
267.52425786285573
 20
-668.732207120969
 10
265.65485880431464
 20
-666.8628080624279
  0
MTEXT
  5
2A1
330
17
100
AcDbEntity
  8
ANNOTATION
100
AcDbMText
 10
268.27201748627215
 20
-694.9037939405437
 30
0.0
 40
3.7387981170821
 71
5
  1
75
 11
0.74775962341642
 21
0.0
 31
0.0
  0
MTEXT
  5
2A2
330
17
100
AcDbEntity
  8
ANNOTATION
100
AcDbMText
 10
377.8188023167777
 20
-801.4595402773836
 30
0.0
 40
3.7387981170821
 71
5
  1
4x Ø30 THRU
 11
0.74775962341642
 21
0.0
 31
0.0
  0
MTEXT
  5
2A3
330
17
100
AcDbEntity
  8
ANNOTATION
100
AcDbMText
 10
377.8188023167777
 20
-592.086845720786
 30
0.0
 40
5.23431736391494
 71
5
  1
Part ID: tower_leg_base_plate
 11
0.74775962341642
 21
0.0
 31
0.0
  0
MTEXT
  5
2A4
330
17
100
AcDbEntity
  8
ANNOTATION
100
AcDbMText
 10
377.8188023167777
 20
-607.0420381891144
 30
0.0
 40
3.7387981170821
 71
5
  1
Material: PL25 (EST)
 11
0.74775962341642
 21
0.0
 31
0.0
  0
MTEXT
  5
2A5
330
17
100
AcDbEntity
  8
ANNOTATION
100
AcDbMText
 10
377.8188023167777
 20
-621.9972306574427
 30
0.0
 40
3.7387981170821
 71
5
  1
QTY: 1
 11
0.74775962341642
 21
0.0
 31
0.0
  0
MTEXT
  5
2A6
330
17
100
AcDbEntity
  8
ANNOTATION
100
AcDbMText
 10
377.8188023167777
 20
-636.9524231257711
 30
0.0
 40
3.7387981170821
 71
5
  1
Overall: 500x500mm
 11
0.74775962341642
 21
0.0
 31
0.0
  0
LWPOLYLINE
  5
2A7
330
17
100
AcDbEntity
  8
GEOMETRY
100
AcDbPolyline
 90
4
 70
1
 10
960.3364597544339
 20
-961.8320395634379
 10
1460.336459754434
 20
-961.8320395634379
 10
1460.336459754434
 20
-761.8320395634379
 10
960.3364597544339
 20
-761.8320395634379
  0
CIRCLE
  5
2A8
330
17
100
AcDbEntity
  8
GEOMETRY
100
AcDbCircle
 10
1010.3364597544339
 20
-911.8320395634379
 30
0.0
 40
10.0
  0
CIRCLE
  5
2A9
330
17
100
AcDbEntity
  8
GEOMETRY
100
AcDbCircle
 10
1010.3364597544339
 20
-811.8320395634379
 30
0.0
 40
10.0
  0
CIRCLE
  5
2AA
330
17
100
AcDbEntity
  8
GEOMETRY
100
AcDbCircle
 10
1210.336459754434
 20
-911.8320395634379
 30
0.0
 40
10.0
  0
CIRCLE
  5
2AB
330
17
100
AcDbEntity
  8
GEOMETRY
100
AcDbCircle
 10
1210.336459754434
 20
-811.8320395634379
 30
0.0
 40
10.0
  0
CIRCLE
  5
2AC
330
17
100
AcDbEntity
  8
GEOMETRY
100
AcDbCircle
 10
1410.336459754434
 20
-911.8320395634379
 30
0.0
 40
10.0
  0
CIRCLE
  5
2AD
330
17
100
AcDbEntity
  8
GEOMETRY
100
AcDbCircle
 10
1410.336459754434
 20
-811.8320395634379
 30
0.0
 40
10.0
  0
LINE
  5
2AE
330
17
100
AcDbEntity
  8
DIMENSION
100
AcDbLine
 10
960.3364597544339
 20
-961.8320395634379
 30
0.0
 11
960.3364597544339
 21
-1011.8320395634379
 31
0.0
  0
LINE
  5
2AF
330
17
100
AcDbEntity
  8
DIMENSION
100
AcDbLine
 10
1460.336459754434
 20
-961.8320395634379
 30
0.0
 11
1460.336459754434
 21
-1011.8320395634379
 31
0.0
  0
LINE
  5
2B0
330
17
100
AcDbEntity
  8
DIMENSION
100
AcDbLine
 10
960.3364597544339
 20
-1011.8320395634379
 30
0.0
 11
1460.336459754434
 21
-1011.8320395634379
 31
0.0
  0
LWPOLYLINE
  5
2B1
330
17
100
AcDbEntity
  8
DIMENSION
100
AcDbPolyline
 90
4
 70
1
 10
960.3364597544339
 20
-1011.8320395634379
 10
962.8364597544339
 20
-1014.3320395634379
 10
962.8364597544339
 20
-1009.3320395634379
 10
960.3364597544339
 20
-1011.8320395634379
  0
LWPOLYLINE
  5
2B2
330
17
100
AcDbEntity
  8
DIMENSION
100
AcDbPolyline
 90
4
 70
1
 10
1460.336459754434
 20
-1011.8320395634379
 10
1457.836459754434
 20
-1014.3320395634379
 10
1457.836459754434
 20
-1009.3320395634379
 10
1460.336459754434
 20
-1011.8320395634379
  0
MTEXT
  5
2B3
330
17
100
AcDbEntity
  8
ANNOTATION
100
AcDbMText
 10
1210.336459754434
 20
-1008.3320395634379
 30
0.0
 40
5.0
 71
5
  1
500
  0
LINE
  5
2B4
330
17
100
AcDbEntity
  8
DIMENSION
100
AcDbLine
 10
1460.336459754434
 20
-961.8320395634379
 30
0.0
 11
1510.336459754434
 21
-961.8320395634379
 31
0.0
  0
LINE
  5
2B5
330
17
100
AcDbEntity
  8
DIMENSION
100
AcDbLine
 10
1460.336459754434
 20
-761.8320395634379
 30
0.0
 11
1510.336459754434
 21
-761.8320395634379
 31
0.0
  0
LINE
  5
2B6
330
17
100
AcDbEntity
  8
DIMENSION
100
AcDbLine
 10
1510.336459754434
 20
-961.8320395634379
 30
0.0
 11
1510.336459754434
 21
-761.8320395634379
 31
0.0
  0
LWPOLYLINE
  5
2B7
330
17
100
AcDbEntity
  8
DIMENSION
100
AcDbPolyline
 90
4
 70
1
 10
1510.336459754434
 20
-961.8320395634379
 10
1507.836459754434
 20
-959.3320395634379
 10
1512.836459754434
 20
-959.3320395634379
 10
1510.336459754434
 20
-961.8320395634379
  0
LWPOLYLINE
  5
2B8
330
17
100
AcDbEntity
  8
DIMENSION
100
AcDbPolyline
 90
4
 70
1
 10
1510.336459754434
 20
-761.8320395634379
 10
1507.836459754434
 20
-764.3320395634379
 10
1512.836459754434
 20
-764.3320395634379
 10
1510.336459754434
 20
-761.8320395634379
  0
MTEXT
  5
2B9
330
17
100
AcDbEntity
  8
ANNOTATION
100
AcDbMText
 10
1513.836459754434
 20
-861.8320395634379
 30
0.0
 40
5.0
 71
5
  1
200
  0
LINE
  5
2BA
330
17
100
AcDbEntity
  8
DIMENSION
100
AcDbLine
 10
960.3364597544339
 20
-911.8320395634379
 30
0.0
 11
960.3364597544339
 21
-936.8320395634379
 31
0.0
  0
LINE
  5
2BB
330
17
100
AcDbEntity
  8
DIMENSION
100
AcDbLine
 10
1010.3364597544339
 20
-911.8320395634379
 30
0.0
 11
1010.3364597544339
 21
-936.8320395634379
 31
0.0
  0
LINE
  5
2BC
330
17
100
AcDbEntity
  8
DIMENSION
100
AcDbLine
 10
960.3364597544339
 20
-936.8320395634379
 30
0.0
 11
1010.3364597544339
 21
-936.8320395634379
 31
0.0
  0
LWPOLYLINE
  5
2BD
330
17
100
AcDbEntity
  8
DIMENSION
100
AcDbPolyline
 90
4
 70
1
 10
960.3364597544339
 20
-936.8320395634379
 10
962.8364597544339
 20
-939.3320395634379
 10
962.8364597544339
 20
-934.3320395634379
 10
960.3364597544339
 20
-936.8320395634379
  0
LWPOLYLINE
  5
2BE
330
17
100
AcDbEntity
  8
DIMENSION
100
AcDbPolyline
 90
4
 70
1
 10
1010.3364597544339
 20
-936.8320395634379
 10
1007.8364597544339
 20
-939.3320395634379
 10
1007.8364597544339
 20
-934.3320395634379
 10
1010.3364597544339
 20
-936.8320395634379
  0
MTEXT
  5
2BF
330
17
100
AcDbEntity
  8
ANNOTATION
100
AcDbMText
 10
985.3364597544339
 20
-933.3320395634379
 30
0.0
 40
5.0
 71
5
  1
50
  0
LINE
  5
2C0
330
17
100
AcDbEntity
  8
DIMENSION
100
AcDbLine
 10
1010.3364597544339
 20
-911.8320395634379
 30
0.0
 11
1010.3364597544339
 21
-936.8320395634379
 31
0.0
  0
LINE
  5
2C1
330
17
100
AcDbEntity
  8
DIMENSION
100
AcDbLine
 10
1210.336459754434
 20
-911.8320395634379
 30
0.0
 11
1210.336459754434
 21
-936.8320395634379
 31
0.0
  0
LINE
  5
2C2
330
17
100
AcDbEntity
  8
DIMENSION
100
AcDbLine
 10
1010.3364597544339
 20
-936.8320395634379
 30
0.0
 11
1210.336459754434
 21
-936.8320395634379
 31
0.0
  0
LWPOLYLINE
  5
2C3
330
17
100
AcDbEntity
  8
DIMENSION
100
AcDbPolyline
 90
4
 70
1
 10
1010.3364597544339
 20
-936.8320395634379
 10
1012.8364597544339
 20
-939.3320395634379
 10
1012.8364597544339
 20
-934.3320395634379
 10
1010.3364597544339
 20
-936.8320395634379
  0
LWPOLYLINE
  5
2C4
330
17
100
AcDbEntity
  8
DIMENSION
100
AcDbPolyline
 90
4
 70
1
 10
1210.336459754434
 20
-936.8320395634379
 10
1207.836459754434
 20
-939.3320395634379
 10
1207.836459754434
 20
-934.3320395634379
 10
1210.336459754434
 20
-936.8320395634379
  0
MTEXT
  5
2C5
330
17
100
AcDbEntity
  8
ANNOTATION
100
AcDbMText
 10
1110.336459754434
 20
-933.3320395634379
 30
0.0
 40
5.0
 71
5
  1
200
  0
LINE
  5
2C6
330
17
100
AcDbEntity
  8
DIMENSION
100
AcDbLine
 10
1210.336459754434
 20
-911.8320395634379
 30
0.0
 11
1210.336459754434
 21
-936.8320395634379
 31
0.0
  0
LINE
  5
2C7
330
17
100
AcDbEntity
  8
DIMENSION
100
AcDbLine
 10
1410.336459754434
 20
-911.8320395634379
 30
0.0
 11
1410.336459754434
 21
-936.8320395634379
 31
0.0
  0
LINE
  5
2C8
330
17
100
AcDbEntity
  8
DIMENSION
100
AcDbLine
 10
1210.336459754434
 20
-936.8320395634379
 30
0.0
 11
1410.336459754434
 21
-936.8320395634379
 31
0.0
  0
LWPOLYLINE
  5
2C9
330
17
100
AcDbEntity
  8
DIMENSION
100
AcDbPolyline
 90
4
 70
1
 10
1210.336459754434
 20
-936.8320395634379
 10
1212.836459754434
 20
-939.3320395634379
 10
1212.836459754434
 20
-934.3320395634379
 10
1210.336459754434
 20
-936.8320395634379
  0
LWPOLYLINE
  5
2CA
330
17
100
AcDbEntity
  8
DIMENSION
100
AcDbPolyline
 90
4
 70
1
 10
1410.336459754434
 20
-936.8320395634379
 10
1407.836459754434
 20
-939.3320395634379
 10
1407.836459754434
 20
-934.3320395634379
 10
1410.336459754434
 20
-936.8320395634379
  0
MTEXT
  5
2CB
330
17
100
AcDbEntity
  8
ANNOTATION
100
AcDbMText
 10
1310.336459754434
 20
-933.3320395634379
 30
0.0
 40
5.0
 71
5
  1
200
  0
LINE
  5
2CC
330
17
100
AcDbEntity
  8
DIMENSION
100
AcDbLine
 10
1410.336459754434
 20
-911.8320395634379
 30
0.0
 11
1410.336459754434
 21
-936.8320395634379
 31
0.0
  0
LINE
  5
2CD
330
17
100
AcDbEntity
  8
DIMENSION
100
AcDbLine
 10
1460.336459754434
 20
-911.8320395634379
 30
0.0
 11
1460.336459754434
 21
-936.8320395634379
 31
0.0
  0
LINE
  5
2CE
330
17
100
AcDbEntity
  8
DIMENSION
100
AcDbLine
 10
1410.336459754434
 20
-936.8320395634379
 30
0.0
 11
1460.336459754434
 21
-936.8320395634379
 31
0.0
  0
LWPOLYLINE
  5
2CF
330
17
100
AcDbEntity
  8
DIMENSION
100
AcDbPolyline
 90
4
 70
1
 10
1410.336459754434
 20
-936.8320395634379
 10
1412.836459754434
 20
-939.3320395634379
 10
1412.836459754434
 20
-934.3320395634379
 10
1410.336459754434
 20
-936.8320395634379
  0
LWPOLYLINE
  5
2D0
330
17
100
AcDbEntity
  8
DIMENSION
100
AcDbPolyline
 90
4
 70
1
 10
1460.336459754434
 20
-936.8320395634379
 10
1457.836459754434
 20
-939.3320395634379
 10
1457.836459754434
 20
-934.3320395634379
 10
1460.336459754434
 20
-936.8320395634379
  0
MTEXT
  5
2D1
330
17
100
AcDbEntity
  8
ANNOTATION
100
AcDbMText
 10
1435.336459754434
 20
-933.3320395634379
 30
0.0
 40
5.0
 71
5
  1
50
  0
LINE
  5
2D2
330
17
100
AcDbEntity
  8
DIMENSION
100
AcDbLine
 10
1010.3364597544339
 20
-961.8320395634379
 30
0.0
 11
1035.336459754434
 21
-961.8320395634379
 31
0.0
  0
LINE
  5
2D3
330
17
100
AcDbEntity
  8
DIMENSION
100
AcDbLine
 10
1010.3364597544339
 20
-911.8320395634379
 30
0.0
 11
1035.336459754434
 21
-911.8320395634379
 31
0.0
  0
LINE
  5
2D4
330
17
100
AcDbEntity
  8
DIMENSION
100
AcDbLine
 10
1035.336459754434
 20
-961.8320395634379
 30
0.0
 11
1035.336459754434
 21
-911.8320395634379
 31
0.0
  0
LWPOLYLINE
  5
2D5
330
17
100
AcDbEntity
  8
DIMENSION
100
AcDbPolyline
 90
4
 70
1
 10
1035.336459754434
 20
-961.8320395634379
 10
1032.836459754434
 20
-959.3320395634379
 10
1037.836459754434
 20
-959.3320395634379
 10
1035.336459754434
 20
-961.8320395634379
  0
LWPOLYLINE
  5
2D6
330
17
100
AcDbEntity
  8
DIMENSION
100
AcDbPolyline
 90
4
 70
1
 10
1035.336459754434
 20
-911.8320395634379
 10
1032.836459754434
 20
-914.3320395634379
 10
1037.836459754434
 20
-914.3320395634379
 10
1035.336459754434
 20
-911.8320395634379
  0
MTEXT
  5
2D7
330
17
100
AcDbEntity
  8
ANNOTATION
100
AcDbMText
 10
1038.836459754434
 20
-936.8320395634379
 30
0.0
 40
5.0
 71
5
  1
50
  0
LINE
  5
2D8
330
17
100
AcDbEntity
  8
DIMENSION
100
AcDbLine
 10
1010.3364597544339
 20
-911.8320395634379
 30
0.0
 11
1035.336459754434
 21
-911.8320395634379
 31
0.0
  0
LINE
  5
2D9
330
17
100
AcDbEntity
  8
DIMENSION
100
AcDbLine
 10
1010.3364597544339
 20
-811.8320395634379
 30
0.0
 11
1035.336459754434
 21
-811.8320395634379
 31
0.0
  0
LINE
  5
2DA
330
17
100
AcDbEntity
  8
DIMENSION
100
AcDbLine
 10
1035.336459754434
 20
-911.8320395634379
 30
0.0
 11
1035.336459754434
 21
-811.8320395634379
 31
0.0
  0
LWPOLYLINE
  5
2DB
330
17
100
AcDbEntity
  8
DIMENSION
100
AcDbPolyline
 90
4
 70
1
 10
1035.336459754434
 20
-911.8320395634379
 10
1032.836459754434
 20
-909.3320395634379
 10
1037.836459754434
 20
-909.3320395634379
 10
1035.336459754434
 20
-911.8320395634379
  0
LWPOLYLINE
  5
2DC
330
17
100
AcDbEntity
  8
DIMENSION
100
AcDbPolyline
 90
4
 70
1
 10
1035.336459754434
 20
-811.8320395634379
 10
1032.836459754434
 20
-814.3320395634379
 10
1037.836459754434
 20
-814.3320395634379
 10
1035.336459754434
 20
-811.8320395634379
  0
MTEXT
  5
2DD
330
17
100
AcDbEntity
  8
ANNOTATION
100
AcDbMText
 10
1038.836459754434
 20
-861.8320395634379
 30
0.0
 40
5.0
 71
5
  1
100
  0
LINE
  5
2DE
330
17
100
AcDbEntity
  8
DIMENSION
100
AcDbLine
 10
1010.3364597544339
 20
-811.8320395634379
 30
0.0
 11
1035.336459754434
 21
-811.8320395634379
 31
0.0
  0
LINE
  5
2DF
330
17
100
AcDbEntity
  8
DIMENSION
100
AcDbLine
 10
1010.3364597544339
 20
-761.8320395634379
 30
0.0
 11
1035.336459754434
 21
-761.8320395634379
 31
0.0
  0
LINE
  5
2E0
330
17
100
AcDbEntity
  8
DIMENSION
100
AcDbLine
 10
1035.336459754434
 20
-811.8320395634379
 30
0.0
 11
1035.336459754434
 21
-761.8320395634379
 31
0.0
  0
LWPOLYLINE
  5
2E1
330
17
100
AcDbEntity
  8
DIMENSION
100
AcDbPolyline
 90
4
 70
1
 10
1035.336459754434
 20
-811.8320395634379
 10
1032.836459754434
 20
-809.3320395634379
 10
1037.836459754434
 20
-809.3320395634379
 10
1035.336459754434
 20
-811.8320395634379
  0
LWPOLYLINE
  5
2E2
330
17
100
AcDbEntity
  8
DIMENSION
100
AcDbPolyline
 90
4
 70
1
 10
1035.336459754434
 20
-761.8320395634379
 10
1032.836459754434
 20
-764.3320395634379
 10
1037.836459754434
 20
-764.3320395634379
 10
1035.336459754434
 20
-761.8320395634379
  0
MTEXT
  5
2E3
330
17
100
AcDbEntity
  8
ANNOTATION
100
AcDbMText
 10
1038.836459754434
 20
-786.8320395634379
 30
0.0
 40
5.0
 71
5
  1
50
  0
MTEXT
  5
2E4
330
17
100
AcDbEntity
  8
ANNOTATION
100
AcDbMText
 10
1210.336459754434
 20
-791.8320395634379
 30
0.0
 40
5.0
 71
5
  1
6x Ø20 THRU
  0
MTEXT
  5
2E5
330
17
100
AcDbEntity
  8
ANNOTATION
100
AcDbMText
 10
1210.336459754434
 20
-661.8320395634379
 30
0.0
 40
7.0
 71
5
  1
Part ID: leg_splice_plate
  0
MTEXT
  5
2E6
330
17
100
AcDbEntity
  8
ANNOTATION
100
AcDbMText
 10
1210.336459754434
 20
-681.8320395634379
 30
0.0
 40
5.0
 71
5
  1
Material: PL16 (EST)
  0
MTEXT
  5
2E7
330
17
100
AcDbEntity
  8
ANNOTATION
100
AcDbMText
 10
1210.336459754434
 20
-701.8320395634379
 30
0.0
 40
5.0
 71
5
  1
QTY: 2 per splice (EST)
  0
MTEXT
  5
2E8
330
17
100
AcDbEntity
  8
ANNOTATION
100
AcDbMText
 10
1210.336459754434
 20
-721.8320395634379
 30
0.0
 40
5.0
 71
5
  1
Overall: 500x200mm
  0
LWPOLYLINE
  5
2E9
330
17
100
AcDbEntity
  8
GEOMETRY
100
AcDbPolyline
 90
4
 70
1
 10
1926.586459754434
 20
-986.832039563438
 10
2226.586459754434
 20
-986.832039563438
 10
2176.586459754434
 20
-736.832039563438
 10
1926.586459754434
 20
-786.832039563438
  0
CIRCLE
  5
2EA
330
17
100
AcDbEntity
  8
GEOMETRY
100
AcDbCircle
 10
1976.586459754434
 20
-936.832039563438
 30
0.0
 40
9.0
  0
CIRCLE
  5
2EB
330
17
100
AcDbEntity
  8
GEOMETRY
100
AcDbCircle
 10
1976.586459754434
 20
-836.832039563438
 30
0.0
 40
9.0
  0
CIRCLE
  5
2EC
330
17
100
AcDbEntity
  8
GEOMETRY
100
AcDbCircle
 10
2126.586459754434
 20
-886.832039563438
 30
0.0
 40
9.0
  0
CIRCLE
  5
2ED
330
17
100
AcDbEntity
  8
GEOMETRY
100
AcDbCircle
 10
2176.586459754434
 20
-786.832039563438
 30
0.0
 40
9.0
  0
LINE
  5
2EE
330
17
100
AcDbEntity
  8
DIMENSION
100
AcDbLine
 10
1926.586459754434
 20
-986.832039563438
 30
0.0
 11
1926.586459754434
 21
-1036.832039563438
 31
0.0
  0
LINE
  5
2EF
330
17
100
AcDbEntity
  8
DIMENSION
100
AcDbLine
 10
2226.586459754434
 20
-986.832039563438
 30
0.0
 11
2226.586459754434
 21
-1036.832039563438
 31
0.0
  0
LINE
  5
2F0
330
17
100
AcDbEntity
  8
DIMENSION
100
AcDbLine
 10
1926.586459754434
 20
-1036.832039563438
 30
0.0
 11
2226.586459754434
 21
-1036.832039563438
 31
0.0
  0
LWPOLYLINE
  5
2F1
330
17
100
AcDbEntity
  8
DIMENSION
100
AcDbPolyline
 90
4
 70
1
 10
1926.586459754434
 20
-1036.832039563438
 10
1929.086459754434
 20
-1039.332039563438
 10
1929.086459754434
 20
-1034.332039563438
 10
1926.586459754434
 20
-1036.832039563438
  0
LWPOLYLINE
  5
2F2
330
17
100
AcDbEntity
  8
DIMENSION
100
AcDbPolyline
 90
4
 70
1
 10
2226.586459754434
 20
-1036.832039563438
 10
2224.086459754434
 20
-1039.332039563438
 10
2224.086459754434
 20
-1034.332039563438
 10
2226.586459754434
 20
-1036.832039563438
  0
MTEXT
  5
2F3
330
17
100
AcDbEntity
  8
ANNOTATION
100
AcDbMText
 10
2076.586459754434
 20
-1033.332039563438
 30
0.0
 40
5.0
 71
5
  1
300
  0
LINE
  5
2F4
330
17
100
AcDbEntity
  8
DIMENSION
100
AcDbLine
 10
1926.586459754434
 20
-986.832039563438
 30
0.0
 11
1876.586459754434
 21
-986.832039563438
 31
0.0
  0
LINE
  5
2F5
330
17
100
AcDbEntity
  8
DIMENSION
100
AcDbLine
 10
1926.586459754434
 20
-786.832039563438
 30
0.0
 11
1876.586459754434
 21
-786.832039563438
 31
0.0
  0
LINE
  5
2F6
330
17
100
AcDbEntity
  8
DIMENSION
100
AcDbLine
 10
1876.586459754434
 20
-986.832039563438
 30
0.0
 11
1876.586459754434
 21
-786.832039563438
 31
0.0
  0
LWPOLYLINE
  5
2F7
330
17
100
AcDbEntity
  8
DIMENSION
100
AcDbPolyline
 90
4
 70
1
 10
1876.586459754434
 20
-986.832039563438
 10
1874.086459754434
 20
-984.332039563438
 10
1879.086459754434
 20
-984.332039563438
 10
1876.586459754434
 20
-986.832039563438
  0
LWPOLYLINE
  5
2F8
330
17
100
AcDbEntity
  8
DIMENSION
100
AcDbPolyline
 90
4
 70
1
 10
1876.586459754434
 20
-786.832039563438
 10
1874.086459754434
 20
-789.332039563438
 10
1879.086459754434
 20
-789.332039563438
 10
1876.586459754434
 20
-786.832039563438
  0
MTEXT
  5
2F9
330
17
100
AcDbEntity
  8
ANNOTATION
100
AcDbMText
 10
1880.086459754434
 20
-886.832039563438
 30
0.0
 40
5.0
 71
5
  1
200
  0
LINE
  5
2FA
330
17
100
AcDbEntity
  8
DIMENSION
100
AcDbLine
 10
2226.586459754434
 20
-986.832039563438
 30
0.0
 11
2276.586459754434
 21
-986.832039563438
 31
0.0
  0
LINE
  5
2FB
330
17
100
AcDbEntity
  8
DIMENSION
100
AcDbLine
 10
2176.586459754434
 20
-736.832039563438
 30
0.0
 11
2226.586459754434
 21
-736.832039563438
 31
0.0
  0
LINE
  5
2FC
330
17
100
AcDbEntity
  8
DIMENSION
100
AcDbLine
 10
2276.586459754434
 20
-986.832039563438
 30
0.0
 11
2226.586459754434
 21
-736.832039563438
 31
0.0
  0
LWPOLYLINE
  5
2FD
330
17
100
AcDbEntity
  8
DIMENSION
100
AcDbPolyline
 90
4
 70
1
 10
2276.586459754434
 20
-986.832039563438
 10
2274.086459754434
 20
-984.332039563438
 10
2279.086459754434
 20
-984.332039563438
 10
2276.586459754434
 20
-986.832039563438
  0
LWPOLYLINE
  5
2FE
330
17
100
AcDbEntity
  8
DIMENSION
100
AcDbPolyline
 90
4
 70
1
 10
2226.586459754434
 20
-736.832039563438
 10
2224.086459754434
 20
-739.332039563438
 10
2229.086459754434
 20
-739.332039563438
 10
2226.586459754434
 20
-736.832039563438
  0
MTEXT
  5
2FF
330
17
100
AcDbEntity
  8
ANNOTATION
100
AcDbMText
 10
2280.086459754434
 20
-861.832039563438
 30
0.0
 40
5.0
 71
5
  1
250
  0
LINE
  5
300
330
17
100
AcDbEntity
  8
DIMENSION
100
AcDbLine
 10
1926.586459754434
 20
-936.832039563438
 30
0.0
 11
1926.586459754434
 21
-961.832039563438
 31
0.0
  0
LINE
  5
301
330
17
100
AcDbEntity
  8
DIMENSION
100
AcDbLine
 10
1976.586459754434
 20
-936.832039563438
 30
0.0
 11
1976.586459754434
 21
-961.832039563438
 31
0.0
  0
LINE
  5
302
330
17
100
AcDbEntity
  8
DIMENSION
100
AcDbLine
 10
1926.586459754434
 20
-961.832039563438
 30
0.0
 11
1976.586459754434
 21
-961.832039563438
 31
0.0
  0
LWPOLYLINE
  5
303
330
17
100
AcDbEntity
  8
DIMENSION
100
AcDbPolyline
 90
4
 70
1
 10
1926.586459754434
 20
-961.832039563438
 10
1929.086459754434
 20
-964.332039563438
 10
1929.086459754434
 20
-959.332039563438
 10
1926.586459754434
 20
-961.832039563438
  0
LWPOLYLINE
  5
304
330
17
100
AcDbEntity
  8
DIMENSION
100
AcDbPolyline
 90
4
 70
1
 10
1976.586459754434
 20
-961.832039563438
 10
1974.086459754434
 20
-964.332039563438
 10
1974.086459754434
 20
-959.332039563438
 10
1976.586459754434
 20
-961.832039563438
  0
MTEXT
  5
305
330
17
100
AcDbEntity
  8
ANNOTATION
100
AcDbMText
 10
1951.586459754434
 20
-958.332039563438
 30
0.0
 40
5.0
 71
5
  1
50
  0
LINE
  5
306
330
17
100
AcDbEntity
  8
DIMENSION
100
AcDbLine
 10
1976.586459754434
 20
-986.832039563438
 30
0.0
 11
2001.586459754434
 21
-986.832039563438
 31
0.0
  0
LINE
  5
307
330
17
100
AcDbEntity
  8
DIMENSION
100
AcDbLine
 10
1976.586459754434
 20
-936.832039563438
 30
0.0
 11
2001.586459754434
 21
-936.832039563438
 31
0.0
  0
LINE
  5
308
330
17
100
AcDbEntity
  8
DIMENSION
100
AcDbLine
 10
2001.586459754434
 20
-986.832039563438
 30
0.0
 11
2001.586459754434
 21
-936.832039563438
 31
0.0
  0
LWPOLYLINE
  5
309
330
17
100
AcDbEntity
  8
DIMENSION
100
AcDbPolyline
 90
4
 70
1
 10
2001.586459754434
 20
-986.832039563438
 10
1999.086459754434
 20
-984.332039563438
 10
2004.086459754434
 20
-984.332039563438
 10
2001.586459754434
 20
-986.832039563438
  0
LWPOLYLINE
  5
30A
330
17
100
AcDbEntity
  8
DIMENSION
100
AcDbPolyline
 90
4
 70
1
 10
2001.586459754434
 20
-936.832039563438
 10
1999.086459754434
 20
-939.332039563438
 10
2004.086459754434
 20
-939.332039563438
 10
2001.586459754434
 20
-936.832039563438
  0
MTEXT
  5
30B
330
17
100
AcDbEntity
  8
ANNOTATION
100
AcDbMText
 10
2005.086459754434
 20
-961.832039563438
 30
0.0
 40
5.0
 71
5
  1
50
  0
LINE
  5
30C
330
17
100
AcDbEntity
  8
DIMENSION
100
AcDbLine
 10
1926.586459754434
 20
-836.832039563438
 30
0.0
 11
1926.586459754434
 21
-876.832039563438
 31
0.0
  0
LINE
  5
30D
330
17
100
AcDbEntity
  8
DIMENSION
100
AcDbLine
 10
1976.586459754434
 20
-836.832039563438
 30
0.0
 11
1976.586459754434
 21
-876.832039563438
 31
0.0
  0
LINE
  5
30E
330
17
100
AcDbEntity
  8
DIMENSION
100
AcDbLine
 10
1926.586459754434
 20
-876.832039563438
 30
0.0
 11
1976.586459754434
 21
-876.832039563438
 31
0.0
  0
LWPOLYLINE
  5
30F
330
17
100
AcDbEntity
  8
DIMENSION
100
AcDbPolyline
 90
4
 70
1
 10
1926.586459754434
 20
-876.832039563438
 10
1929.086459754434
 20
-879.332039563438
 10
1929.086459754434
 20
-874.332039563438
 10
1926.586459754434
 20
-876.832039563438
  0
LWPOLYLINE
  5
310
330
17
100
AcDbEntity
  8
DIMENSION
100
AcDbPolyline
 90
4
 70
1
 10
1976.586459754434
 20
-876.832039563438
 10
1974.086459754434
 20
-879.332039563438
 10
1974.086459754434
 20
-874.332039563438
 10
1976.586459754434
 20
-876.832039563438
  0
MTEXT
  5
311
330
17
100
AcDbEntity
  8
ANNOTATION
100
AcDbMText
 10
1951.586459754434
 20
-873.332039563438
 30
0.0
 40
5.0
 71
5
  1
50
  0
LINE
  5
312
330
17
100
AcDbEntity
  8
DIMENSION
100
AcDbLine
 10
1976.586459754434
 20
-986.832039563438
 30
0.0
 11
2016.586459754434
 21
-986.832039563438
 31
0.0
  0
LINE
  5
313
330
17
100
AcDbEntity
  8
DIMENSION
100
AcDbLine
 10
1976.586459754434
 20
-836.832039563438
 30
0.0
 11
2016.586459754434
 21
-836.832039563438
 31
0.0
  0
LINE
  5
314
330
17
100
AcDbEntity
  8
DIMENSION
100
AcDbLine
 10
2016.586459754434
 20
-986.832039563438
 30
0.0
 11
2016.586459754434
 21
-836.832039563438
 31
0.0
  0
LWPOLYLINE
  5
315
330
17
100
AcDbEntity
  8
DIMENSION
100
AcDbPolyline
 90
4
 70
1
 10
2016.586459754434
 20
-986.832039563438
 10
2014.086459754434
 20
-984.332039563438
 10
2019.086459754434
 20
-984.332039563438
 10
2016.586459754434
 20
-986.832039563438
  0
LWPOLYLINE
  5
316
330
17
100
AcDbEntity
  8
DIMENSION
100
AcDbPolyline
 90
4
 70
1
 10
2016.586459754434
 20
-836.832039563438
 10
2014.086459754434
 20
-839.332039563438
 10
2019.086459754434
 20
-839.332039563438
 10
2016.586459754434
 20
-836.832039563438
  0
MTEXT
  5
317
330
17
100
AcDbEntity
  8
ANNOTATION
100
AcDbMText
 10
2020.086459754434
 20
-911.832039563438
 30
0.0
 40
5.0
 71
5
  1
150
  0
LINE
  5
318
330
17
100
AcDbEntity
  8
DIMENSION
100
AcDbLine
 10
1926.586459754434
 20
-886.832039563438
 30
0.0
 11
1926.586459754434
 21
-946.832039563438
 31
0.0
  0
LINE
  5
319
330
17
100
AcDbEntity
  8
DIMENSION
100
AcDbLine
 10
2126.586459754434
 20
-886.832039563438
 30
0.0
 11
2126.586459754434
 21
-946.832039563438
 31
0.0
  0
LINE
  5
31A
330
17
100
AcDbEntity
  8
DIMENSION
100
AcDbLine
 10
1926.586459754434
 20
-946.832039563438
 30
0.0
 11
2126.586459754434
 21
-946.832039563438
 31
0.0
  0
LWPOLYLINE
  5
31B
330
17
100
AcDbEntity
  8
DIMENSION
100
AcDbPolyline
 90
4
 70
1
 10
1926.586459754434
 20
-946.832039563438
 10
1929.086459754434
 20
-949.332039563438
 10
1929.086459754434
 20
-944.332039563438
 10
1926.586459754434
 20
-946.832039563438
  0
LWPOLYLINE
  5
31C
330
17
100
AcDbEntity
  8
DIMENSION
100
AcDbPolyline
 90
4
 70
1
 10
2126.586459754434
 20
-946.832039563438
 10
2124.086459754434
 20
-949.332039563438
 10
2124.086459754434
 20
-944.332039563438
 10
2126.586459754434
 20
-946.832039563438
  0
MTEXT
  5
31D
330
17
100
AcDbEntity
  8
ANNOTATION
100
AcDbMText
 10
2026.586459754434
 20
-943.332039563438
 30
0.0
 40
5.0
 71
5
  1
200
  0
LINE
  5
31E
330
17
100
AcDbEntity
  8
DIMENSION
100
AcDbLine
 10
2126.586459754434
 20
-986.832039563438
 30
0.0
 11
2186.586459754434
 21
-986.832039563438
 31
0.0
  0
LINE
  5
31F
330
17
100
AcDbEntity
  8
DIMENSION
100
AcDbLine
 10
2126.586459754434
 20
-886.832039563438
 30
0.0
 11
2186.586459754434
 21
-886.832039563438
 31
0.0
  0
LINE
  5
320
330
17
100
AcDbEntity
  8
DIMENSION
100
AcDbLine
 10
2186.586459754434
 20
-986.832039563438
 30
0.0
 11
2186.586459754434
 21
-886.832039563438
 31
0.0
  0
LWPOLYLINE
  5
321
330
17
100
AcDbEntity
  8
DIMENSION
100
AcDbPolyline
 90
4
 70
1
 10
2186.586459754434
 20
-986.832039563438
 10
2184.086459754434
 20
-984.332039563438
 10
2189.086459754434
 20
-984.332039563438
 10
2186.586459754434
 20
-986.832039563438
  0
LWPOLYLINE
  5
322
330
17
100
AcDbEntity
  8
DIMENSION
100
AcDbPolyline
 90
4
 70
1
 10
2186.586459754434
 20
-886.832039563438
 10
2184.086459754434
 20
-889.332039563438
 10
2189.086459754434
 20
-889.332039563438
 10
2186.586459754434
 20
-886.832039563438
  0
MTEXT
  5
323
330
17
100
AcDbEntity
  8
ANNOTATION
100
AcDbMText
 10
2190.086459754434
 20
-936.832039563438
 30
0.0
 40
5.0
 71
5
  1
100
  0
LINE
  5
324
330
17
100
AcDbEntity
  8
DIMENSION
100
AcDbLine
 10
1926.586459754434
 20
-786.832039563438
 30
0.0
 11
1926.586459754434
 21
-861.832039563438
 31
0.0
  0
LINE
  5
325
330
17
100
AcDbEntity
  8
DIMENSION
100
AcDbLine
 10
2176.586459754434
 20
-786.832039563438
 30
0.0
 11
2176.586459754434
 21
-861.832039563438
 31
0.0
  0
LINE
  5
326
330
17
100
AcDbEntity
  8
DIMENSION
100
AcDbLine
 10
1926.586459754434
 20
-861.832039563438
 30
0.0
 11
2176.586459754434
 21
-861.832039563438
 31
0.0
  0
LWPOLYLINE
  5
327
330
17
100
AcDbEntity
  8
DIMENSION
100
AcDbPolyline
 90
4
 70
1
 10
1926.586459754434
 20
-861.832039563438
 10
1929.086459754434
 20
-864.332039563438
 10
1929.086459754434
 20
-859.332039563438
 10
1926.586459754434
 20
-861.832039563438
  0
LWPOLYLINE
  5
328
330
17
100
AcDbEntity
  8
DIMENSION
100
AcDbPolyline
 90
4
 70
1
 10
2176.586459754434
 20
-861.832039563438
 10
2174.086459754434
 20
-864.332039563438
 10
2174.086459754434
 20
-859.332039563438
 10
2176.586459754434
 20
-861.832039563438
  0
MTEXT
  5
329
330
17
100
AcDbEntity
  8
ANNOTATION
100
AcDbMText
 10
2051.586459754434
 20
-858.332039563438
 30
0.0
 40
5.0
 71
5
  1
250
  0
LINE
  5
32A
330
17
100
AcDbEntity
  8
DIMENSION
100
AcDbLine
 10
2176.586459754434
 20
-986.832039563438
 30
0.0
 11
2251.586459754434
 21
-986.832039563438
 31
0.0
  0
LINE
  5
32B
330
17
100
AcDbEntity
  8
DIMENSION
100
AcDbLine
 10
2176.586459754434
 20
-786.832039563438
 30
0.0
 11
2251.586459754434
 21
-786.832039563438
 31
0.0
  0
LINE
  5
32C
330
17
100
AcDbEntity
  8
DIMENSION
100
AcDbLine
 10
2251.586459754434
 20
-986.832039563438
 30
0.0
 11
2251.586459754434
 21
-786.832039563438
 31
0.0
  0
LWPOLYLINE
  5
32D
330
17
100
AcDbEntity
  8
DIMENSION
100
AcDbPolyline
 90
4
 70
1
 10
2251.586459754434
 20
-986.832039563438
 10
2249.086459754434
 20
-984.332039563438
 10
2254.086459754434
 20
-984.332039563438
 10
2251.586459754434
 20
-986.832039563438
  0
LWPOLYLINE
  5
32E
330
17
100
AcDbEntity
  8
DIMENSION
100
AcDbPolyline
 90
4
 70
1
 10
2251.586459754434
 20
-786.832039563438
 10
2249.086459754434
 20
-789.332039563438
 10
2254.086459754434
 20
-789.332039563438
 10
2251.586459754434
 20
-786.832039563438
  0
MTEXT
  5
32F
330
17
100
AcDbEntity
  8
ANNOTATION
100
AcDbMText
 10
2255.086459754434
 20
-886.832039563438
 30
0.0
 40
5.0
 71
5
  1
200
  0
MTEXT
  5
330
330
17
100
AcDbEntity
  8
ANNOTATION
100
AcDbMText
 10
2076.586459754434
 20
-666.832039563438
 30
0.0
 40
5.0
 71
5
  1
4x Ø18 THRU
  0
MTEXT
  5
331
330
17
100
AcDbEntity
  8
ANNOTATION
100
AcDbMText
 10
2076.586459754434
 20
-636.832039563438
 30
0.0
 40
7.0
 71
5
  1
Part ID: cross_brace_gusset_plate
  0
MTEXT
  5
332
330
17
100
AcDbEntity
  8
ANNOTATION
100
AcDbMText
 10
2076.586459754434
 20
-656.832039563438
 30
0.0
 40
5.0
 71
5
  1
Material: PL10 (EST)
  0
MTEXT
  5
333
330
17
100
AcDbEntity
  8
ANNOTATION
100
AcDbMText
 10
2076.586459754434
 20
-676.832039563438
 30
0.0
 40
5.0
 71
5
  1
QTY: 1 (typical)
  0
MTEXT
  5
334
330
17
100
AcDbEntity
  8
ANNOTATION
100
AcDbMText
 10
2076.586459754434
 20
-696.832039563438
 30
0.0
 40
5.0
 71
5
  1
Overall: 300x250mm (max)
  0
ENDSEC
  0
SECTION
  2
OBJECTS
  0
DICTIONARY
  5
A
330
0
100
AcDbDictionary
281
1
  3
ACAD_COLOR
350
B
  3
ACAD_GROUP
350
C
  3
ACAD_LAYOUT
350
D
  3
ACAD_MATERIAL
350
E
  3
ACAD_MLEADERSTYLE
350
F
  3
ACAD_MLINESTYLE
350
10
  3
ACAD_PLOTSETTINGS
350
11
  3
ACAD_PLOTSTYLENAME
350
12
  3
ACAD_SCALELIST
350
14
  3
ACAD_TABLESTYLE
350
15
  3
ACAD_VISUALSTYLE
350
16
  3
EZDXF_META
350
2D
  0
DICTIONARY
  5
B
330
A
100
AcDbDictionary
281
1
  0
DICTIONARY
  5
C
330
A
100
AcDbDictionary
281
1
  0
DICTIONARY
  5
D
330
A
100
AcDbDictionary
281
1
  3
Model
350
1A
  3
Layout1
350
1E
  0
DICTIONARY
  5
E
330
A
100
AcDbDictionary
281
1
  3
ByBlock
350
1F
  3
ByLayer
350
20
  3
Global
350
21
  0
DICTIONARY
  5
F
330
A
100
AcDbDictionary
281
1
  3
Standard
350
2C
  0
DICTIONARY
  5
10
330
A
100
AcDbDictionary
281
1
  3
Standard
350
22
  0
DICTIONARY
  5
11
330
A
100
AcDbDictionary
281
1
  0
ACDBDICTIONARYWDFLT
  5
12
330
A
100
AcDbDictionary
281
1
  3
Normal
350
13
100
AcDbDictionaryWithDefault
340
13
  0
ACDBPLACEHOLDER
  5
13
330
12
  0
DICTIONARY
  5
14
330
A
100
AcDbDictionary
281
1
  0
DICTIONARY
  5
15
330
A
100
AcDbDictionary
281
1
  0
DICTIONARY
  5
16
330
A
100
AcDbDictionary
281
1
  3
2dWireframe
350
5A
  3
Basic
350
5B
  3
Brighten
350
5C
  3
ColorChange
350
5D
  3
Conceptual
350
5E
  3
Dim
350
5F
  3
EdgeColorOff
350
60
  3
Facepattern
350
61
  3
Flat
350
62
  3
FlatWithEdges
350
63
  3
Gouraud
350
64
  3
GouraudWithEdges
350
65
  3
Hidden
350
66
  3
JitterOff
350
67
  3
Linepattern
350
68
  3
Modeling
350
69
  3
OverhangOff
350
6A
  3
Realistic
350
6B
  3
Shaded
350
6C
  3
Shaded with edges
350
6D
  3
Shades of Gray
350
6E
  3
Sketchy
350
6F
  3
Thicken
350
70
  3
Wireframe
350
71
  3
X-Ray
350
72
  0
LAYOUT
  5
1A
330
D
100
AcDbPlotSettings
  1

  4
A3
  6

 40
7.5
 41
20.0
 42
7.5
 43
20.0
 44
420.0
 45
297.0
 46
0.0
 47
0.0
 48
0.0
 49
0.0
140
0.0
141
0.0
142
1.0
143
1.0
 70
1024
 72
1
 73
0
 74
5
  7

 75
16
 76
0
 77
2
 78
300
147
1.0
148
0.0
149
0.0
100
AcDbLayout
  1
Model
 70
1
 71
0
 10
0.0
 20
0.0
 11
420.0
 21
297.0
 12
0.0
 22
0.0
 32
0.0
 14
1e+20
 24
1e+20
 34
1e+20
 15
-1e+20
 25
-1e+20
 35
-1e+20
146
0.0
 13
0.0
 23
0.0
 33
0.0
 16
1.0
 26
0.0
 36
0.0
 17
0.0
 27
1.0
 37
0.0
 76
1
330
17
  0
LAYOUT
  5
1E
330
D
100
AcDbPlotSettings
  1

  4
A3
  6

 40
7.5
 41
20.0
 42
7.5
 43
20.0
 44
420.0
 45
297.0
 46
0.0
 47
0.0
 48
0.0
 49
0.0
140
0.0
141
0.0
142
1.0
143
1.0
 70
0
 72
1
 73
0
 74
5
  7

 75
16
 76
0
 77
2
 78
300
147
1.0
148
0.0
149
0.0
100
AcDbLayout
  1
Layout1
 70
1
 71
1
 10
0.0
 20
0.0
 11
420.0
 21
297.0
 12
0.0
 22
0.0
 32
0.0
 14
1e+20
 24
1e+20
 34
1e+20
 15
-1e+20
 25
-1e+20
 35
-1e+20
146
0.0
 13
0.0
 23
0.0
 33
0.0
 16
1.0
 26
0.0
 36
0.0
 17
0.0
 27
1.0
 37
0.0
 76
1
330
1B
  0
MATERIAL
  5
1F
102
{ACAD_REACTORS
330
E
102
}
330
E
100
AcDbMaterial
  1
ByBlock
  2

 70
0
 40
1.0
 71
1
 41
1.0
 91
-1023410177
 42
1.0
 72
1
  3

 73
1
 74
1
 75
1
 44
0.5
 73
0
 45
1.0
 46
1.0
 77
1
  4

 78
1
 79
1
170
1
 48
1.0
171
1
  6

172
1
173
1
174
1
140
1.0
141
1.0
175
1
  7

176
1
177
1
178
1
143
1.0
179
1
  8

270
1
271
1
272
1
145
1.0
146
1.0
273
1
  9

274
1
275
1
276
1
 42
1.0
 72
1
  3

 73
1
 74
1
 75
1
 94
63
  0
MATERIAL
  5
20
102
{ACAD_REACTORS
330
E
102
}
330
E
100
AcDbMaterial
  1
ByLayer
  2

 70
0
 40
1.0
 71
1
 41
1.0
 91
-1023410177
 42
1.0
 72
1
  3

 73
1
 74
1
 75
1
 44
0.5
 73
0
 45
1.0
 46
1.0
 77
1
  4

 78
1
 79
1
170
1
 48
1.0
171
1
  6

172
1
173
1
174
1
140
1.0
141
1.0
175
1
  7

176
1
177
1
178
1
143
1.0
179
1
  8

270
1
271
1
272
1
145
1.0
146
1.0
273
1
  9

274
1
275
1
276
1
 42
1.0
 72
1
  3

 73
1
 74
1
 75
1
 94
63
  0
MATERIAL
  5
21
102
{ACAD_REACTORS
330
E
102
}
330
E
100
AcDbMaterial
  1
Global
  2

 70
0
 40
1.0
 71
1
 41
1.0
 91
-1023410177
 42
1.0
 72
1
  3

 73
1
 74
1
 75
1
 44
0.5
 73
0
 45
1.0
 46
1.0
 77
1
  4

 78
1
 79
1
170
1
 48
1.0
171
1
  6

172
1
173
1
174
1
140
1.0
141
1.0
175
1
  7

176
1
177
1
178
1
143
1.0
179
1
  8

270
1
271
1
272
1
145
1.0
146
1.0
273
1
  9

274
1
275
1
276
1
 42
1.0
 72
1
  3

 73
1
 74
1
 75
1
 94
63
  0
MLINESTYLE
  5
22
102
{ACAD_REACTORS
330
10
102
}
330
10
100
AcDbMlineStyle
  2
Standard
 70
0
  3

 62
256
 51
90.0
 52
90.0
 71
2
 49
0.5
 62
256
  6
BYLAYER
 49
-0.5
 62
256
  6
BYLAYER
  0
MLEADERSTYLE
  5
2C
102
{ACAD_REACTORS
330
F
102
}
330
F
100
AcDbMLeaderStyle
179
2
170
2
171
1
172
0
 90
2
 40
0.0
 41
0.0
173
1
 91
-1056964608
 92
-2
290
1
 42
2.0
291
1
 43
8.0
  3
Standard
 44
4.0
300

342
29
174
1
175
1
176
0
178
1
 93
-1056964608
 45
4.0
292
0
297
0
 46
4.0
 94
-1056964608
 47
1.0
 49
1.0
140
1.0
294
1
141
0.0
177
0
142
1.0
295
0
296
0
143
3.75
271
0
272
9
273
9
  0
DICTIONARY
  5
2D
330
A
100
AcDbDictionary
280
1
281
1
  3
CREATED_BY_EZDXF
350
2E
  3
WRITTEN_BY_EZDXF
350
337
  0
DICTIONARYVAR
  5
2E
330
2D
100
DictionaryVariables
280
0
  1
1.4.3 @ 2026-05-08T12:17:14.426877+00:00
  0
VISUALSTYLE
  5
5A
102
{ACAD_REACTORS
330
16
102
}
330
16
100
AcDbVisualStyle
  2
2dWireframe
 70
4
 90
0
 40
0.6
 62
7
290
0
291
0
  0
VISUALSTYLE
  5
5B
102
{ACAD_REACTORS
330
16
102
}
330
16
100
AcDbVisualStyle
  2
Basic
 70
7
 90
1
 40
0.6
 62
7
290
0
291
1
  0
VISUALSTYLE
  5
5C
102
{ACAD_REACTORS
330
16
102
}
330
16
100
AcDbVisualStyle
  2
Brighten
 70
12
 90
2
 40
0.6
 62
7
290
0
291
1
  0
VISUALSTYLE
  5
5D
102
{ACAD_REACTORS
330
16
102
}
330
16
100
AcDbVisualStyle
  2
ColorChange
 70
16
 90
2
 40
0.6
 62
8
290
0
291
1
  0
VISUALSTYLE
  5
5E
102
{ACAD_REACTORS
330
16
102
}
330
16
100
AcDbVisualStyle
  2
Conceptual
 70
9
 90
3
 40
0.6
 62
7
290
0
291
0
  0
VISUALSTYLE
  5
5F
102
{ACAD_REACTORS
330
16
102
}
330
16
100
AcDbVisualStyle
  2
Dim
 70
11
 90
2
 40
0.6
 62
7
290
0
291
1
  0
VISUALSTYLE
  5
60
102
{ACAD_REACTORS
330
16
102
}
330
16
100
AcDbVisualStyle
  2
EdgeColorOff
 70
22
 90
2
 40
0.6
 62
7
290
0
291
1
  0
VISUALSTYLE
  5
61
102
{ACAD_REACTORS
330
16
102
}
330
16
100
AcDbVisualStyle
  2
Facepattern
 70
15
 90
2
 40
0.6
 62
7
290
0
291
1
  0
VISUALSTYLE
  5
62
102
{ACAD_REACTORS
330
16
102
}
330
16
100
AcDbVisualStyle
  2
Flat
 70
0
 90
2
 40
0.6
 62
7
290
0
291
1
  0
VISUALSTYLE
  5
63
102
{ACAD_REACTORS
330
16
102
}
330
16
100
AcDbVisualStyle
  2
FlatWithEdges
 70
1
 90
2
 40
0.6
 62
7
290
0
291
1
  0
VISUALSTYLE
  5
64
102
{ACAD_REACTORS
330
16
102
}
330
16
100
AcDbVisualStyle
  2
Gouraud
 70
2
 90
2
 40
0.6
 62
7
290
0
291
1
  0
VISUALSTYLE
  5
65
102
{ACAD_REACTORS
330
16
102
}
330
16
100
AcDbVisualStyle
  2
GouraudWithEdges
 70
3
 90
2
 40
0.6
 62
7
290
0
291
1
  0
VISUALSTYLE
  5
66
102
{ACAD_REACTORS
330
16
102
}
330
16
100
AcDbVisualStyle
  2
Hidden
 70
6
 90
1
 40
0.6
 62
7
290
0
291
0
  0
VISUALSTYLE
  5
67
102
{ACAD_REACTORS
330
16
102
}
330
16
100
AcDbVisualStyle
  2
JitterOff
 70
20
 90
2
 40
0.6
 62
7
290
0
291
1
  0
VISUALSTYLE
  5
68
102
{ACAD_REACTORS
330
16
102
}
330
16
100
AcDbVisualStyle
  2
Linepattern
 70
14
 90
2
 40
0.6
 62
7
290
0
291
1
  0
VISUALSTYLE
  5
69
102
{ACAD_REACTORS
330
16
102
}
330
16
100
AcDbVisualStyle
  2
Modeling
 70
10
 90
2
 40
0.6
 62
7
290
0
291
0
  0
VISUALSTYLE
  5
6A
102
{ACAD_REACTORS
330
16
102
}
330
16
100
AcDbVisualStyle
  2
OverhangOff
 70
21
 90
2
 40
0.6
 62
7
290
0
291
1
  0
VISUALSTYLE
  5
6B
102
{ACAD_REACTORS
330
16
102
}
330
16
100
AcDbVisualStyle
  2
Realistic
 70
8
 90
2
 40
0.6
 62
7
290
0
291
0
  0
VISUALSTYLE
  5
6C
102
{ACAD_REACTORS
330
16
102
}
330
16
100
AcDbVisualStyle
  2
Shaded
 70
27
 90
2
 40
0.6
 62
7
290
0
291
0
  0
VISUALSTYLE
  5
6D
102
{ACAD_REACTORS
330
16
102
}
330
16
100
AcDbVisualStyle
  2
Shaded with edges
 70
26
 90
2
 40
0.6
 62
7
290
0
291
0
  0
VISUALSTYLE
  5
6E
102
{ACAD_REACTORS
330
16
102
}
330
16
100
AcDbVisualStyle
  2
Shades of Gray
 70
23
 90
2
 40
0.6
 62
7
290
0
291
0
  0
VISUALSTYLE
  5
6F
102
{ACAD_REACTORS
330
16
102
}
330
16
100
AcDbVisualStyle
  2
Sketchy
 70
24
 90
1
 40
0.6
 62
7
290
0
291
0
  0
VISUALSTYLE
  5
70
102
{ACAD_REACTORS
330
16
102
}
330
16
100
AcDbVisualStyle
  2
Thicken
 70
13
 90
2
 40
0.6
 62
7
290
0
291
1
  0
VISUALSTYLE
  5
71
102
{ACAD_REACTORS
330
16
102
}
330
16
100
AcDbVisualStyle
  2
Wireframe
 70
5
 90
0
 40
0.6
 62
7
290
0
291
0
  0
VISUALSTYLE
  5
72
102
{ACAD_REACTORS
330
16
102
}
330
16
100
AcDbVisualStyle
  2
X-Ray
 70
25
 90
2
 40
0.5
 62
7
290
0
291
0
  0
DICTIONARYVAR
  5
337
330
2D
100
DictionaryVariables
280
0
  1
1.4.3 @ 2026-05-08T12:17:14.631031+00:00
  0
ENDSEC
  0
EOF
